<svg xmlns="http://www.w3.org/2000/svg" version="1.1" xmlns:xlink="http://www.w3.org/1999/xlink" xmlns:svgjs="http://svgjs.dev/svgjs" width="1440" height="4000" preserveAspectRatio="none" viewBox="0 0 1440 4000">
    <g mask="url(&quot;#SvgjsMask1005&quot;)" fill="none">
        <rect width="1440" height="4000" x="0" y="0" fill="rgba(14, 9, 63, 1)"></rect>
        <path d="M1281.27 1152.48L1357.2 1152.48L1357.2 1239.59L1281.27 1239.59z" stroke="#037b0b"></path>
        <path d="M671.88 132.1 a88.88 88.88 0 1 0 177.76 0 a88.88 88.88 0 1 0 -177.76 0z" stroke="#e73635"></path>
        <path d="M125.96 448.94L236.35 448.94L236.35 544.64L125.96 544.64z" stroke="#e73635"></path>
        <path d="M1299.05 2045.81L1329.53 2045.81L1329.53 2076.29L1299.05 2076.29z" stroke="#d3b714"></path>
        <path d="M122.37 551.59L247.69 551.59L247.69 681.37L122.37 681.37z" stroke="#037b0b"></path>
        <path d="M1154.21 3568.93a42.09 42.09 0 1 0 83.34 11.91z" fill="#d3b714"></path>
        <path d="M1166.46 87.02L1220.93 87.02L1220.93 187.46L1166.46 187.46z" stroke="#d3b714"></path>
        <path d="M1417.87 31.39a16.14 16.14 0 1 0 3.19 32.12z" fill="#d3b714"></path>
        <path d="M20.3 3370.74 a76.98 76.98 0 1 0 153.96 0 a76.98 76.98 0 1 0 -153.96 0z" stroke="#d3b714"></path>
        <path d="M84.14 1712.26 a138.27 138.27 0 1 0 276.54 0 a138.27 138.27 0 1 0 -276.54 0z" stroke="#d3b714"></path>
        <path d="M359.31 2758.84a99.31 99.31 0 1 0 67.24-186.89z" fill="#e73635"></path>
        <path d="M130.22 2375.88a53.85 53.85 0 1 0-104.25-27.06z" stroke="#d3b714"></path>
        <path d="M307.36 2283.23a108.48 108.48 0 1 0 208.14 61.2z" stroke="#d3b714"></path>
        <path d="M1376.19 864.87L1514.51 864.87L1514.51 888.38L1376.19 888.38z" fill="#037b0b"></path>
        <path d="M1296.43 1686.06L1391.22 1686.06L1391.22 1780.85L1296.43 1780.85z" fill="#d3b714"></path>
        <path d="M1062.91 2296.56a88.04 88.04 0 1 0 17.86-175.17z" fill="#e73635"></path>
        <path d="M337.6 1326.77L338.36 1326.77L338.36 1327.53L337.6 1327.53z" stroke="#d3b714"></path>
        <path d="M895.61 2894.04L999.74 2894.04L999.74 3036.41L895.61 3036.41z" stroke="#d3b714"></path>
        <path d="M440.38 2856.57a63.89 63.89 0 1 0 127.58-7.3z" fill="#d3b714"></path>
        <path d="M455.22 3968.3a41.32 41.32 0 1 0 77.7-28.15z" fill="#037b0b"></path>
        <path d="M358.72 2521.42a123.98 123.98 0 1 0 139.89-204.73z" fill="#d3b714"></path>
        <path d="M1241.03 1801.42L1377.73 1801.42L1377.73 1938.12L1241.03 1938.12z" fill="#d3b714"></path>
        <path d="M1102.23 1383.98a106.55 106.55 0 1 0-210.85-30.87z" stroke="#d3b714"></path>
        <path d="M731.48 1565.31a77.62 77.62 0 1 0 50.11 146.94z" fill="#037b0b"></path>
        <path d="M1297.72 1168.77L1302.21 1168.77L1302.21 1173.26L1297.72 1173.26z" fill="#d3b714"></path>
        <path d="M395.88 3765.61L509.94 3765.61L509.94 3879.67L395.88 3879.67z" fill="#d3b714"></path>
        <path d="M1146.67 3896.33 a120.15 120.15 0 1 0 240.3 0 a120.15 120.15 0 1 0 -240.3 0z" fill="#e73635"></path>
        <path d="M282.79 2083L424.23 2083L424.23 2224.44L282.79 2224.44z" stroke="#d3b714"></path>
        <path d="M1098.99 592.74L1106.17 592.74L1106.17 638.27L1098.99 638.27z" fill="#d3b714"></path>
        <path d="M437.51 2706.71 a24.86 24.86 0 1 0 49.72 0 a24.86 24.86 0 1 0 -49.72 0z" stroke="#037b0b"></path>
        <path d="M139.3 2912.61L213.01 2912.61L213.01 2922.06L139.3 2922.06z" fill="#d3b714"></path>
        <path d="M1023.09 3389.44 a21.64 21.64 0 1 0 43.28 0 a21.64 21.64 0 1 0 -43.28 0z" fill="#e73635"></path>
        <path d="M697.05 3199.12a36.17 36.17 0 1 0-58.91-41.99z" fill="#d3b714"></path>
        <path d="M1303.65 3374.2L1422.39 3374.2L1422.39 3453.95L1303.65 3453.95z" stroke="#d3b714"></path>
        <path d="M913.83 792.1L933.3 792.1L933.3 811.57L913.83 811.57z" stroke="#d3b714"></path>
    </g>
    <defs>
        <mask id="SvgjsMask1005">
            <rect width="1440" height="4000" fill="#ffffff"></rect>
        </mask>
    </defs>
</svg>