<svg xmlns="http://www.w3.org/2000/svg" version="1.1" xmlns:xlink="http://www.w3.org/1999/xlink" xmlns:svgjs="http://svgjs.dev/svgjs" width="1440" height="4000" preserveAspectRatio="none" viewBox="0 0 1440 4000">
    <g mask="url(&quot;#SvgjsMask1001&quot;)" fill="none">
        <rect width="1440" height="4000" x="0" y="0" fill="rgba(243, 244, 246, 1)"></rect>
        <path d="M318.27 399.69L355.11 399.69L355.11 436.53L318.27 436.53z" fill="#037b0b"></path>
        <path d="M315.18 1524.21L366.71 1524.21L366.71 1575.74L315.18 1575.74z" stroke="#037b0b"></path>
        <path d="M878.16 2826.1a47.35 47.35 0 1 0 31.99 89.13z" stroke="rgba(5, 65, 108, 1)"></path>
        <path d="M573.45 1947.51L637.53 1947.51L637.53 2039.56L573.45 2039.56z" fill="rgba(5, 65, 108, 1)"></path>
        <path d="M282.1 2876.82L327.19 2876.82L327.19 2879.79L282.1 2879.79z" fill="rgba(5, 65, 108, 1)"></path>
        <path d="M431.19 2940.75L457.34 2940.75L457.34 3030.66L431.19 3030.66z" fill="#037b0b"></path>
        <path d="M1296 684.37 a102.84 102.84 0 1 0 205.68 0 a102.84 102.84 0 1 0 -205.68 0z" fill="#d3b714"></path>
        <path d="M92.26 2746.07 a112.82 112.82 0 1 0 225.64 0 a112.82 112.82 0 1 0 -225.64 0z" stroke="#037b0b"></path>
        <path d="M807.91 3097.38a100 100 0 1 0-67.09-188.42z" fill="#037b0b"></path>
        <path d="M249.51 3475.92a28.01 28.01 0 1 0-15.53-53.82z" fill="rgba(5, 65, 108, 1)"></path>
        <path d="M1269.08 986.89a129.26 129.26 0 1 0-136.4 219.61z" fill="rgba(5, 65, 108, 1)"></path>
        <path d="M324.27 2650.7L446.34 2650.7L446.34 2733.57L324.27 2733.57z" stroke="#d3b714"></path>
        <path d="M129.42 2119.02L218.53 2119.02L218.53 2208.13L129.42 2208.13z" stroke="#037b0b"></path>
        <path d="M298.26 688.98a70.38 70.38 0 1 0-140.3 11.32z" fill="#d3b714"></path>
        <path d="M740.24 1749.07a0.42 0.42 0 1 0 0.01-0.84z" stroke="#d3b714"></path>
        <path d="M1275.57 2457.53 a105.27 105.27 0 1 0 210.54 0 a105.27 105.27 0 1 0 -210.54 0z" stroke="rgba(5, 65, 108, 1)"></path>
        <path d="M705.02 3876a111.11 111.11 0 1 0 217.57-45.22z" fill="#d3b714"></path>
        <path d="M45.81 1187.21L122.14 1187.21L122.14 1195.09L45.81 1195.09z" stroke="rgba(5, 65, 108, 1)"></path>
        <path d="M452.03 3543.16L452.56 3543.16L452.56 3543.69L452.03 3543.69z" fill="#d3b714"></path>
        <path d="M420.08 3377.83a13.27 13.27 0 1 0-25.46 7.46z" stroke="#d3b714"></path>
        <path d="M108.46 2387.31 a35.18 35.18 0 1 0 70.36 0 a35.18 35.18 0 1 0 -70.36 0z" stroke="rgba(5, 65, 108, 1)"></path>
        <path d="M988.23 2808.92L1015.28 2808.92L1015.28 2850.54L988.23 2850.54z" stroke="rgba(5, 65, 108, 1)"></path>
        <path d="M411.33 410.17L523.88 410.17L523.88 520.9L411.33 520.9z" stroke="#d3b714"></path>
        <path d="M1390.96 2925.81L1400.43 2925.81L1400.43 2934.34L1390.96 2934.34z" fill="rgba(5, 65, 108, 1)"></path>
        <path d="M421.57 2402.3a82.74 82.74 0 1 0-148.62-72.77z" stroke="rgba(5, 65, 108, 1)"></path>
        <path d="M81.8 2611.86L215.78 2611.86L215.78 2663.22L81.8 2663.22z" stroke="rgba(5, 65, 108, 1)"></path>
        <path d="M772.56 1584.81a37.36 37.36 0 1 0-32.41 67.33z" stroke="#037b0b"></path>
        <path d="M1233.13 3923.66 a131.11 131.11 0 1 0 262.22 0 a131.11 131.11 0 1 0 -262.22 0z" fill="#037b0b"></path>
        <path d="M681.19 3714.14a129.1 129.1 0 1 0 184.41-180.72z" stroke="#d3b714"></path>
        <path d="M505.69 509.51a136.34 136.34 0 1 0 42.17 269.4z" stroke="rgba(5, 65, 108, 1)"></path>
        <path d="M742.17 2472.51 a40.41 40.41 0 1 0 80.82 0 a40.41 40.41 0 1 0 -80.82 0z" stroke="rgba(5, 65, 108, 1)"></path>
        <path d="M429.08 606.58 a83.45 83.45 0 1 0 166.9 0 a83.45 83.45 0 1 0 -166.9 0z" stroke="rgba(5, 65, 108, 1)"></path>
        <path d="M1200.1 3521.99L1242.3 3521.99L1242.3 3527.7L1200.1 3527.7z" fill="#d3b714"></path>
        <path d="M845.93 1648.31 a6.88 6.88 0 1 0 13.76 0 a6.88 6.88 0 1 0 -13.76 0z" stroke="#037b0b"></path>
        <path d="M1308.1 1753.14L1384.82 1753.14L1384.82 1829.86L1308.1 1829.86z" fill="#037b0b"></path>
    </g>
    <defs>
        <mask id="SvgjsMask1001">
            <rect width="1440" height="4000" fill="#ffffff"></rect>
        </mask>
    </defs>
</svg>