<svg xmlns="http://www.w3.org/2000/svg" version="1.1" xmlns:xlink="http://www.w3.org/1999/xlink" xmlns:svgjs="http://svgjs.dev/svgjs" width="96" height="200" preserveAspectRatio="none" viewBox="0 0 96 200">
    <g mask="url(&quot;#SvgjsMask1016&quot;)" fill="none">
        <rect width="96" height="200" x="0" y="0" fill="rgba(14, 9, 63, 1)"></rect>
        <path d="M -17.512712615954044,88 C -11.11,97.2 1.69,147 14.487287384045956,134 C 27.29,121 33.69,25.2 46.487287384045956,23 C 59.29,20.8 65.69,120.8 78.48728738404596,123 C 91.29,125.2 106.98,27.8 110.48728738404596,34 C 113.99,40.2 98.9,130 96,154" stroke="rgba(41, 5, 76, 1)" stroke-width="2"></path>
        <path d="M -28.226134837310155,45 C -21.83,59.2 -9.03,112.8 3.7738651626898445,116 C 16.57,119.2 22.97,57.4 35.773865162689845,61 C 48.57,64.6 54.97,141.4 67.77386516268984,134 C 80.57,126.6 94.13,24.4 99.77386516268984,24 C 105.42,23.6 96.75,110.4 96,132" stroke="rgba(41, 5, 76, 1)" stroke-width="2"></path>
        <path d="M -1.5376090982634807,53 C 4.86,71.4 17.66,137.6 30.46239090173652,145 C 43.26,152.4 49.66,90.8 62.46239090173652,90 C 75.26,89.2 81.66,153.2 94.46239090173651,141 C 107.26,128.8 126.15,31.6 126.46239090173651,29 C 126.77,26.4 102.09,108.2 96,128" stroke="rgba(41, 5, 76, 1)" stroke-width="2"></path>
        <path d="M -3.8004672034810483,136 C 2.6,114.6 15.4,24.6 28.19953279651895,29 C 41,33.4 47.4,153 60.19953279651895,158 C 73,163 79.4,59 92.19953279651895,54 C 105,49 123.44,126 124.19953279651895,133 C 124.96,140 101.64,97.8 96,89" stroke="rgba(41, 5, 76, 1)" stroke-width="2"></path>
    </g>
    <defs>
        <mask id="SvgjsMask1016">
            <rect width="96" height="200" fill="#ffffff"></rect>
        </mask>
    </defs>
</svg>