<?xml version="1.0" encoding="UTF-8" standalone="no"?>
<svg
   width="608"
   height="601"
   viewBox="0 0 608 601"
   fill="none"
   version="1.1"
   id="svg22"
   xml:space="preserve"
   xmlns="http://www.w3.org/2000/svg"
   xmlns:svg="http://www.w3.org/2000/svg"><rect
     x="-53.141747"
     y="306.79797"
     width="2.1638"
     height="12.9828"
     transform="rotate(-10.0946)"
     fill="url(#paint0_linear_0_1)"
     id="rect1"
     style="fill:url(#paint0_linear_0_1)" /><rect
     x="-50.578014"
     y="293.81534"
     width="2.1638"
     height="25.9657"
     transform="rotate(-10.0946)"
     fill="url(#paint1_linear_0_1)"
     id="rect2"
     style="fill:url(#paint1_linear_0_1)" /><rect
     x="-48.014469"
     y="306.79764"
     width="2.1638"
     height="12.9828"
     transform="rotate(-10.0946)"
     fill="#6d28a1"
     id="rect3" /><rect
     x="-45.450535"
     y="311.125"
     width="2.1638"
     height="8.65522"
     transform="rotate(-10.0946)"
     fill="#ed0349"
     id="rect4" /><rect
     x="-42.886581"
     y="302.47043"
     width="2.1638"
     height="17.3104"
     transform="rotate(-10.0946)"
     fill="#ed9d03"
     id="rect5" /><rect
     x="-40.322948"
     y="311.12576"
     width="2.1638"
     height="8.65522"
     transform="rotate(-10.0946)"
     fill="#ecd8de"
     id="rect6" /><circle
     opacity="0.2"
     cx="308"
     cy="300.25"
     r="299.70001"
     stroke="url(#paint2_linear_0_1)"
     stroke-width="0.6"
     id="circle6"
     style="stroke:url(#paint2_linear_0_1)" /><circle
     opacity="0.2"
     cx="308"
     cy="300.25"
     r="249.7"
     stroke="url(#paint3_linear_0_1)"
     stroke-width="0.6"
     id="circle7"
     style="stroke:url(#paint3_linear_0_1)" /><circle
     opacity="0.2"
     cx="308"
     cy="300.25"
     r="274.70001"
     stroke="url(#paint4_linear_0_1)"
     stroke-width="0.6"
     id="circle8"
     style="stroke:url(#paint4_linear_0_1)" /><rect
     x="592.27173"
     y="229.09399"
     width="16"
     height="30"
     rx="1"
     transform="rotate(2.97003)"
     stroke="#ffffff"
     stroke-width="0.6"
     id="rect8" /><rect
     x="598.98907"
     y="257.85757"
     width="2.5666699"
     height="0.1"
     rx="0.050000001"
     transform="rotate(2.97003)"
     fill="#065289"
     stroke="#ffffff"
     stroke-width="0.1"
     id="rect9" /><rect
     x="598.47278"
     y="230.59372"
     width="3.5999999"
     height="0.40000001"
     rx="0.2"
     transform="rotate(2.97003)"
     fill="#ffffff"
     stroke="#ffffff"
     stroke-width="0.4"
     id="rect10" /><mask
     id="path-13-inside-1_0_1"
     fill="#ffffff"><path
       d="m 264.67,556.497 c 0,2.243 -0.665,4.434 -1.911,6.299 -1.246,1.864 -3.016,3.317 -5.088,4.175 -2.071,0.858 -4.351,1.083 -6.55,0.645 -2.199,-0.437 -4.219,-1.517 -5.804,-3.102 -1.586,-1.586 -2.666,-3.606 -3.103,-5.805 -0.438,-2.199 -0.213,-4.478 0.645,-6.55 0.858,-2.071 2.311,-3.842 4.175,-5.088 1.865,-1.245 4.057,-1.91 6.299,-1.91 v 11.336 z"
       id="path10" /></mask><path
     d="m 264.67,556.497 c 0,2.243 -0.665,4.434 -1.911,6.299 -1.246,1.864 -3.016,3.317 -5.088,4.175 -2.071,0.858 -4.351,1.083 -6.55,0.645 -2.199,-0.437 -4.219,-1.517 -5.804,-3.102 -1.586,-1.586 -2.666,-3.606 -3.103,-5.805 -0.438,-2.199 -0.213,-4.478 0.645,-6.55 0.858,-2.071 2.311,-3.842 4.175,-5.088 1.865,-1.245 4.057,-1.91 6.299,-1.91 v 11.336 z"
     stroke="#ffffff"
     stroke-width="1.6"
     mask="url(#path-13-inside-1_0_1)"
     id="path11" /><mask
     id="path-14-inside-2_0_1"
     fill="#ffffff"><path
       d="m 265.989,555.179 c 0,-1.489 -0.293,-2.963 -0.863,-4.339 -0.57,-1.375 -1.405,-2.625 -2.457,-3.678 -1.053,-1.053 -2.303,-1.888 -3.678,-2.457 -1.376,-0.57 -2.85,-0.863 -4.339,-0.863 v 11.337 z"
       id="path12" /></mask><path
     d="m 265.989,555.179 c 0,-1.489 -0.293,-2.963 -0.863,-4.339 -0.57,-1.375 -1.405,-2.625 -2.457,-3.678 -1.053,-1.053 -2.303,-1.888 -3.678,-2.457 -1.376,-0.57 -2.85,-0.863 -4.339,-0.863 v 11.337 z"
     stroke="#1e999f"
     stroke-width="1.6"
     mask="url(#path-14-inside-2_0_1)"
     id="path13" /><defs
     id="defs22"><linearGradient
       id="paint0_linear_0_1"
       x1="1.5907201"
       y1="312.80499"
       x2="5.2260799"
       y2="313.04901"
       gradientUnits="userSpaceOnUse"
       gradientTransform="translate(-54.596337,-4.5650398)"><stop
         stop-color="#4E54EA"
         id="stop13" /><stop
         offset="1"
         stop-color="#0B0F60"
         id="stop14" /></linearGradient><linearGradient
       id="paint1_linear_0_1"
       x1="1.70312"
       y1="311.11401"
       x2="4.00668"
       y2="311.11401"
       gradientUnits="userSpaceOnUse"
       gradientTransform="translate(-52.281135,-4.3166592)"><stop
         stop-color="#1E999F"
         id="stop15" /><stop
         offset="1"
         stop-color="#065289"
         id="stop16" /></linearGradient><linearGradient
       id="paint2_linear_0_1"
       x1="8"
       y1="300.25"
       x2="646.75098"
       y2="300.25"
       gradientUnits="userSpaceOnUse"><stop
         stop-color="#1E999F"
         id="stop17" /><stop
         offset="1"
         stop-color="#065289"
         id="stop18" /></linearGradient><linearGradient
       id="paint3_linear_0_1"
       x1="58"
       y1="300.25"
       x2="590.29199"
       y2="300.25"
       gradientUnits="userSpaceOnUse"><stop
         stop-color="#4E54EA"
         id="stop19" /><stop
         offset="1"
         stop-color="#531E7B"
         id="stop20" /></linearGradient><linearGradient
       id="paint4_linear_0_1"
       x1="33"
       y1="300.25"
       x2="618.52197"
       y2="300.25"
       gradientUnits="userSpaceOnUse"><stop
         stop-color="#B23AE8"
         id="stop21" /><stop
         offset="1"
         stop-color="#530B99"
         id="stop22" /></linearGradient><clipPath
       id="clip0_102_1073"><rect
         width="269"
         height="172.25999"
         fill="#ffffff"
         transform="translate(0.892578,0.026001)"
         id="rect24"
         x="0"
         y="0" /></clipPath><filter
       id="filter0_d_102_1073"
       x="54.103001"
       y="10.4583"
       width="108.248"
       height="163.884"
       filterUnits="userSpaceOnUse"
       color-interpolation-filters="sRGB"><feFlood
         flood-opacity="0"
         result="BackgroundImageFix"
         id="feFlood7" /><feColorMatrix
         in="SourceAlpha"
         type="matrix"
         values="0 0 0 0 0 0 0 0 0 0 0 0 0 0 0 0 0 0 127 0"
         result="hardAlpha"
         id="feColorMatrix7" /><feOffset
         dx="1"
         dy="-2"
         id="feOffset7" /><feGaussianBlur
         stdDeviation="2"
         id="feGaussianBlur7" /><feComposite
         in2="hardAlpha"
         operator="out"
         id="feComposite7" /><feColorMatrix
         type="matrix"
         values="0 0 0 0 0 0 0 0 0 0 0 0 0 0 0 0 0 0 0.15 0"
         id="feColorMatrix8" /><feBlend
         mode="normal"
         in2="BackgroundImageFix"
         result="effect1_dropShadow_102_1073"
         id="feBlend8" /><feBlend
         mode="normal"
         in="SourceGraphic"
         in2="effect1_dropShadow_102_1073"
         result="shape"
         id="feBlend9" /></filter><linearGradient
       id="paint0_linear_102_1073"
       x1="57.103001"
       y1="94.400597"
       x2="163.826"
       y2="94.400597"
       gradientUnits="userSpaceOnUse"><stop
         stop-color="#1E999F"
         id="stop19-6" /><stop
         offset="1"
         stop-color="#065289"
         id="stop20-7" /></linearGradient><filter
       id="filter1_d_102_1073"
       x="146.67999"
       y="-5.974"
       width="128.21201"
       height="180.25999"
       filterUnits="userSpaceOnUse"
       color-interpolation-filters="sRGB"><feFlood
         flood-opacity="0"
         result="BackgroundImageFix"
         id="feFlood9" /><feColorMatrix
         in="SourceAlpha"
         type="matrix"
         values="0 0 0 0 0 0 0 0 0 0 0 0 0 0 0 0 0 0 127 0"
         result="hardAlpha"
         id="feColorMatrix9" /><feOffset
         dx="1"
         dy="-2"
         id="feOffset9" /><feGaussianBlur
         stdDeviation="2"
         id="feGaussianBlur9" /><feComposite
         in2="hardAlpha"
         operator="out"
         id="feComposite9" /><feColorMatrix
         type="matrix"
         values="0 0 0 0 0 0 0 0 0 0 0 0 0 0 0 0 0 0 0.15 0"
         id="feColorMatrix10" /><feBlend
         mode="normal"
         in2="BackgroundImageFix"
         result="effect1_dropShadow_102_1073"
         id="feBlend10" /><feBlend
         mode="normal"
         in="SourceGraphic"
         in2="effect1_dropShadow_102_1073"
         result="shape"
         id="feBlend11" /></filter><linearGradient
       id="paint1_linear_102_1073"
       x1="149.67999"
       y1="86.156197"
       x2="277.65601"
       y2="86.156197"
       gradientUnits="userSpaceOnUse"><stop
         stop-color="#B23AE8"
         id="stop21-5" /><stop
         offset="1"
         stop-color="#530B99"
         id="stop22-0" /></linearGradient><filter
       id="filter2_d_102_1073"
       x="129.054"
       y="134.203"
       width="60.789101"
       height="23.315201"
       filterUnits="userSpaceOnUse"
       color-interpolation-filters="sRGB"><feFlood
         flood-opacity="0"
         result="BackgroundImageFix"
         id="feFlood11" /><feColorMatrix
         in="SourceAlpha"
         type="matrix"
         values="0 0 0 0 0 0 0 0 0 0 0 0 0 0 0 0 0 0 127 0"
         result="hardAlpha"
         id="feColorMatrix11" /><feOffset
         dx="1"
         dy="-2"
         id="feOffset11" /><feGaussianBlur
         stdDeviation="2"
         id="feGaussianBlur11" /><feComposite
         in2="hardAlpha"
         operator="out"
         id="feComposite11" /><feColorMatrix
         type="matrix"
         values="0 0 0 0 0 0 0 0 0 0 0 0 0 0 0 0 0 0 0.15 0"
         id="feColorMatrix12" /><feBlend
         mode="normal"
         in2="BackgroundImageFix"
         result="effect1_dropShadow_102_1073"
         id="feBlend12" /><feBlend
         mode="normal"
         in="SourceGraphic"
         in2="effect1_dropShadow_102_1073"
         result="shape"
         id="feBlend13" /></filter><filter
       id="filter3_d_102_1073"
       x="-2.10742"
       y="86.527702"
       width="71.0625"
       height="73.6735"
       filterUnits="userSpaceOnUse"
       color-interpolation-filters="sRGB"><feFlood
         flood-opacity="0"
         result="BackgroundImageFix"
         id="feFlood13" /><feColorMatrix
         in="SourceAlpha"
         type="matrix"
         values="0 0 0 0 0 0 0 0 0 0 0 0 0 0 0 0 0 0 127 0"
         result="hardAlpha"
         id="feColorMatrix13" /><feOffset
         dx="1"
         dy="-2"
         id="feOffset13" /><feGaussianBlur
         stdDeviation="2"
         id="feGaussianBlur13" /><feComposite
         in2="hardAlpha"
         operator="out"
         id="feComposite13" /><feColorMatrix
         type="matrix"
         values="0 0 0 0 0 0 0 0 0 0 0 0 0 0 0 0 0 0 0.15 0"
         id="feColorMatrix14" /><feBlend
         mode="normal"
         in2="BackgroundImageFix"
         result="effect1_dropShadow_102_1073"
         id="feBlend14" /><feBlend
         mode="normal"
         in="SourceGraphic"
         in2="effect1_dropShadow_102_1073"
         result="shape"
         id="feBlend15" /></filter><linearGradient
       id="paint2_linear_102_1073"
       x1="0.89257801"
       y1="125.364"
       x2="68.027901"
       y2="125.364"
       gradientUnits="userSpaceOnUse"><stop
         stop-color="#B23AE8"
         id="stop23" /><stop
         offset="1"
         stop-color="#530B99"
         id="stop24" /></linearGradient><filter
       id="filter4_d_102_1073"
       x="129.054"
       y="86.583"
       width="60.789101"
       height="23.315201"
       filterUnits="userSpaceOnUse"
       color-interpolation-filters="sRGB"><feFlood
         flood-opacity="0"
         result="BackgroundImageFix"
         id="feFlood15" /><feColorMatrix
         in="SourceAlpha"
         type="matrix"
         values="0 0 0 0 0 0 0 0 0 0 0 0 0 0 0 0 0 0 127 0"
         result="hardAlpha"
         id="feColorMatrix15" /><feOffset
         dx="1"
         dy="-2"
         id="feOffset15" /><feGaussianBlur
         stdDeviation="2"
         id="feGaussianBlur15" /><feComposite
         in2="hardAlpha"
         operator="out"
         id="feComposite15" /><feColorMatrix
         type="matrix"
         values="0 0 0 0 0 0 0 0 0 0 0 0 0 0 0 0 0 0 0.15 0"
         id="feColorMatrix16" /><feBlend
         mode="normal"
         in2="BackgroundImageFix"
         result="effect1_dropShadow_102_1073"
         id="feBlend16" /><feBlend
         mode="normal"
         in="SourceGraphic"
         in2="effect1_dropShadow_102_1073"
         result="shape"
         id="feBlend17" /></filter><filter
       id="filter5_d_102_1073"
       x="129.054"
       y="111.456"
       width="60.789101"
       height="23.314501"
       filterUnits="userSpaceOnUse"
       color-interpolation-filters="sRGB"><feFlood
         flood-opacity="0"
         result="BackgroundImageFix"
         id="feFlood17" /><feColorMatrix
         in="SourceAlpha"
         type="matrix"
         values="0 0 0 0 0 0 0 0 0 0 0 0 0 0 0 0 0 0 127 0"
         result="hardAlpha"
         id="feColorMatrix17" /><feOffset
         dx="1"
         dy="-2"
         id="feOffset17" /><feGaussianBlur
         stdDeviation="2"
         id="feGaussianBlur17" /><feComposite
         in2="hardAlpha"
         operator="out"
         id="feComposite17" /><feColorMatrix
         type="matrix"
         values="0 0 0 0 0 0 0 0 0 0 0 0 0 0 0 0 0 0 0.15 0"
         id="feColorMatrix18" /><feBlend
         mode="normal"
         in2="BackgroundImageFix"
         result="effect1_dropShadow_102_1073"
         id="feBlend18" /><feBlend
         mode="normal"
         in="SourceGraphic"
         in2="effect1_dropShadow_102_1073"
         result="shape"
         id="feBlend19" /></filter></defs><g
     clip-path="url(#clip0_102_1073)"
     id="g8"
     transform="translate(159.50422,276.39477)"><g
       filter="url(#filter0_d_102_1073)"
       id="g2"><path
         d="m 156.952,33.5614 c 0,0.0559 -0.063,0.1118 -0.063,0.1677 l -0.499,0.7266 -37.439,58.0724 -9.922,15.3709 -6.177,9.557 -9.9215,15.371 -4.7424,7.378 -9.9213,15.37 -1.56,2.403 -9.235,14.365 h -0.1872 l -8.7982,-10.564 -0.8736,-1.006 c -0.624,-1.006 -0.6864,-2.292 -0.1248,-3.465 0.0624,-0.112 0.1248,-0.224 0.1248,-0.28 0.0624,-0.112 0.1248,-0.223 0.1872,-0.335 l 7.7374,-12.017 2.8704,-4.416 4.7423,-7.377 9.9214,-15.371 6.1774,-9.557 9.9214,-15.371 49.0457,-76.1257 8.486,13.1907 c 0.749,1.1178 0.874,2.571 0.25,3.9124 z"
         fill="url(#paint0_linear_102_1073)"
         id="path1"
         style="fill:url(#paint0_linear_102_1073)" /></g><g
       filter="url(#filter1_d_102_1073)"
       id="g3"><path
         d="m 269.893,172.286 h -17.16 c -0.624,0 -1.186,-0.111 -1.747,-0.335 -0.749,-0.28 -1.373,-0.727 -1.81,-1.23 l -0.749,-1.118 -9.172,-14.084 -9.922,-15.371 -4.742,-7.378 -9.921,-15.37 -6.178,-9.558 -9.796,-15.3141 -39.873,-61.817 -8.361,-13.0229 -0.375,-0.6148 c -0.499,-0.9502 -0.561,-2.1239 -0.062,-3.2418 0.062,-0.1118 0.062,-0.1677 0.125,-0.2794 0.062,-0.1118 0.124,-0.1677 0.187,-0.2795 l 8.486,-13.246499 9.859,15.314499 49.732,77.1874 9.921,15.3701 6.178,9.558 9.921,15.37 4.742,7.378 9.922,15.37 z"
         fill="url(#paint1_linear_102_1073)"
         id="path2"
         style="fill:url(#paint1_linear_102_1073)" /></g><g
       filter="url(#filter2_d_102_1073)"
       id="g4"><path
         d="m 184.843,147.861 c 0,4.248 -3.807,7.657 -8.549,7.657 h -35.692 c -4.742,0 -8.548,-3.409 -8.548,-7.657 0,-4.248 3.806,-7.658 8.548,-7.658 h 35.63 c 4.742,-0.055 8.611,3.41 8.611,7.658 z"
         fill="#e06881"
         id="path3" /></g><g
       filter="url(#filter3_d_102_1073)"
       id="g5"><path
         d="m 63.5404,145.849 c -0.1248,0.224 -0.1872,0.447 -0.3744,0.615 L 55.6158,158.201 0.892578,92.5277 H 19.9864 c 0.624,0 1.1856,0.1118 1.7472,0.3354 0.6864,0.2794 1.2479,0.6707 1.7471,1.1178 l 0.0624,0.0559 0.312,0.3912 39.1237,46.95 c 0.9984,1.229 1.3104,2.906 0.5616,4.471 z"
         fill="url(#paint2_linear_102_1073)"
         id="path4"
         style="fill:url(#paint2_linear_102_1073)" /></g><g
       filter="url(#filter4_d_102_1073)"
       id="g6"><path
         d="m 184.843,100.241 c 0,4.248 -3.807,7.657 -8.549,7.657 h -35.692 c -4.742,0 -8.548,-3.409 -8.548,-7.657 0,-4.2479 3.806,-7.6573 8.548,-7.6573 h 35.63 c 4.742,-0.0559 8.611,3.4094 8.611,7.6573 z"
         fill="#e06881"
         id="path5" /></g><g
       filter="url(#filter5_d_102_1073)"
       id="g7"><path
         d="m 184.843,125.113 c 0,4.248 -3.807,7.657 -8.549,7.657 h -35.692 c -4.742,0 -8.548,-3.409 -8.548,-7.657 0,-4.248 3.806,-7.657 8.548,-7.657 h 35.63 c 4.742,0 8.611,3.409 8.611,7.657 z"
         fill="#e06881"
         id="path6" /></g></g><g
     id="g24"
     style="display:inline"
     transform="matrix(1,0,0,0.92690631,0.80026631,-77.26837)"><g
       style="fill:none"
       id="g23"
       transform="translate(99.08687,256.016)"><path
         d="m 11.4947,34.278 c -3.04804,0 -5.56804,-0.708 -7.56004,-2.124 -1.968,-1.44 -3.036004,-3.54 -3.204004,-6.3 H 9.22666 c 0.12,1.464 0.768,2.196 1.94404,2.196 0.432,0 0.792,-0.096 1.08,-0.288 0.312,-0.216 0.468,-0.54 0.468,-0.972 0,-0.6 -0.324,-1.08 -0.972,-1.44 -0.648,-0.384 -1.656,-0.816 -3.02404,-1.296 -1.632,-0.576 -2.988,-1.14 -4.068,-1.692 -1.056,-0.552 -1.968,-1.356 -2.736,-2.412 -0.768,-1.056 -1.140004,-2.412 -1.116004,-4.068 0,-1.656 0.420004,-3.06 1.260004,-4.212 0.864,-1.176 2.028,-2.064 3.492,-2.664 1.488,-0.6 3.156,-0.9 5.00404,-0.9 3.12,0 5.592,0.72 7.416,2.16 1.848,1.44 2.82,3.468 2.916,6.084 h -8.604 c -0.024,-0.72 -0.204,-1.236 -0.54,-1.548 -0.336,-0.312 -0.744,-0.468 -1.224,-0.468 -0.336,0 -0.61204,0.12 -0.82804,0.36 -0.216,0.216 -0.324,0.528 -0.324,0.936 0,0.576 0.312,1.056 0.93604,1.44 0.648,0.36 1.668,0.804 3.06,1.332 1.608,0.6 2.928,1.176 3.96,1.728 1.056,0.552 1.968,1.32 2.736,2.304 0.768,0.984 1.152,2.22 1.152,3.708 0,1.56 -0.384,2.964 -1.152,4.212 -0.768,1.224 -1.884,2.184 -3.348,2.88 -1.464,0.696 -3.204,1.044 -5.22,1.044 z m 24.948,0 c -2.4,0 -4.608,-0.564 -6.624,-1.692 -1.992,-1.128 -3.576,-2.688 -4.752,-4.68 -1.176,-1.992 -1.764,-4.236 -1.764,-6.732 0,-2.496 0.588,-4.74 1.764,-6.732 1.176,-1.992 2.76,-3.54 4.752,-4.644 2.016,-1.128 4.224,-1.692 6.624,-1.692 2.4,0 4.596,0.564 6.588,1.692 1.992,1.104 3.564,2.652 4.716,4.644 1.176,1.992 1.764,4.236 1.764,6.732 0,2.496 -0.588,4.74 -1.764,6.732 -1.152,1.992 -2.736,3.552 -4.752,4.68 -1.992,1.128 -4.176,1.692 -6.552,1.692 z m 0,-7.452 c 1.584,0 2.808,-0.504 3.672,-1.512 0.864,-1.032 1.296,-2.412 1.296,-4.14 0,-1.752 -0.432,-3.132 -1.296,-4.14 -0.864,-1.032 -2.088,-1.548 -3.672,-1.548 -1.608,0 -2.844,0.516 -3.708,1.548 -0.864,1.008 -1.296,2.388 -1.296,4.14 0,1.728 0.432,3.108 1.296,4.14 0.864,1.008 2.1,1.512 3.708,1.512 z m 23.9431,1.152 h 7.704 v 6.048 H 52.3938 V 8.538 h 7.992 z M 78.4167,8.538 v 14.364 c 0,1.176 0.252,2.112 0.756,2.808 0.528,0.672 1.368,1.008 2.52,1.008 1.152,0 2.004,-0.336 2.556,-1.008 0.552,-0.696 0.828,-1.632 0.828,-2.808 V 8.538 h 7.956 v 14.364 c 0,2.424 -0.504,4.5 -1.512,6.228 -1.008,1.704 -2.388,2.988 -4.14,3.852 -1.752,0.864 -3.708,1.296 -5.868,1.296 -2.16,0 -4.08,-0.432 -5.76,-1.296 -1.656,-0.864 -2.952,-2.148 -3.888,-3.852 -0.936,-1.704 -1.404,-3.78 -1.404,-6.228 V 8.538 Z m 29.7993,18.288 c 0.912,0 1.716,-0.228 2.412,-0.684 0.72,-0.48 1.272,-1.14 1.656,-1.98 h 8.424 c -0.456,2.664 -1.56,4.872 -3.312,6.624 -1.752,1.752 -3.972,2.832 -6.66,3.24 h 0.18 v 1.224 c 0.672,0 1.368,0.132 2.088,0.396 0.72,0.288 1.332,0.756 1.836,1.404 0.504,0.672 0.756,1.536 0.756,2.592 0,1.56 -0.54,2.676 -1.62,3.348 -1.08,0.696 -2.34,1.044 -3.78,1.044 h -6.228 v -4.068 h 5.4 c 0.288,0 0.516,-0.06 0.684,-0.18 0.168,-0.096 0.252,-0.228 0.252,-0.396 0,-0.36 -0.312,-0.54 -0.936,-0.54 h -3.06 v -4.788 c -2.16,-0.288 -4.044,-1.008 -5.652,-2.16 -1.5843,-1.152 -2.7963,-2.64 -3.6363,-4.464 -0.84,-1.824 -1.26,-3.888 -1.26,-6.192 0,-2.52 0.504,-4.764 1.512,-6.732 1.032,-1.968 2.496,-3.492 4.3923,-4.572 1.896,-1.104 4.128,-1.656 6.696,-1.656 2.208,0 4.176,0.42 5.904,1.26 1.752,0.816 3.168,1.98 4.248,3.492 1.104,1.512 1.836,3.276 2.196,5.292 h -8.424 c -0.384,-0.84 -0.936,-1.488 -1.656,-1.944 -0.696,-0.48 -1.5,-0.72 -2.412,-0.72 -1.344,0 -2.412,0.504 -3.204,1.512 -0.768,1.008 -1.152,2.364 -1.152,4.068 0,1.704 0.384,3.06 1.152,4.068 0.792,1.008 1.86,1.512 3.204,1.512 z m 27.789,7.452 c -2.4,0 -4.608,-0.564 -6.624,-1.692 -1.992,-1.128 -3.576,-2.688 -4.752,-4.68 -1.176,-1.992 -1.764,-4.236 -1.764,-6.732 0,-2.496 0.588,-4.74 1.764,-6.732 1.176,-1.992 2.76,-3.54 4.752,-4.644 2.016,-1.128 4.224,-1.692 6.624,-1.692 2.4,0 4.596,0.564 6.588,1.692 1.992,1.104 3.564,2.652 4.716,4.644 1.176,1.992 1.764,4.236 1.764,6.732 0,2.496 -0.588,4.74 -1.764,6.732 -1.152,1.992 -2.736,3.552 -4.752,4.68 -1.992,1.128 -4.176,1.692 -6.552,1.692 z m 0,-7.452 c 1.584,0 2.808,-0.504 3.672,-1.512 0.864,-1.032 1.296,-2.412 1.296,-4.14 0,-1.752 -0.432,-3.132 -1.296,-4.14 -0.864,-1.032 -2.088,-1.548 -3.672,-1.548 -1.608,0 -2.844,0.516 -3.708,1.548 -0.864,1.008 -1.296,2.388 -1.296,4.14 0,1.728 0.432,3.108 1.296,4.14 0.864,1.008 2.1,1.512 3.708,1.512 z M 127.581,7.062 c 0.384,-2.232 1.056,-3.84 2.016,-4.824 0.984,-1.008 2.244,-1.512002 3.78,-1.512002 0.576,0 1.116,0.084001 1.62,0.252001 0.504,0.168001 1.044,0.408001 1.62,0.720001 0.456,0.24 0.816,0.42 1.08,0.54 0.288,0.096 0.576,0.144 0.864,0.144 0.888,0 1.416,-0.564 1.584,-1.692001 h 3.924 C 143.685,2.922 143.001,4.53 142.017,5.514 c -0.96,0.984 -2.208,1.476 -3.744,1.476 -0.576,0 -1.116,-0.084 -1.62,-0.252 -0.504,-0.168 -1.044,-0.408 -1.62,-0.72 -0.336,-0.168 -0.672,-0.312 -1.008,-0.432 -0.336,-0.144 -0.648,-0.216 -0.936,-0.216 -0.864,0 -1.404,0.564 -1.62,1.692 z m 32.367,7.848 v 3.132 h 7.92 v 6.012 h -7.92 v 3.6 h 9 v 6.372 H 151.956 V 8.538 h 16.992 v 6.372 z m 21.984,19.368 c -3.048,0 -5.568,-0.708 -7.56,-2.124 -1.968,-1.44 -3.036,-3.54 -3.204,-6.3 h 8.496 c 0.12,1.464 0.768,2.196 1.944,2.196 0.432,0 0.792,-0.096 1.08,-0.288 0.312,-0.216 0.468,-0.54 0.468,-0.972 0,-0.6 -0.324,-1.08 -0.972,-1.44 -0.648,-0.384 -1.656,-0.816 -3.024,-1.296 -1.632,-0.576 -2.988,-1.14 -4.068,-1.692 -1.056,-0.552 -1.968,-1.356 -2.736,-2.412 -0.768,-1.056 -1.14,-2.412 -1.116,-4.068 0,-1.656 0.42,-3.06 1.26,-4.212 0.864,-1.176 2.028,-2.064 3.492,-2.664 1.488,-0.6 3.156,-0.9 5.004,-0.9 3.12,0 5.592,0.72 7.416,2.16 1.848,1.44 2.82,3.468 2.916,6.084 h -8.604 c -0.024,-0.72 -0.204,-1.236 -0.54,-1.548 -0.336,-0.312 -0.744,-0.468 -1.224,-0.468 -0.336,0 -0.612,0.12 -0.828,0.36 -0.216,0.216 -0.324,0.528 -0.324,0.936 0,0.576 0.312,1.056 0.936,1.44 0.648,0.36 1.668,0.804 3.06,1.332 1.608,0.6 2.928,1.176 3.96,1.728 1.056,0.552 1.968,1.32 2.736,2.304 0.768,0.984 1.152,2.22 1.152,3.708 0,1.56 -0.384,2.964 -1.152,4.212 -0.768,1.224 -1.884,2.184 -3.348,2.88 -1.464,0.696 -3.204,1.044 -5.22,1.044 z m 39.489,-16.992 c 0,1.608 -0.372,3.072 -1.116,4.392 -0.744,1.296 -1.848,2.328 -3.312,3.096 -1.44,0.768 -3.192,1.152 -5.256,1.152 h -3.168 v 8.1 h -7.992 V 8.538 h 11.16 c 3.12,0 5.508,0.792 7.164,2.376 1.68,1.584 2.52,3.708 2.52,6.372 z m -10.584,2.34 c 1.656,0 2.484,-0.78 2.484,-2.34 0,-1.56 -0.828,-2.34 -2.484,-2.34 h -2.268 v 4.68 z M 240.3,30.174 h -8.496 l -1.26,3.852 h -8.388 L 231.48,8.538 h 9.216 l 9.288,25.488 h -8.424 z m -1.944,-6.012 -2.304,-7.092 -2.304,7.092 z m 26.26,9.864 -4.788,-9.144 h -0.036 v 9.144 H 251.8 V 8.538 h 11.88 c 2.064,0 3.828,0.372 5.292,1.116 1.464,0.72 2.556,1.716 3.276,2.988 0.744,1.248 1.116,2.664 1.116,4.248 0,1.704 -0.48,3.216 -1.44,4.536 -0.936,1.32 -2.292,2.268 -4.068,2.844 l 5.544,9.756 z m -4.824,-14.472 h 3.168 c 0.768,0 1.344,-0.168 1.728,-0.504 0.384,-0.36 0.576,-0.912 0.576,-1.656 0,-0.672 -0.204,-1.2 -0.612,-1.584 -0.384,-0.384 -0.948,-0.576 -1.692,-0.576 h -3.168 z m 32.469,10.62 h -8.496 l -1.26,3.852 h -8.388 l 9.324,-25.488 h 9.216 l 9.288,25.488 h -8.424 z m -1.944,-6.012 -2.304,-7.092 -2.304,7.092 z m 31.981,10.116 c -2.4,0 -4.608,-0.564 -6.624,-1.692 -1.992,-1.128 -3.576,-2.688 -4.752,-4.68 -1.176,-1.992 -1.764,-4.236 -1.764,-6.732 0,-2.496 0.588,-4.74 1.764,-6.732 1.176,-1.992 2.76,-3.54 4.752,-4.644 2.016,-1.128 4.224,-1.692 6.624,-1.692 2.4,0 4.596,0.564 6.588,1.692 1.992,1.104 3.564,2.652 4.716,4.644 1.176,1.992 1.764,4.236 1.764,6.732 0,2.496 -0.588,4.74 -1.764,6.732 -1.152,1.992 -2.736,3.552 -4.752,4.68 -1.992,1.128 -4.176,1.692 -6.552,1.692 z m 0,-7.452 c 1.584,0 2.808,-0.504 3.672,-1.512 0.864,-1.032 1.296,-2.412 1.296,-4.14 0,-1.752 -0.432,-3.132 -1.296,-4.14 -0.864,-1.032 -2.088,-1.548 -3.672,-1.548 -1.608,0 -2.844,0.516 -3.708,1.548 -0.864,1.008 -1.296,2.388 -1.296,4.14 0,1.728 0.432,3.108 1.296,4.14 0.864,1.008 2.1,1.512 3.708,1.512 z m 32.04,7.452 c -3.048,0 -5.568,-0.708 -7.56,-2.124 -1.968,-1.44 -3.036,-3.54 -3.204,-6.3 h 8.496 c 0.12,1.464 0.768,2.196 1.944,2.196 0.432,0 0.792,-0.096 1.08,-0.288 0.312,-0.216 0.468,-0.54 0.468,-0.972 0,-0.6 -0.324,-1.08 -0.972,-1.44 -0.648,-0.384 -1.656,-0.816 -3.024,-1.296 -1.632,-0.576 -2.988,-1.14 -4.068,-1.692 -1.056,-0.552 -1.968,-1.356 -2.736,-2.412 -0.768,-1.056 -1.14,-2.412 -1.116,-4.068 0,-1.656 0.42,-3.06 1.26,-4.212 0.864,-1.176 2.028,-2.064 3.492,-2.664 1.488,-0.6 3.156,-0.9 5.004,-0.9 3.12,0 5.592,0.72 7.416,2.16 1.848,1.44 2.82,3.468 2.916,6.084 h -8.604 c -0.024,-0.72 -0.204,-1.236 -0.54,-1.548 -0.336,-0.312 -0.744,-0.468 -1.224,-0.468 -0.336,0 -0.612,0.12 -0.828,0.36 -0.216,0.216 -0.324,0.528 -0.324,0.936 0,0.576 0.312,1.056 0.936,1.44 0.648,0.36 1.668,0.804 3.06,1.332 1.608,0.6 2.928,1.176 3.96,1.728 1.056,0.552 1.968,1.32 2.736,2.304 0.768,0.984 1.152,2.22 1.152,3.708 0,1.56 -0.384,2.964 -1.152,4.212 -0.768,1.224 -1.884,2.184 -3.348,2.88 -1.464,0.696 -3.204,1.044 -5.22,1.044 z m 20.52,-19.368 v 3.132 h 7.92 v 6.012 h -7.92 v 3.6 h 9 v 6.372 H 366.866 V 8.538 h 16.992 v 6.372 z m 19.824,-6.372 v 14.364 c 0,1.176 0.252,2.112 0.756,2.808 0.528,0.672 1.368,1.008 2.52,1.008 1.152,0 2.004,-0.336 2.556,-1.008 0.552,-0.696 0.828,-1.632 0.828,-2.808 V 8.538 h 7.956 v 14.364 c 0,2.424 -0.504,4.5 -1.512,6.228 -1.008,1.704 -2.388,2.988 -4.14,3.852 -1.752,0.864 -3.708,1.296 -5.868,1.296 -2.16,0 -4.08,-0.432 -5.76,-1.296 -1.656,-0.864 -2.952,-2.148 -3.888,-3.852 -0.936,-1.704 -1.404,-3.78 -1.404,-6.228 V 8.538 Z"
         fill="#f0f0f0"
         id="path1-5" /><path
         d="m 149.348,88.026 h -7.992 l -8.46,-12.816 v 12.816 h -7.992 V 62.538 h 7.992 l 8.46,13.032 V 62.538 h 7.992 z M 160.95,68.91 v 3.132 h 7.92 v 6.012 h -7.92 v 3.6 h 9 v 6.372 H 152.958 V 62.538 h 16.992 v 6.372 z m 27.636,2.34 c -0.312,-0.504 -0.756,-0.888 -1.332,-1.152 -0.576,-0.288 -1.272,-0.432 -2.088,-0.432 -1.536,0 -2.724,0.504 -3.564,1.512 -0.84,0.984 -1.26,2.34 -1.26,4.068 0,1.992 0.468,3.48 1.404,4.464 0.936,0.984 2.376,1.476 4.32,1.476 1.848,0 3.336,-0.744 4.464,-2.232 h -6.372 v -5.652 h 12.996 v 7.992 c -1.104,1.896 -2.628,3.528 -4.572,4.896 -1.944,1.344 -4.404,2.016 -7.38,2.016 -2.64,0 -4.944,-0.54 -6.912,-1.62 -1.944,-1.104 -3.444,-2.64 -4.5,-4.608 -1.032,-1.968 -1.548,-4.212 -1.548,-6.732 0,-2.52 0.516,-4.764 1.548,-6.732 1.056,-1.968 2.556,-3.492 4.5,-4.572 1.944,-1.104 4.224,-1.656 6.84,-1.656 3.336,0 6.048,0.804 8.136,2.412 2.112,1.608 3.36,3.792 3.744,6.552 z m 23.866,17.028 c -2.4,0 -4.608,-0.564 -6.624,-1.692 -1.992,-1.128 -3.576,-2.688 -4.752,-4.68 -1.176,-1.992 -1.764,-4.236 -1.764,-6.732 0,-2.496 0.588,-4.74 1.764,-6.732 1.176,-1.992 2.76,-3.54 4.752,-4.644 2.016,-1.128 4.224,-1.692 6.624,-1.692 2.4,0 4.596,0.564 6.588,1.692 1.992,1.104 3.564,2.652 4.716,4.644 1.176,1.992 1.764,4.236 1.764,6.732 0,2.496 -0.588,4.74 -1.764,6.732 -1.152,1.992 -2.736,3.552 -4.752,4.68 -1.992,1.128 -4.176,1.692 -6.552,1.692 z m 0,-7.452 c 1.584,0 2.808,-0.504 3.672,-1.512 0.864,-1.032 1.296,-2.412 1.296,-4.14 0,-1.752 -0.432,-3.132 -1.296,-4.14 -0.864,-1.032 -2.088,-1.548 -3.672,-1.548 -1.608,0 -2.844,0.516 -3.708,1.548 -0.864,1.008 -1.296,2.388 -1.296,4.14 0,1.728 0.432,3.108 1.296,4.14 0.864,1.008 2.1,1.512 3.708,1.512 z m 4.608,-23.148 -9.324,3.384 v -5.328 l 9.324,-3.96 z m 10.624,17.568 c 0,-2.52 0.504,-4.764 1.512,-6.732 1.032,-1.968 2.496,-3.492 4.392,-4.572 1.896,-1.104 4.128,-1.656 6.696,-1.656 2.208,0 4.176,0.42 5.904,1.26 1.752,0.816 3.168,1.98 4.248,3.492 1.104,1.512 1.836,3.276 2.196,5.292 h -8.424 c -0.384,-0.84 -0.936,-1.488 -1.656,-1.944 -0.696,-0.48 -1.5,-0.72 -2.412,-0.72 -1.344,0 -2.412,0.504 -3.204,1.512 -0.768,1.008 -1.152,2.364 -1.152,4.068 0,1.704 0.384,3.06 1.152,4.068 0.792,1.008 1.86,1.512 3.204,1.512 0.912,0 1.716,-0.228 2.412,-0.684 0.72,-0.48 1.272,-1.14 1.656,-1.98 h 8.424 c -0.36,2.016 -1.092,3.78 -2.196,5.292 -1.08,1.512 -2.496,2.688 -4.248,3.528 -1.728,0.816 -3.696,1.224 -5.904,1.224 -2.568,0 -4.8,-0.54 -6.696,-1.62 -1.896,-1.104 -3.36,-2.64 -4.392,-4.608 -1.008,-1.968 -1.512,-4.212 -1.512,-6.732 z m 35.817,-12.708 v 25.488 h -7.992 V 62.538 Z m 16.03,25.74 c -2.4,0 -4.608,-0.564 -6.624,-1.692 -1.992,-1.128 -3.576,-2.688 -4.752,-4.68 -1.176,-1.992 -1.764,-4.236 -1.764,-6.732 0,-2.496 0.588,-4.74 1.764,-6.732 1.176,-1.992 2.76,-3.54 4.752,-4.644 2.016,-1.128 4.224,-1.692 6.624,-1.692 2.4,0 4.596,0.564 6.588,1.692 1.992,1.104 3.564,2.652 4.716,4.644 1.176,1.992 1.764,4.236 1.764,6.732 0,2.496 -0.588,4.74 -1.764,6.732 -1.152,1.992 -2.736,3.552 -4.752,4.68 -1.992,1.128 -4.176,1.692 -6.552,1.692 z m 0,-7.452 c 1.584,0 2.808,-0.504 3.672,-1.512 0.864,-1.032 1.296,-2.412 1.296,-4.14 0,-1.752 -0.432,-3.132 -1.296,-4.14 -0.864,-1.032 -2.088,-1.548 -3.672,-1.548 -1.608,0 -2.844,0.516 -3.708,1.548 -0.864,1.008 -1.296,2.388 -1.296,4.14 0,1.728 0.432,3.108 1.296,4.14 0.864,1.008 2.1,1.512 3.708,1.512 z"
         fill="#1e999f"
         id="path2-0" /></g></g></svg>
