<svg width="710" height="945" viewBox="0 0 710 945" fill="none" xmlns="http://www.w3.org/2000/svg">
<g clip-path="url(#clip0_313_197)">
<path d="M708.96 354.73C708.96 387.35 704.55 418.93 696.29 448.92C691.24 467.3 684.74 485.08 676.92 502.13C660.98 536.92 639.57 568.68 613.79 596.31L568.48 637.21L354.76 830.09C354.74 830.11 354.72 830.11 354.7 830.09L140.95 637.18L95.73 596.37C85.95 585.91 76.8 574.85 68.35 563.26L68.34 563.24C54.47 544.22 42.44 523.76 32.53 502.13C31.9 500.75 31.28 499.37 30.67 497.99C23.68 482.21 17.81 465.82 13.17 448.92C4.91 418.93 0.5 387.35 0.5 354.73C0.5 275.9 26.25 203.09 69.8 144.24C134.32 57.04 237.92 0.5 354.73 0.5C471.51 0.5 575.09 57.01 639.61 144.17C639.63 144.2 639.61 144.24 639.57 144.24H357.85C247.86 144.24 156.43 234.23 156.95 344.22C157.13 382.67 168.22 418.55 187.28 448.92C200.19 469.49 216.75 487.54 236.07 502.13C269.42 527.35 310.96 542.31 355.99 542.31C401.02 542.31 442.56 527.35 475.91 502.13C495.22 487.54 511.79 469.49 524.69 448.92C543.91 418.3 555.02 382.08 555.02 343.27V300.85C555.02 300.82 555.04 300.8 555.07 300.8L705.24 303.55C705.26 303.55 705.28 303.57 705.29 303.59C707.71 320.29 708.96 337.36 708.96 354.73Z" fill="url(#paint0_linear_313_197)"/>
<path d="M354.73 830.79L354.4 830.49L95.4 596.74C85.59 586.26 76.37 575.1 67.95 563.56C53.98 544.39 41.91 523.8 32.08 502.34C31.45 500.96 30.83 499.58 30.22 498.19C23.18 482.3 17.28 465.77 12.69 449.05C4.27 418.48 0 386.75 0 354.73C0 278.18 24 205.29 69.4 143.94C101.72 100.26 144.26 64.05 192.43 39.22C242.92 13.2 297.53 0 354.73 0C411.94 0 466.54 13.2 517.04 39.23C565.21 64.06 607.75 100.27 640.07 143.95L640.66 144.75H357.74C245.35 144.75 154.01 237.26 157.55 349.59C158.66 384.78 169.03 418.91 187.7 448.66C200.62 469.25 217 487.11 236.37 501.74C271.04 527.96 312.41 541.82 355.99 541.82C399.57 541.82 440.94 527.96 475.61 501.74C495 487.09 511.37 469.24 524.27 448.66C544.06 417.13 554.52 380.69 554.52 343.28V300.35C554.52 300.32 554.54 300.3 554.57 300.3L705.72 303.07L705.78 303.49C708.23 320.3 709.47 337.55 709.47 354.74C709.47 386.76 705.2 418.49 696.78 449.06C691.78 467.25 685.25 485.18 677.38 502.35C661.52 536.97 640.25 568.71 614.16 596.66L568.82 637.59L354.73 830.79ZM354.73 1C297.69 1 243.23 14.16 192.89 40.11C144.85 64.87 102.43 100.98 70.21 144.53C24.93 205.71 1 278.4 1 354.73C1 386.66 5.26 418.31 13.65 448.79C18.23 465.46 24.11 481.94 31.12 497.79C31.73 499.17 32.35 500.55 32.98 501.92C42.78 523.32 54.81 543.85 68.74 562.94C77.14 574.47 86.34 585.6 96.09 596.02L354.69 829.41C354.71 829.43 354.73 829.43 354.75 829.41L568.13 636.83L613.44 595.93C639.42 568.08 660.63 536.44 676.45 501.91C684.3 484.8 690.81 466.92 695.79 448.78C704.19 418.3 708.44 386.65 708.44 354.72C708.44 337.73 707.23 320.69 704.83 304.07C704.83 304.05 704.81 304.03 704.78 304.03L555.54 301.3C555.51 301.3 555.49 301.32 555.49 301.35V343.26C555.49 380.86 544.98 417.48 525.08 449.18C512.11 469.86 495.66 487.8 476.18 502.52C441.33 528.87 399.76 542.8 355.96 542.8C312.16 542.8 270.58 528.87 235.74 502.52C216.27 487.82 199.82 469.87 186.83 449.18C168.06 419.27 157.64 384.97 156.52 349.6C152.97 236.7 244.76 143.74 357.72 143.74H638.55C638.59 143.74 638.61 143.7 638.59 143.67C606.47 100.5 564.3 64.71 516.58 40.11C466.23 14.16 411.77 1 354.73 1Z" fill="url(#paint1_linear_313_197)"/>
<path d="M512.52 275.31V400.45C512.52 408.71 505.83 415.4 497.57 415.4H340.31C332.05 415.4 325.36 408.71 325.36 400.45V275.31C325.36 267.05 332.05 260.36 340.31 260.36H497.57C505.82 260.37 512.52 267.06 512.52 275.31Z" fill="url(#paint2_linear_313_197)"/>
<path d="M354.73 936.76C480.59 936.76 582.62 898.937 582.62 852.28C582.62 805.623 480.59 767.8 354.73 767.8C228.87 767.8 126.84 805.623 126.84 852.28C126.84 898.937 228.87 936.76 354.73 936.76Z" stroke="url(#paint3_linear_313_197)" stroke-width="16" stroke-miterlimit="10"/>
<path d="M548 861V844L619 833.5V871L548 861Z" fill="white"/>
<path d="M354.73 875.13C363.6 875.13 370.79 870.98 370.79 865.86C370.79 860.74 363.6 856.59 354.73 856.59C345.86 856.59 338.67 860.74 338.67 865.86C338.67 870.98 345.86 875.13 354.73 875.13Z" fill="url(#paint4_linear_313_197)"/>
</g>
<defs>
<linearGradient id="paint0_linear_313_197" x1="0.5005" y1="415.302" x2="708.96" y2="415.302" gradientUnits="userSpaceOnUse">
<stop stop-color="#0071BC"/>
<stop offset="1" stop-color="#29ABE2"/>
</linearGradient>
<linearGradient id="paint1_linear_313_197" x1="0" y1="415.397" x2="709.461" y2="415.397" gradientUnits="userSpaceOnUse">
<stop stop-color="#0071BC"/>
<stop offset="1" stop-color="#29ABE2"/>
</linearGradient>
<linearGradient id="paint2_linear_313_197" x1="325.367" y1="337.882" x2="512.517" y2="337.882" gradientUnits="userSpaceOnUse">
<stop stop-color="#0071BC"/>
<stop offset="1" stop-color="#29ABE2"/>
</linearGradient>
<linearGradient id="paint3_linear_313_197" x1="118.841" y1="852.278" x2="590.62" y2="852.278" gradientUnits="userSpaceOnUse">
<stop stop-color="#0476BF"/>
<stop offset="1" stop-color="#26A8E0"/>
</linearGradient>
<linearGradient id="paint4_linear_313_197" x1="338.674" y1="865.856" x2="370.787" y2="865.856" gradientUnits="userSpaceOnUse">
<stop stop-color="#0071BC"/>
<stop offset="1" stop-color="#29ABE2"/>
</linearGradient>
<clipPath id="clip0_313_197">
<rect width="709.46" height="944.76" fill="white"/>
</clipPath>
</defs>
</svg>
