<svg xmlns="http://www.w3.org/2000/svg" version="1.1" xmlns:xlink="http://www.w3.org/1999/xlink" xmlns:svgjs="http://svgjs.dev/svgjs" width="1440" height="4000" preserveAspectRatio="none" viewBox="0 0 1440 4000">
    <g mask="url(&quot;#SvgjsMask1012&quot;)" fill="none">
        <rect width="1440" height="4000" x="0" y="0" fill="rgba(14, 9, 63, 1)"></rect>
        <path d="M0,1154.602C231.661,1166.392,479.979,1175.87,673.369,1047.783C865.941,920.238,962.614,691.583,1031.809,471.211C1095.245,269.18,1103.395,53.917,1049.754,-150.932C999.765,-341.832,880.099,-502.182,740.416,-641.574C608.362,-773.353,448.716,-866.63,272.164,-926.906C89.28,-989.344,-104.971,-1043.152,-291.865,-994.002C-481.09,-944.239,-628.658,-803.628,-757.275,-656.183C-886.227,-508.354,-1017.037,-343.814,-1029.782,-148.06C-1042.234,43.194,-888.362,195.832,-824.513,376.543C-752.523,580.295,-787.882,833.102,-630.716,981.413C-468.872,1134.139,-222.24,1143.291,0,1154.602" fill="#0b0732"></path>
        <path d="M1440 5434.33C1705.454 5432.392 1818.429 5079.669 2045.655 4942.418 2282.768 4799.196 2651.612 4856.208 2792.234 4617.544 2931.145 4381.784 2754.328 4087.389 2708.3810000000003 3817.634 2663.783 3555.8 2696.866 3262.305 2526.6639999999998 3058.4 2355.714 2853.6 2065.876 2815.3540000000003 1809.682 2740.98 1554.269 2666.8320000000003 1297.652 2575.477 1036.498 2625.799 761.54 2678.781 492.591 2808.902 318.59899999999993 3028.301 147.53500000000008 3244.008 94.09699999999998 3532.021 99.54199999999992 3807.271 104.4860000000001 4057.199 213.3420000000001 4288.035 347.69000000000005 4498.841 468.42999999999995 4688.296 658.003 4805.165 828.636 4951.301 1029.976 5123.735 1174.92 5436.265 1440 5434.33" fill="#110b4c"></path>
    </g>
    <defs>
        <mask id="SvgjsMask1012">
            <rect width="1440" height="4000" fill="#ffffff"></rect>
        </mask>
    </defs>
</svg>