<svg width="890" height="871" viewBox="0 0 890 871" fill="none" xmlns="http://www.w3.org/2000/svg">
<path d="M543.281 156.511L441.537 324.699L441.536 324.701L405.15 384.779L368.789 324.7L368.789 324.699L275.602 170.788L275.595 170.778L266.982 156.453L263.566 150.771L260.133 156.442L228.956 207.929L228.955 207.93L66.3391 476.736L66.338 476.738L39.7966 520.554L4.6675 462.533L19.3808 438.209L19.3813 438.209L158.565 208.235L158.565 208.235L227.181 94.8299L227.181 94.8295L263.554 34.7293L299.928 94.8297L299.928 94.8299L342.282 164.825L401.74 263.087L405.163 268.742L408.585 263.087L482.587 140.798L482.59 140.794L510.33 94.8299L510.332 94.8257L546.704 34.7293L583.077 94.8295L583.077 94.8299L646.642 199.889L646.643 199.89L789.931 436.588L789.935 436.594L805.317 462.115L770.251 520.152L749.239 485.554L749.236 485.549L579.687 205.372L579.686 205.372L550.126 156.511L546.703 150.853L543.281 156.511Z" fill="black" stroke="white" stroke-width="8"/>
<path d="M555 846H890V850H555V846Z" fill="#3A3A3A"/>
<rect x="36" y="846" width="335" height="4" fill="#3A3A3A"/>
<path d="M133.145 77.1216L131.289 74.0947L130.826 73.2739C126.538 65.6696 123.994 56.0359 123.994 45.4857C123.994 28.267 130.896 13.661 140.51 5.86701L183.886 75.9899L183.887 75.9905L304.652 271.305L304.652 271.306L334.478 319.562L334.48 319.565L460.264 523.42L464.044 529.546L467.25 523.1C485.061 487.287 522.678 462.61 566.174 462.61C626.977 462.61 676.101 510.798 676.101 570.077C676.101 629.356 626.977 677.544 566.174 677.544C564.989 677.544 563.948 677.543 562.926 677.48L562.859 677.476L562.792 677.474C525.524 676.444 492.904 657.165 473.883 628.505L470.286 622.593L470.279 622.581L470.272 622.569L310.802 364.544L307.4 366.647L310.802 364.544L280.975 316.284L277.572 318.387L280.974 316.284L133.153 77.1336L133.145 77.1216ZM507.321 599.23L507.341 599.268L507.361 599.305C508.873 602.117 510.573 604.923 512.538 607.543C524.478 623.986 544.139 634.722 566.319 634.722C602.711 634.722 632.375 605.822 632.375 570.006C632.375 534.189 602.711 505.29 566.319 505.29C529.927 505.29 500.263 534.189 500.263 570.006C500.263 580.56 502.827 590.435 507.321 599.23Z" fill="white" stroke="black" stroke-width="8"/>
<path d="M673.61 5.71306C683.263 13.4981 690.11 28.0933 690.047 45.2555V45.2628V45.27C690.047 55.7927 687.443 65.3761 683.195 73.0944L682.859 73.706L680.896 76.9059L680.889 76.9179L533.067 316.068L536.47 318.171L533.067 316.068L503.239 364.328L343.77 622.353L343.762 622.365L343.755 622.377L340.158 628.29C321.141 656.944 288.521 676.16 251.242 677.259L251.179 677.26L251.116 677.264C250.094 677.327 249.052 677.328 247.868 677.328C187.065 677.328 137.94 629.14 137.94 569.861C137.94 510.582 187.065 462.395 247.868 462.395C291.36 462.395 328.907 487.069 346.719 522.885L349.921 529.323L353.703 523.207L479.707 319.421L479.707 319.42L509.535 271.161L509.535 271.16L630.228 75.846L630.229 75.8444L673.61 5.71306ZM306.827 599.16L306.846 599.123L306.866 599.086C311.362 590.288 313.924 580.342 313.924 569.861C313.924 534.045 284.26 505.145 247.868 505.145C211.476 505.145 181.812 534.045 181.812 569.861C181.812 605.678 211.476 634.577 247.868 634.577C270.057 634.577 289.638 623.835 301.644 607.405C303.612 604.783 305.313 601.974 306.827 599.16Z" fill="url(#paint0_linear_523_2739)" stroke="#E8E8E8" stroke-width="8"/>
<path d="M69.6091 814.145C68.9758 814.145 68.4375 813.955 67.9941 813.575C67.6141 813.195 67.4241 812.688 67.4241 812.055V749.83C67.4241 749.133 67.6141 748.595 67.9941 748.215C68.4375 747.835 68.9758 747.645 69.6091 747.645H71.9841C72.6175 747.645 73.0925 747.803 73.4091 748.12C73.7258 748.436 73.9158 748.69 73.9791 748.88L95.5441 790.87L117.204 748.88C117.331 748.69 117.521 748.436 117.774 748.12C118.091 747.803 118.566 747.645 119.199 747.645H121.479C122.176 747.645 122.714 747.835 123.094 748.215C123.474 748.595 123.664 749.133 123.664 749.83V812.055C123.664 812.688 123.474 813.195 123.094 813.575C122.714 813.955 122.176 814.145 121.479 814.145H119.769C119.136 814.145 118.629 813.955 118.249 813.575C117.869 813.195 117.679 812.688 117.679 812.055V760.565L99.5341 796.285C99.2808 796.918 98.9008 797.393 98.3941 797.71C97.9508 798.026 97.3491 798.185 96.5891 798.185H94.4991C93.7391 798.185 93.1375 798.026 92.6941 797.71C92.2508 797.393 91.8708 796.918 91.5541 796.285L73.4091 760.565V812.055C73.4091 812.688 73.2191 813.195 72.8391 813.575C72.4591 813.955 71.9525 814.145 71.3191 814.145H69.6091ZM136.8 814.145C136.293 814.145 135.85 813.955 135.47 813.575C135.09 813.195 134.9 812.751 134.9 812.245C134.9 811.928 134.963 811.58 135.09 811.2L159.125 749.545C159.378 748.911 159.695 748.436 160.075 748.12C160.518 747.803 161.12 747.645 161.88 747.645H165.11C165.87 747.645 166.44 747.803 166.82 748.12C167.263 748.436 167.612 748.911 167.865 749.545L191.9 811.2C192.027 811.58 192.09 811.928 192.09 812.245C192.09 812.751 191.9 813.195 191.52 813.575C191.14 813.955 190.697 814.145 190.19 814.145H188.29C187.657 814.145 187.182 813.986 186.865 813.67C186.548 813.29 186.327 812.973 186.2 812.72L180.31 797.52H146.68L140.79 812.72C140.727 812.973 140.505 813.29 140.125 813.67C139.808 813.986 139.333 814.145 138.7 814.145H136.8ZM148.96 791.82H178.03L163.495 754.39L148.96 791.82ZM205.427 814.145C204.794 814.145 204.287 813.955 203.907 813.575C203.527 813.195 203.337 812.688 203.337 812.055V749.83C203.337 749.133 203.527 748.595 203.907 748.215C204.287 747.835 204.794 747.645 205.427 747.645H207.422C208.056 747.645 208.531 747.803 208.847 748.12C209.164 748.436 209.354 748.658 209.417 748.785L244.472 802.365V749.83C244.472 749.133 244.662 748.595 245.042 748.215C245.422 747.835 245.929 747.645 246.562 747.645H248.272C248.969 747.645 249.507 747.835 249.887 748.215C250.267 748.595 250.457 749.133 250.457 749.83V811.96C250.457 812.593 250.267 813.131 249.887 813.575C249.507 813.955 249.001 814.145 248.367 814.145H246.277C245.644 814.145 245.169 813.986 244.852 813.67C244.599 813.353 244.409 813.131 244.282 813.005L209.322 759.615V812.055C209.322 812.688 209.132 813.195 208.752 813.575C208.372 813.955 207.834 814.145 207.137 814.145H205.427ZM286.709 815.095C283.605 815.095 280.692 814.715 277.969 813.955C275.245 813.195 272.807 812.023 270.654 810.44C268.564 808.856 266.885 806.861 265.619 804.455C264.415 801.985 263.75 799.071 263.624 795.715C263.624 795.145 263.782 794.67 264.099 794.29C264.479 793.846 264.985 793.625 265.619 793.625H267.519C268.152 793.625 268.627 793.815 268.944 794.195C269.324 794.575 269.545 795.05 269.609 795.62C269.862 798.913 270.78 801.573 272.364 803.6C274.01 805.626 276.069 807.115 278.539 808.065C281.072 808.951 283.795 809.395 286.709 809.395C292.282 809.395 296.494 807.59 299.344 803.98C302.257 800.306 303.714 795.588 303.714 789.825V753.345H268.659C268.025 753.345 267.519 753.155 267.139 752.775C266.759 752.395 266.569 751.888 266.569 751.255V749.735C266.569 749.101 266.759 748.595 267.139 748.215C267.519 747.835 268.025 747.645 268.659 747.645H307.514C308.21 747.645 308.749 747.835 309.129 748.215C309.509 748.595 309.699 749.133 309.699 749.83V789.92C309.699 794.86 308.812 799.23 307.039 803.03C305.265 806.83 302.669 809.806 299.249 811.96C295.892 814.05 291.712 815.095 286.709 815.095ZM321.141 814.145C320.634 814.145 320.191 813.955 319.811 813.575C319.431 813.195 319.241 812.751 319.241 812.245C319.241 811.928 319.304 811.58 319.431 811.2L343.466 749.545C343.719 748.911 344.036 748.436 344.416 748.12C344.859 747.803 345.461 747.645 346.221 747.645H349.451C350.211 747.645 350.781 747.803 351.161 748.12C351.604 748.436 351.953 748.911 352.206 749.545L376.241 811.2C376.368 811.58 376.431 811.928 376.431 812.245C376.431 812.751 376.241 813.195 375.861 813.575C375.481 813.955 375.038 814.145 374.531 814.145H372.631C371.998 814.145 371.523 813.986 371.206 813.67C370.889 813.29 370.668 812.973 370.541 812.72L364.651 797.52H331.021L325.131 812.72C325.068 812.973 324.846 813.29 324.466 813.67C324.149 813.986 323.674 814.145 323.041 814.145H321.141ZM333.301 791.82H362.371L347.836 754.39L333.301 791.82ZM409.08 815.095C403.316 815.095 398.598 813.986 394.925 811.77C391.315 809.49 388.623 806.418 386.85 802.555C385.076 798.691 384.095 794.29 383.905 789.35C383.841 786.753 383.81 783.966 383.81 780.99C383.81 778.013 383.841 775.163 383.905 772.44C384.095 767.5 385.076 763.098 386.85 759.235C388.623 755.308 391.315 752.236 394.925 750.02C398.598 747.803 403.316 746.695 409.08 746.695C413.576 746.695 417.408 747.328 420.575 748.595C423.741 749.861 426.306 751.54 428.27 753.63C430.296 755.656 431.785 757.873 432.735 760.28C433.748 762.623 434.318 764.935 434.445 767.215C434.508 767.785 434.318 768.26 433.875 768.64C433.495 768.956 433.02 769.115 432.45 769.115H430.55C430.043 769.115 429.6 768.988 429.22 768.735C428.84 768.418 428.586 767.88 428.46 767.12C427.256 761.483 424.976 757.62 421.62 755.53C418.326 753.44 414.146 752.395 409.08 752.395C403.316 752.395 398.725 754.041 395.305 757.335C391.948 760.565 390.143 765.758 389.89 772.915C389.7 778.108 389.7 783.428 389.89 788.875C390.143 796.031 391.948 801.256 395.305 804.55C398.725 807.78 403.316 809.395 409.08 809.395C414.146 809.395 418.326 808.35 421.62 806.26C424.976 804.17 427.256 800.306 428.46 794.67C428.586 793.91 428.84 793.403 429.22 793.15C429.6 792.833 430.043 792.675 430.55 792.675H432.45C433.02 792.675 433.495 792.865 433.875 793.245C434.318 793.561 434.508 794.005 434.445 794.575C434.318 796.855 433.748 799.198 432.735 801.605C431.785 803.948 430.296 806.165 428.27 808.255C426.306 810.281 423.741 811.928 420.575 813.195C417.408 814.461 413.576 815.095 409.08 815.095ZM443.138 814.145C442.631 814.145 442.188 813.955 441.808 813.575C441.428 813.195 441.238 812.751 441.238 812.245C441.238 811.928 441.301 811.58 441.428 811.2L465.463 749.545C465.716 748.911 466.033 748.436 466.413 748.12C466.856 747.803 467.458 747.645 468.218 747.645H471.448C472.208 747.645 472.778 747.803 473.158 748.12C473.601 748.436 473.95 748.911 474.203 749.545L498.238 811.2C498.365 811.58 498.428 811.928 498.428 812.245C498.428 812.751 498.238 813.195 497.858 813.575C497.478 813.955 497.035 814.145 496.528 814.145H494.628C493.995 814.145 493.52 813.986 493.203 813.67C492.886 813.29 492.665 812.973 492.538 812.72L486.648 797.52H453.018L447.128 812.72C447.065 812.973 446.843 813.29 446.463 813.67C446.146 813.986 445.671 814.145 445.038 814.145H443.138ZM455.298 791.82H484.368L469.833 754.39L455.298 791.82ZM506.825 814.145C506.192 814.145 505.685 813.955 505.305 813.575C504.925 813.131 504.735 812.593 504.735 811.96V810.06C504.735 809.11 504.925 808.35 505.305 807.78C505.685 807.146 505.97 806.703 506.16 806.45L543.59 753.345H507.68C507.047 753.345 506.54 753.155 506.16 752.775C505.78 752.395 505.59 751.888 505.59 751.255V749.83C505.59 749.133 505.78 748.595 506.16 748.215C506.54 747.835 507.047 747.645 507.68 747.645H548.625C549.322 747.645 549.86 747.835 550.24 748.215C550.62 748.595 550.81 749.133 550.81 749.83V751.73C550.81 752.553 550.683 753.218 550.43 753.725C550.177 754.231 549.892 754.706 549.575 755.15L512.335 808.445H549.575C550.272 808.445 550.81 808.635 551.19 809.015C551.57 809.395 551.76 809.933 551.76 810.63V812.055C551.76 812.688 551.57 813.195 551.19 813.575C550.81 813.955 550.272 814.145 549.575 814.145H506.825ZM566.78 814.145C566.146 814.145 565.64 813.955 565.26 813.575C564.88 813.195 564.69 812.688 564.69 812.055V749.735C564.69 749.101 564.88 748.595 565.26 748.215C565.64 747.835 566.146 747.645 566.78 747.645H568.585C569.218 747.645 569.725 747.835 570.105 748.215C570.485 748.595 570.675 749.101 570.675 749.735V812.055C570.675 812.688 570.485 813.195 570.105 813.575C569.725 813.955 569.218 814.145 568.585 814.145H566.78ZM583.783 814.145C583.276 814.145 582.833 813.955 582.453 813.575C582.073 813.195 581.883 812.751 581.883 812.245C581.883 811.928 581.946 811.58 582.073 811.2L606.108 749.545C606.361 748.911 606.678 748.436 607.058 748.12C607.501 747.803 608.103 747.645 608.863 747.645H612.093C612.853 747.645 613.423 747.803 613.803 748.12C614.246 748.436 614.594 748.911 614.848 749.545L638.883 811.2C639.009 811.58 639.073 811.928 639.073 812.245C639.073 812.751 638.883 813.195 638.503 813.575C638.123 813.955 637.679 814.145 637.173 814.145H635.273C634.639 814.145 634.164 813.986 633.848 813.67C633.531 813.29 633.309 812.973 633.183 812.72L627.293 797.52H593.663L587.773 812.72C587.709 812.973 587.488 813.29 587.108 813.67C586.791 813.986 586.316 814.145 585.683 814.145H583.783ZM595.943 791.82H625.013L610.478 754.39L595.943 791.82ZM652.41 814.145C651.776 814.145 651.27 813.955 650.89 813.575C650.51 813.195 650.32 812.688 650.32 812.055V749.83C650.32 749.133 650.51 748.595 650.89 748.215C651.27 747.835 651.776 747.645 652.41 747.645H654.405C655.038 747.645 655.513 747.803 655.83 748.12C656.146 748.436 656.336 748.658 656.4 748.785L691.455 802.365V749.83C691.455 749.133 691.645 748.595 692.025 748.215C692.405 747.835 692.911 747.645 693.545 747.645H695.255C695.951 747.645 696.49 747.835 696.87 748.215C697.25 748.595 697.44 749.133 697.44 749.83V811.96C697.44 812.593 697.25 813.131 696.87 813.575C696.49 813.955 695.983 814.145 695.35 814.145H693.26C692.626 814.145 692.151 813.986 691.835 813.67C691.581 813.353 691.391 813.131 691.265 813.005L656.305 759.615V812.055C656.305 812.688 656.115 813.195 655.735 813.575C655.355 813.955 654.816 814.145 654.12 814.145H652.41ZM737.776 815.095C732.519 815.095 728.054 814.176 724.381 812.34C720.708 810.44 717.889 807.558 715.926 803.695C713.963 799.768 712.886 794.828 712.696 788.875C712.633 786.025 712.601 783.365 712.601 780.895C712.601 778.425 712.633 775.765 712.696 772.915C712.886 767.025 714.026 762.148 716.116 758.285C718.206 754.358 721.088 751.445 724.761 749.545C728.498 747.645 732.836 746.695 737.776 746.695C742.716 746.695 747.023 747.645 750.696 749.545C754.433 751.445 757.346 754.358 759.436 758.285C761.589 762.148 762.729 767.025 762.856 772.915C762.983 775.765 763.046 778.425 763.046 780.895C763.046 783.365 762.983 786.025 762.856 788.875C762.729 794.828 761.653 799.768 759.626 803.695C757.663 807.558 754.844 810.44 751.171 812.34C747.498 814.176 743.033 815.095 737.776 815.095ZM737.776 809.395C743.223 809.395 747.688 807.748 751.171 804.455C754.718 801.161 756.618 795.81 756.871 788.4C756.998 785.55 757.061 783.048 757.061 780.895C757.061 778.741 756.998 776.24 756.871 773.39C756.744 768.45 755.826 764.428 754.116 761.325C752.469 758.221 750.221 755.973 747.371 754.58C744.584 753.123 741.386 752.395 737.776 752.395C734.229 752.395 731.031 753.123 728.181 754.58C725.394 755.973 723.146 758.221 721.436 761.325C719.789 764.428 718.871 768.45 718.681 773.39C718.618 776.24 718.586 778.741 718.586 780.895C718.586 783.048 718.618 785.55 718.681 788.4C718.934 795.81 720.834 801.161 724.381 804.455C727.928 807.748 732.393 809.395 737.776 809.395Z" fill="#727272"/>
<g clip-path="url(#clip0_523_2739)">
<path d="M513.618 866.433L517.819 865.539C517.819 865.539 524.778 868.32 528.192 868.618C531.738 868.816 532.131 869.114 532 870.107C531.869 871.1 529.374 871.398 525.172 870.604C520.971 869.71 515.981 867.426 513.618 866.433Z" fill="#3A3A3A"/>
<path d="M520.314 861.069C519.789 858.288 515.981 858.685 515.981 858.685C515.981 858.685 484.994 860.771 464.641 861.764C444.289 862.757 404.636 858.388 404.636 858.388C395.97 857.196 394.525 860.572 394.525 860.572C392.031 865.637 398.071 866.829 398.071 866.829C412.514 870.205 430.503 871.099 458.602 871C486.7 870.9 516.638 864.545 516.638 864.545C516.638 864.545 520.708 863.849 520.314 861.069ZM402.141 864.644C400.697 864.644 399.646 863.75 399.646 862.757C399.646 861.665 400.828 860.87 402.141 860.87C403.585 860.87 404.636 861.764 404.636 862.757C404.636 863.75 403.454 864.644 402.141 864.644ZM510.598 863.254C509.679 863.254 508.759 862.658 508.759 861.863C508.759 861.168 509.547 860.473 510.598 860.473C511.517 860.473 512.436 861.069 512.436 861.863C512.436 862.658 511.648 863.254 510.598 863.254Z" fill="#3A3A3A"/>
<path d="M426.169 828.1C425.513 827.901 424.725 828.001 424.331 828.497L418.685 834.753C418.291 835.25 418.16 835.746 418.291 836.342C418.422 836.839 418.947 837.335 419.604 837.633L466.873 856.998C469.105 857.892 471.6 858.091 473.964 857.395L477.903 856.303C478.822 856.005 480.004 856.104 480.923 856.502L497.73 863.751L508.89 863.056L426.169 828.1ZM471.731 855.906L474.751 850.94L426.038 830.682L422.099 833.462L425.119 829.788C425.381 829.49 425.907 829.391 426.3 829.589L476.59 850.444L471.731 855.906Z" fill="#3A3A3A"/>
</g>
<defs>
<linearGradient id="paint0_linear_523_2739" x1="413.994" y1="0" x2="413.994" y2="681.328" gradientUnits="userSpaceOnUse">
<stop/>
<stop offset="0.468555"/>
<stop offset="1"/>
</linearGradient>
<clipPath id="clip0_523_2739">
<rect width="138" height="43" fill="white" transform="translate(394 828)"/>
</clipPath>
</defs>
</svg>
