<svg width="428" height="417" viewBox="0 0 428 417" fill="none" xmlns="http://www.w3.org/2000/svg">
<g clip-path="url(#clip0_48_1322)">
<path d="M343.318 234.026C306.808 233.692 273.769 233.389 249.82 233.17C237.873 233.115 228.202 233.07 221.486 233.039C218.159 233.046 215.57 233.052 213.782 233.056C212.919 233.067 212.254 233.076 211.779 233.082C211.327 233.092 211.096 233.104 211.096 233.118C211.096 233.131 211.327 233.145 211.779 233.159C212.255 233.17 212.919 233.185 213.782 233.205C215.57 233.226 218.159 233.258 221.485 233.297C228.201 233.332 237.873 233.382 249.82 233.444C273.77 233.458 306.81 233.478 343.321 233.5C379.814 233.496 412.86 233.543 436.784 233.711C448.745 233.793 458.425 233.901 465.116 234.024C468.46 234.086 471.058 234.15 472.819 234.215C474.58 234.28 475.505 234.346 475.505 234.409C475.504 234.471 474.579 234.528 472.817 234.576C471.056 234.624 468.458 234.663 465.113 234.692C458.421 234.749 448.74 234.763 436.778 234.729C412.854 234.663 379.809 234.386 343.318 234.026Z" fill="#EBEBEB"/>
<path d="M342.591 241.873C306.58 236.136 273.992 230.944 250.371 227.181C238.578 225.359 229.031 223.885 222.401 222.861C219.114 222.376 216.555 222 214.788 221.74C213.933 221.624 213.275 221.534 212.804 221.471C212.356 221.415 212.126 221.393 212.123 221.406C212.121 221.419 212.346 221.468 212.79 221.55C213.259 221.631 213.913 221.745 214.761 221.893C216.523 222.179 219.076 222.594 222.356 223.126C228.984 224.156 238.53 225.637 250.321 227.467C273.978 231.024 306.615 235.931 342.68 241.354C378.73 246.747 411.368 251.681 434.974 255.387C446.777 257.238 456.322 258.779 462.911 259.892C466.205 260.448 468.761 260.897 470.489 261.223C472.218 261.549 473.12 261.752 473.109 261.815C473.099 261.878 472.175 261.798 470.427 261.585C468.679 261.373 466.106 261.028 462.796 260.561C456.177 259.629 446.61 258.21 434.8 256.406C411.177 252.801 378.579 247.633 342.591 241.873Z" fill="#EBEBEB"/>
<path d="M340.581 249.514C305.969 238.446 274.647 228.43 251.942 221.17C240.598 217.602 231.414 214.714 225.036 212.708C221.869 211.737 219.405 210.982 217.702 210.46C216.878 210.218 216.243 210.03 215.788 209.897C215.355 209.774 215.131 209.718 215.127 209.732C215.122 209.745 215.337 209.827 215.761 209.975C216.21 210.126 216.837 210.336 217.651 210.609C219.345 211.157 221.796 211.949 224.946 212.968C231.323 214.978 240.504 217.873 251.846 221.449C274.619 228.509 306.038 238.249 340.756 249.012C375.466 259.743 406.881 269.509 429.579 276.71C440.929 280.309 450.1 283.262 456.422 285.351C459.583 286.394 462.032 287.221 463.685 287.804C465.338 288.386 466.196 288.722 466.175 288.783C466.154 288.844 465.255 288.627 463.563 288.155C461.872 287.684 459.388 286.957 456.196 286.001C449.813 284.088 440.601 281.253 429.236 277.699C406.504 270.596 375.167 260.603 340.581 249.514Z" fill="#EBEBEB"/>
<path d="M337.336 256.75C304.982 240.635 275.703 226.051 254.481 215.481C243.867 210.257 235.274 206.029 229.308 203.093C226.341 201.658 224.032 200.543 222.439 199.773C221.664 199.409 221.068 199.129 220.641 198.929C220.234 198.743 220.023 198.653 220.016 198.665C220.009 198.678 220.208 198.791 220.603 199C221.021 199.216 221.606 199.517 222.364 199.909C223.945 200.703 226.236 201.853 229.179 203.33C235.143 206.271 243.732 210.505 254.343 215.736C275.665 226.123 305.082 240.452 337.588 256.287C370.091 272.089 399.501 286.443 420.726 296.956C431.34 302.211 439.91 306.501 445.809 309.509C448.758 311.013 451.041 312.197 452.577 313.018C454.114 313.839 454.906 314.299 454.876 314.355C454.845 314.412 453.994 314.062 452.402 313.342C450.81 312.622 448.477 311.532 445.483 310.108C439.497 307.261 430.868 303.08 420.232 297.867C398.957 287.445 369.661 272.881 337.336 256.75Z" fill="#EBEBEB"/>
<path d="M332.938 263.416C303.626 242.682 277.101 223.918 257.874 210.318C248.248 203.578 240.456 198.123 235.045 194.334C232.35 192.475 230.252 191.03 228.803 190.031C228.099 189.557 227.555 189.192 227.167 188.93C226.795 188.686 226.601 188.566 226.593 188.577C226.584 188.588 226.762 188.729 227.118 188.995C227.496 189.271 228.024 189.655 228.708 190.155C230.14 191.175 232.214 192.651 234.879 194.549C240.288 198.341 248.075 203.802 257.697 210.549C277.054 223.981 303.757 242.514 333.265 262.993C362.775 283.44 389.467 301.996 408.706 315.54C418.327 322.31 426.087 327.823 431.419 331.673C434.086 333.598 436.146 335.106 437.529 336.147C438.912 337.187 439.619 337.759 439.58 337.81C439.54 337.862 438.756 337.389 437.302 336.441C435.848 335.493 433.722 334.07 430.999 332.218C425.553 328.515 417.717 323.101 408.067 316.369C388.764 302.906 362.218 284.161 332.938 263.416Z" fill="#EBEBEB"/>
<path d="M327.505 269.344C301.935 244.521 278.797 222.057 262.025 205.774C253.617 197.69 246.81 191.146 242.083 186.602C239.724 184.367 237.889 182.628 236.621 181.427C236.002 180.854 235.526 180.413 235.184 180.097C234.857 179.801 234.684 179.654 234.674 179.663C234.663 179.673 234.817 179.839 235.125 180.154C235.453 180.482 235.912 180.94 236.507 181.535C237.755 182.754 239.562 184.52 241.885 186.789C246.608 191.336 253.41 197.885 261.813 205.974C278.739 222.11 302.091 244.373 327.896 268.975C353.708 293.545 377.045 315.83 393.838 332.059C402.236 340.171 409.001 346.767 413.64 351.36C415.96 353.656 417.749 355.451 418.945 356.684C420.142 357.916 420.746 358.585 420.699 358.63C420.652 358.675 419.955 358.092 418.673 356.94C417.392 355.787 415.524 354.066 413.137 351.834C408.362 347.369 401.505 340.86 393.072 332.78C376.203 316.624 353.041 294.174 327.505 269.344Z" fill="#EBEBEB"/>
<path d="M321.171 274.396C299.967 246.087 280.778 220.469 266.87 201.899C259.884 192.668 254.229 185.196 250.302 180.007C248.337 177.45 246.808 175.46 245.751 174.086C245.234 173.429 244.835 172.922 244.549 172.56C244.275 172.218 244.128 172.047 244.116 172.055C244.105 172.064 244.228 172.25 244.481 172.607C244.751 172.98 245.129 173.5 245.62 174.177C246.654 175.566 248.151 177.578 250.074 180.163C253.997 185.355 259.647 192.831 266.626 202.067C280.711 220.515 300.144 245.966 321.617 274.09C343.102 302.185 362.516 327.655 376.455 346.174C383.425 355.432 389.031 362.951 392.864 368.174C394.781 370.787 396.254 372.824 397.235 374.22C398.215 375.614 398.703 376.365 398.649 376.403C398.595 376.44 398.002 375.761 396.924 374.433C395.846 373.105 394.283 371.129 392.289 368.569C388.301 363.452 382.59 356.006 375.579 346.775C361.554 328.315 342.341 302.707 321.171 274.396Z" fill="#EBEBEB"/>
<path d="M314.087 278.445C297.791 247.326 283.046 219.165 272.357 198.752C266.973 188.595 262.613 180.372 259.586 174.662C258.065 171.844 256.881 169.651 256.063 168.137C255.659 167.41 255.348 166.851 255.126 166.45C254.91 166.072 254.793 165.882 254.78 165.888C254.767 165.894 254.858 166.097 255.05 166.487C255.256 166.895 255.544 167.466 255.917 168.207C256.71 169.733 257.858 171.943 259.333 174.784C262.356 180.496 266.708 188.722 272.085 198.883C282.969 219.202 297.985 247.233 314.578 278.209C331.188 309.156 346.184 337.205 356.91 357.572C362.276 367.754 366.578 376.014 369.506 381.745C370.97 384.611 372.091 386.843 372.83 388.367C373.57 389.89 373.928 390.705 373.868 390.734C373.808 390.762 373.334 390.004 372.487 388.532C371.639 387.06 370.42 384.875 368.87 382.051C365.771 376.402 361.353 368.198 355.944 358.036C345.12 337.716 330.348 309.561 314.087 278.445Z" fill="#EBEBEB"/>
<path d="M306.423 281.386C295.472 248.212 285.562 218.192 278.38 196.432C274.739 185.595 271.793 176.821 269.747 170.728C268.709 167.718 267.902 165.375 267.344 163.757C267.065 162.979 266.851 162.38 266.697 161.95C266.546 161.545 266.463 161.339 266.448 161.343C266.435 161.348 266.491 161.561 266.615 161.975C266.752 162.41 266.942 163.017 267.188 163.805C267.718 165.43 268.487 167.785 269.474 170.811C271.515 176.905 274.455 185.681 278.085 196.521C285.478 218.217 295.677 248.15 306.947 281.226C318.239 314.277 328.415 344.223 335.643 365.944C339.26 376.803 342.144 385.605 344.088 391.703C345.06 394.753 345.798 397.126 346.276 398.741C346.754 400.357 346.973 401.215 346.909 401.234C346.845 401.254 346.501 400.434 345.907 398.853C345.313 397.273 344.47 394.932 343.406 391.911C341.278 385.869 338.271 377.104 334.607 366.259C327.277 344.57 317.34 314.551 306.423 281.386Z" fill="#EBEBEB"/>
<path d="M298.366 283.141C293.032 248.74 288.204 217.609 284.705 195.043C282.9 183.794 281.44 174.688 280.427 168.366C279.9 165.237 279.489 162.802 279.207 161.121C279.06 160.311 278.948 159.688 278.866 159.241C278.785 158.818 278.736 158.602 278.722 158.604C278.708 158.606 278.729 158.826 278.783 159.253C278.846 159.703 278.933 160.33 279.046 161.145C279.302 162.83 279.672 165.27 280.148 168.407C281.157 174.731 282.61 183.838 284.405 195.087C288.121 217.621 293.248 248.709 298.912 283.062C304.602 317.394 309.703 348.491 313.253 371.024C315.031 382.291 316.425 391.416 317.337 397.729C317.794 400.886 318.13 403.34 318.336 405.006C318.542 406.673 318.617 407.554 318.55 407.564C318.484 407.573 318.281 406.712 317.955 405.062C317.63 403.412 317.185 400.975 316.634 397.832C315.531 391.546 314.009 382.44 312.182 371.18C308.525 348.662 303.67 317.529 298.366 283.141Z" fill="#EBEBEB"/>
<path d="M290.119 283.675C290.447 248.902 290.745 217.434 290.961 194.624C291.011 183.246 291.052 174.034 291.08 167.638C291.07 164.47 291.062 162.003 291.057 160.301C291.045 159.479 291.035 158.846 291.028 158.393C291.017 157.963 291.005 157.742 290.991 157.742C290.977 157.742 290.962 157.963 290.947 158.392C290.936 158.846 290.92 159.478 290.901 160.3C290.879 162.002 290.848 164.468 290.809 167.637C290.777 174.034 290.73 183.245 290.673 194.623C290.672 217.434 290.671 248.902 290.67 283.676C290.697 318.433 290.669 349.908 290.507 372.693C290.428 384.085 290.321 393.306 290.195 399.678C290.133 402.864 290.067 405.338 289.999 407.015C289.932 408.692 289.864 409.573 289.798 409.573C289.732 409.573 289.672 408.691 289.621 407.013C289.569 405.335 289.526 402.861 289.495 399.675C289.43 393.302 289.409 384.081 289.439 372.688C289.493 349.904 289.763 318.43 290.119 283.675Z" fill="#EBEBEB"/>
<path d="M281.88 282.987C287.881 248.686 293.311 217.645 297.247 195.144C299.153 183.911 300.695 174.817 301.766 168.503C302.272 165.371 302.665 162.933 302.937 161.251C303.059 160.437 303.152 159.811 303.219 159.362C303.278 158.935 303.301 158.716 303.287 158.714C303.273 158.711 303.222 158.926 303.136 159.348C303.051 159.795 302.931 160.417 302.777 161.226C302.478 162.905 302.044 165.336 301.487 168.46C300.411 174.773 298.862 183.866 296.947 195.098C293.227 217.631 288.095 248.718 282.424 283.071C276.784 317.41 271.625 348.499 267.748 370.983C265.811 382.226 264.2 391.318 263.036 397.594C262.454 400.732 261.984 403.166 261.643 404.813C261.302 406.46 261.09 407.319 261.023 407.309C260.957 407.299 261.041 406.419 261.263 404.754C261.485 403.089 261.846 400.638 262.333 397.485C263.308 391.18 264.791 382.068 266.679 370.818C270.449 348.318 275.854 317.267 281.88 282.987Z" fill="#EBEBEB"/>
<path d="M273.855 281.078C285.454 248.105 295.952 218.267 303.559 196.638C307.298 185.831 310.324 177.082 312.426 171.007C313.444 167.99 314.235 165.642 314.781 164.02C315.035 163.235 315.231 162.63 315.371 162.196C315.5 161.784 315.558 161.571 315.544 161.567C315.531 161.562 315.444 161.767 315.29 162.171C315.132 162.599 314.911 163.197 314.625 163.972C314.051 165.585 313.22 167.92 312.153 170.921C310.047 176.995 307.013 185.742 303.266 196.546C295.867 218.241 285.661 248.171 274.383 281.245C263.137 314.31 252.904 344.238 245.357 365.86C241.586 376.672 238.49 385.409 236.301 391.431C235.208 394.443 234.341 396.775 233.731 398.351C233.122 399.926 232.769 400.743 232.704 400.722C232.641 400.702 232.868 399.846 233.361 398.235C233.855 396.624 234.616 394.257 235.618 391.217C237.622 385.136 240.593 376.361 244.317 365.534C251.762 343.878 262.235 314.026 273.855 281.078Z" fill="#EBEBEB"/>
<path d="M266.255 277.992C283.155 247.167 298.448 219.271 309.534 199.052C315.012 188.94 319.446 180.753 322.525 175.068C324.029 172.241 325.199 170.041 326.007 168.523C326.388 167.786 326.681 167.218 326.891 166.811C327.087 166.423 327.18 166.222 327.167 166.215C327.154 166.209 327.036 166.398 326.817 166.774C326.59 167.173 326.274 167.73 325.863 168.453C325.031 169.959 323.825 172.141 322.275 174.946C319.192 180.628 314.75 188.811 309.265 198.92C298.373 219.234 283.346 247.261 266.741 278.231C250.169 309.197 235.117 337.217 224.093 357.44C218.582 367.552 214.084 375.716 210.929 381.336C209.352 384.147 208.111 386.321 207.25 387.785C206.389 389.25 205.906 390.004 205.848 389.975C205.788 389.946 206.155 389.134 206.91 387.618C207.665 386.102 208.808 383.879 210.301 381.027C213.286 375.324 217.671 367.103 223.138 356.97C234.066 336.701 249.339 308.789 266.255 277.992Z" fill="#EBEBEB"/>
<path d="M259.255 273.808C281.006 245.877 300.69 220.602 314.958 202.282C322.028 193.11 327.751 185.684 331.726 180.529C333.676 177.96 335.193 175.962 336.24 174.583C336.737 173.911 337.12 173.393 337.395 173.023C337.651 172.669 337.777 172.483 337.765 172.475C337.754 172.467 337.606 172.637 337.327 172.975C337.038 173.335 336.634 173.838 336.111 174.491C335.041 175.855 333.492 177.831 331.501 180.37C327.523 185.524 321.794 192.945 314.717 202.113C300.625 220.556 281.183 246.001 259.699 274.119C238.25 302.238 218.783 327.672 204.575 346.005C197.473 355.172 191.689 362.566 187.65 367.647C185.631 370.188 184.048 372.151 182.957 373.469C181.866 374.787 181.265 375.46 181.212 375.423C181.158 375.385 181.654 374.639 182.648 373.252C183.642 371.866 185.137 369.841 187.078 367.247C190.963 362.058 196.643 354.591 203.705 345.395C217.827 327.003 237.492 301.708 259.255 273.808Z" fill="#EBEBEB"/>
<path d="M253.027 268.637C279.074 244.269 302.646 222.216 319.731 206.232C328.214 198.219 335.08 191.732 339.849 187.227C342.194 184.979 344.019 183.23 345.279 182.022C345.88 181.432 346.343 180.978 346.674 180.653C346.985 180.341 347.14 180.176 347.129 180.167C347.12 180.157 346.945 180.303 346.615 180.596C346.27 180.91 345.79 181.346 345.165 181.914C343.886 183.103 342.033 184.826 339.652 187.039C334.881 191.541 328.009 198.024 319.521 206.031C302.588 222.162 279.228 244.418 253.414 269.009C227.632 293.609 204.249 315.849 187.22 331.853C178.707 339.857 171.786 346.304 166.967 350.726C164.558 352.936 162.674 354.641 161.381 355.781C160.088 356.922 159.385 357.498 159.338 357.454C159.291 357.409 159.903 356.744 161.111 355.523C162.319 354.302 164.126 352.523 166.468 350.247C171.153 345.696 177.983 339.161 186.461 331.125C203.416 315.047 226.973 292.973 253.027 268.637Z" fill="#EBEBEB"/>
<path d="M247.719 262.607C277.429 242.394 304.315 224.103 323.803 210.844C333.491 204.185 341.333 198.794 346.779 195.051C349.462 193.178 351.55 191.72 352.992 190.713C353.682 190.22 354.214 189.839 354.594 189.567C354.952 189.305 355.132 189.166 355.123 189.155C355.115 189.144 354.92 189.262 354.546 189.503C354.154 189.761 353.608 190.121 352.898 190.589C351.44 191.574 349.328 193.001 346.615 194.835C341.167 198.575 333.32 203.961 323.628 210.613C304.267 224.04 277.557 242.564 248.042 263.033C218.557 283.514 191.827 302.02 172.391 315.307C162.675 321.952 154.785 327.296 149.302 330.95C146.561 332.776 144.422 334.181 142.958 335.116C141.494 336.051 140.706 336.516 140.667 336.464C140.628 336.413 141.34 335.847 142.734 334.819C144.127 333.792 146.202 332.302 148.887 330.401C154.258 326.6 162.072 321.156 171.76 314.473C191.132 301.103 218.007 282.787 247.719 262.607Z" fill="#EBEBEB"/>
<path d="M243.463 255.863C276.126 240.323 305.684 226.261 327.11 216.068C337.771 210.933 346.402 206.777 352.396 203.89C355.354 202.439 357.656 201.31 359.244 200.53C360.007 200.145 360.594 199.849 361.015 199.636C361.412 199.431 361.611 199.319 361.605 199.307C361.598 199.294 361.385 199.381 360.976 199.563C360.547 199.76 359.948 200.035 359.17 200.391C357.569 201.147 355.249 202.241 352.267 203.648C346.272 206.531 337.638 210.681 326.973 215.809C305.647 226.188 276.224 240.507 243.711 256.331C211.228 272.171 181.789 286.47 160.411 296.699C149.723 301.816 141.053 305.918 135.038 308.71C132.031 310.106 129.687 311.175 128.088 311.88C126.489 312.586 125.634 312.927 125.603 312.87C125.573 312.813 126.369 312.361 127.915 311.553C129.46 310.745 131.753 309.582 134.717 308.104C140.645 305.149 149.257 300.936 159.923 295.778C181.251 285.457 210.803 271.369 243.463 255.863Z" fill="#EBEBEB"/>
<path d="M240.371 248.565C275.194 238.114 306.707 228.656 329.55 221.802C340.926 218.328 350.137 215.516 356.532 213.563C359.693 212.573 362.152 211.803 363.85 211.271C364.666 211.005 365.296 210.8 365.746 210.654C366.172 210.51 366.388 210.43 366.383 210.416C366.379 210.403 366.155 210.458 365.72 210.576C365.264 210.706 364.627 210.887 363.8 211.122C362.093 211.628 359.622 212.362 356.445 213.304C350.048 215.252 340.835 218.057 329.456 221.523C306.68 228.577 275.259 238.31 240.538 249.065C205.843 259.84 174.409 269.55 151.608 276.449C140.208 279.901 130.969 282.653 124.567 284.509C121.365 285.436 118.875 286.14 117.179 286.597C115.483 287.053 114.582 287.263 114.562 287.202C114.541 287.141 115.402 286.813 117.062 286.246C118.721 285.679 121.178 284.875 124.349 283.86C130.692 281.83 139.892 278.959 151.277 275.463C174.045 268.467 205.556 258.985 240.371 248.565Z" fill="#EBEBEB"/>
<path d="M238.523 240.893C274.639 235.79 307.323 231.173 331.012 227.826C342.821 226.101 352.381 224.705 359.019 223.735C362.305 223.231 364.861 222.839 366.625 222.569C367.476 222.428 368.13 222.32 368.6 222.243C369.044 222.166 369.27 222.119 369.268 222.105C369.266 222.092 369.035 222.112 368.587 222.164C368.115 222.224 367.456 222.307 366.6 222.416C364.831 222.66 362.269 223.014 358.977 223.469C352.337 224.434 342.777 225.825 330.966 227.541C307.309 231.095 274.671 235.996 238.606 241.413C202.563 246.854 169.916 251.732 146.26 255.127C134.432 256.827 124.852 258.161 118.224 259.034C114.91 259.471 112.334 259.793 110.584 259.99C108.833 260.187 107.909 260.259 107.899 260.196C107.889 260.132 108.793 259.938 110.525 259.627C112.257 259.317 114.816 258.891 118.116 258.364C124.715 257.31 134.275 255.853 146.095 254.107C169.735 250.609 202.42 245.966 238.523 240.893Z" fill="#EBEBEB"/>
<path d="M237.957 233.039C274.467 233.33 307.507 233.594 331.455 233.786C343.402 233.827 353.074 233.86 359.79 233.882C363.117 233.871 365.706 233.862 367.494 233.856C368.356 233.844 369.021 233.834 369.497 233.827C369.948 233.816 370.179 233.805 370.179 233.791C370.179 233.778 369.948 233.764 369.497 233.75C369.021 233.74 368.356 233.725 367.494 233.707C365.706 233.688 363.117 233.66 359.79 233.623C353.074 233.597 343.402 233.558 331.455 233.51C307.506 233.524 274.465 233.543 237.954 233.564C201.461 233.611 168.414 233.603 144.491 233.463C132.529 233.396 122.848 233.299 116.158 233.184C112.812 233.126 110.215 233.065 108.454 233.002C106.693 232.938 105.769 232.874 105.769 232.812C105.769 232.749 106.694 232.691 108.455 232.641C110.217 232.591 112.815 232.549 116.16 232.516C122.851 232.451 132.533 232.426 144.494 232.447C168.42 232.483 201.465 232.722 237.957 233.039Z" fill="#EBEBEB"/>
<path d="M238.674 225.191C274.693 230.885 307.288 236.037 330.914 239.771C342.709 241.578 352.257 243.042 358.888 244.058C362.178 244.538 364.737 244.911 366.504 245.17C367.358 245.285 368.016 245.373 368.488 245.437C368.936 245.493 369.167 245.514 369.168 245.501C369.171 245.488 368.945 245.438 368.502 245.358C368.033 245.277 367.379 245.164 366.53 245.017C364.767 244.733 362.214 244.321 358.934 243.793C352.304 242.772 342.757 241.302 330.962 239.486C307.301 235.958 274.658 231.09 238.586 225.711C202.528 220.361 169.883 215.467 146.273 211.789C134.467 209.952 124.92 208.423 118.33 207.318C115.035 206.766 112.48 206.32 110.75 205.996C109.02 205.673 108.118 205.471 108.128 205.408C108.139 205.344 109.063 205.424 110.811 205.634C112.56 205.844 115.133 206.186 118.443 206.648C125.063 207.572 134.631 208.979 146.445 210.769C170.073 214.346 202.678 219.474 238.674 225.191Z" fill="#EBEBEB"/>
<path d="M240.673 217.547C275.301 228.573 306.636 238.551 329.35 245.784C340.699 249.338 349.887 252.215 356.268 254.213C359.436 255.179 361.902 255.932 363.604 256.452C364.429 256.693 365.064 256.879 365.519 257.012C365.953 257.134 366.177 257.19 366.181 257.177C366.186 257.163 365.971 257.081 365.547 256.934C365.097 256.784 364.47 256.574 363.656 256.302C361.962 255.756 359.509 254.967 356.358 253.952C349.979 251.95 340.794 249.066 329.448 245.504C306.664 238.471 275.233 228.769 240.5 218.049C205.776 207.36 174.347 197.632 151.64 190.458C140.286 186.873 131.111 183.931 124.786 181.851C121.624 180.811 119.174 179.986 117.52 179.406C115.866 178.827 115.007 178.492 115.029 178.43C115.05 178.369 115.949 178.585 117.642 179.054C119.333 179.523 121.819 180.247 125.011 181.199C131.397 183.104 140.613 185.927 151.983 189.467C174.723 196.545 206.073 206.501 240.673 217.547Z" fill="#EBEBEB"/>
<path d="M243.908 210.307C276.284 226.383 305.582 240.931 326.818 251.476C337.439 256.687 346.037 260.905 352.008 263.835C354.977 265.265 357.287 266.378 358.882 267.147C359.657 267.509 360.253 267.788 360.68 267.988C361.087 268.174 361.299 268.263 361.306 268.25C361.313 268.239 361.114 268.126 360.719 267.917C360.3 267.701 359.715 267.4 358.956 267.009C357.374 266.217 355.082 265.071 352.137 263.596C346.168 260.663 337.574 256.438 326.957 251.22C305.621 240.859 276.185 226.565 243.657 210.77C211.133 195.007 181.704 180.688 160.465 170.201C149.845 164.959 141.269 160.679 135.366 157.678C132.415 156.178 130.132 154.997 128.593 154.177C127.055 153.357 126.262 152.899 126.293 152.843C126.323 152.786 127.175 153.136 128.768 153.854C130.361 154.572 132.695 155.659 135.69 157.079C141.681 159.918 150.315 164.089 160.958 169.29C182.246 179.686 211.562 194.215 243.908 210.307Z" fill="#EBEBEB"/>
<path d="M248.297 203.636C277.636 224.335 304.186 243.067 323.431 256.644C333.066 263.372 340.865 268.819 346.281 272.601C348.979 274.456 351.079 275.899 352.527 276.896C353.233 277.369 353.777 277.734 354.166 277.994C354.537 278.239 354.732 278.358 354.741 278.347C354.749 278.336 354.572 278.195 354.216 277.93C353.837 277.655 353.309 277.27 352.623 276.772C351.19 275.753 349.115 274.28 346.447 272.385C341.034 268.599 333.238 263.148 323.608 256.413C304.234 243.003 277.506 224.503 247.971 204.059C218.434 183.647 191.716 165.124 172.46 151.602C162.83 144.844 155.063 139.34 149.726 135.496C147.057 133.575 144.995 132.069 143.61 131.031C142.225 129.992 141.518 129.421 141.557 129.37C141.597 129.318 142.381 129.789 143.836 130.736C145.292 131.682 147.419 133.103 150.144 134.952C155.595 138.648 163.439 144.053 173.098 150.774C192.419 164.213 218.99 182.927 248.297 203.636Z" fill="#EBEBEB"/>
<path d="M253.723 197.701C279.325 222.494 302.493 244.931 319.286 261.193C327.705 269.266 334.52 275.803 339.253 280.341C341.615 282.573 343.453 284.31 344.722 285.509C345.341 286.082 345.819 286.522 346.161 286.838C346.488 287.134 346.661 287.28 346.671 287.271C346.681 287.261 346.528 287.095 346.22 286.781C345.891 286.453 345.432 285.995 344.836 285.401C343.586 284.183 341.777 282.42 339.451 280.154C334.722 275.613 327.911 269.072 319.498 260.993C302.55 244.876 279.169 222.64 253.333 198.071C227.489 173.531 204.122 151.274 187.308 135.065C178.898 126.963 172.125 120.375 167.479 115.788C165.157 113.495 163.365 111.702 162.168 110.471C160.97 109.24 160.364 108.572 160.411 108.527C160.458 108.482 161.156 109.064 162.439 110.214C163.722 111.365 165.591 113.084 167.982 115.314C172.763 119.773 179.628 126.274 188.072 134.343C204.963 150.479 228.155 172.902 253.723 197.701Z" fill="#EBEBEB"/>
<path d="M260.051 192.642C281.292 220.926 300.514 246.521 314.447 265.075C321.445 274.297 327.11 281.763 331.044 286.947C333.013 289.501 334.544 291.49 335.602 292.862C336.121 293.519 336.52 294.025 336.807 294.388C337.082 294.728 337.229 294.899 337.24 294.891C337.251 294.883 337.128 294.697 336.874 294.341C336.603 293.968 336.225 293.447 335.733 292.772C334.698 291.384 333.198 289.374 331.271 286.791C327.341 281.603 321.681 274.134 314.69 264.907C300.581 246.476 281.115 221.048 259.604 192.95C238.081 164.881 218.634 139.434 204.671 120.931C197.687 111.681 192.072 104.17 188.233 98.9505C186.313 96.3412 184.837 94.3043 183.855 92.9112C182.872 91.5181 182.383 90.7672 182.437 90.7305C182.491 90.693 183.085 91.3713 184.165 92.6976C185.245 94.0239 186.811 95.9991 188.808 98.5556C192.803 103.668 198.523 111.107 205.546 120.33C219.596 138.771 238.843 164.357 260.051 192.642Z" fill="#EBEBEB"/>
<path d="M267.129 188.584C283.465 219.683 298.249 247.826 308.964 268.226C314.362 278.378 318.732 286.595 321.767 292.301C323.292 295.118 324.479 297.31 325.299 298.822C325.704 299.548 326.015 300.108 326.238 300.508C326.454 300.886 326.571 301.076 326.584 301.07C326.597 301.064 326.505 300.861 326.313 300.472C326.106 300.063 325.818 299.492 325.444 298.753C324.649 297.227 323.498 295.019 322.019 292.18C318.989 286.472 314.625 278.251 309.234 268.096C298.323 247.791 283.27 219.778 266.636 188.822C249.985 157.894 234.952 129.864 224.198 109.511C218.82 99.3343 214.506 91.079 211.571 85.3524C210.103 82.489 208.979 80.2577 208.238 78.7346C207.497 77.2116 207.137 76.3976 207.197 76.3689C207.256 76.3403 207.733 77.0978 208.582 78.5687C209.431 80.0397 210.653 82.2233 212.206 85.0456C215.313 90.69 219.741 98.8895 225.165 109.044C236.017 129.351 250.827 157.488 267.129 188.584Z" fill="#EBEBEB"/>
<path d="M274.789 185.634C285.783 218.794 295.733 248.802 302.946 270.554C306.6 281.387 309.559 290.157 311.613 296.247C312.654 299.257 313.465 301.599 314.024 303.216C314.304 303.993 314.52 304.592 314.674 305.022C314.825 305.427 314.91 305.632 314.923 305.628C314.937 305.624 314.88 305.41 314.755 304.997C314.619 304.562 314.428 303.956 314.181 303.168C313.648 301.543 312.877 299.189 311.885 296.165C309.836 290.073 306.884 281.301 303.238 270.465C295.817 248.777 285.578 218.857 274.263 185.795C262.927 152.758 252.711 122.825 245.454 101.113C241.823 90.2577 238.927 81.4585 236.975 75.3634C235.998 72.3158 235.258 69.9435 234.778 68.3287C234.297 66.7139 234.077 65.8559 234.141 65.836C234.205 65.8162 234.55 66.6361 235.145 68.2157C235.741 69.7952 236.587 72.1352 237.656 75.1549C239.791 81.1943 242.812 89.9553 246.489 100.796C253.85 122.476 263.827 152.482 274.789 185.634Z" fill="#EBEBEB"/>
<path d="M282.843 183.869C288.223 218.264 293.093 249.39 296.621 271.951C298.44 283.197 299.913 292.301 300.935 298.623C301.466 301.751 301.879 304.185 302.164 305.866C302.311 306.675 302.425 307.299 302.507 307.746C302.589 308.169 302.638 308.385 302.652 308.383C302.666 308.38 302.645 308.161 302.59 307.734C302.527 307.285 302.439 306.657 302.324 305.842C302.067 304.157 301.693 301.717 301.213 298.582C300.196 292.259 298.73 283.154 296.92 271.907C293.175 249.377 288.007 218.295 282.297 183.948C276.561 149.624 271.419 118.532 267.839 96.0034C266.046 84.7395 264.64 75.6166 263.719 69.3042C263.258 66.148 262.918 63.6949 262.71 62.028C262.502 60.3611 262.426 59.4811 262.492 59.4715C262.558 59.462 262.763 60.323 263.09 61.973C263.417 63.6223 263.866 66.0599 264.422 69.2022C265.533 75.4867 267.067 84.5912 268.909 95.8478C272.598 118.36 277.494 149.488 282.843 183.869Z" fill="#EBEBEB"/>
<path d="M291.088 183.325C290.806 218.099 290.55 249.567 290.364 272.376C290.328 283.755 290.3 292.967 290.28 299.363C290.294 302.532 290.305 304.998 290.312 306.7C290.326 307.522 290.336 308.155 290.344 308.609C290.355 309.039 290.369 309.259 290.382 309.259C290.396 309.259 290.411 309.039 290.426 308.61C290.436 308.156 290.451 307.523 290.47 306.702C290.489 305 290.517 302.533 290.553 299.365C290.576 292.968 290.61 283.757 290.653 272.379C290.623 249.569 290.582 218.099 290.537 183.325C290.465 148.568 290.452 117.093 290.584 94.3079C290.648 82.9148 290.743 73.695 290.86 67.3232C290.918 64.1369 290.981 61.6633 291.046 59.9861C291.111 58.3089 291.178 57.4281 291.244 57.4281C291.31 57.4281 291.371 58.3096 291.424 59.9876C291.478 61.6655 291.524 64.1398 291.56 67.3261C291.633 73.6987 291.666 82.9192 291.652 94.3123C291.627 117.096 291.399 148.57 291.088 183.325Z" fill="#EBEBEB"/>
<path d="M299.328 184.003C293.374 218.312 287.985 249.36 284.08 271.865C282.19 283.1 280.66 292.196 279.597 298.512C279.095 301.645 278.705 304.082 278.435 305.765C278.315 306.579 278.222 307.206 278.156 307.655C278.099 308.082 278.076 308.301 278.09 308.303C278.105 308.306 278.156 308.09 278.241 307.668C278.325 307.221 278.444 306.598 278.597 305.789C278.894 304.111 279.324 301.679 279.878 298.554C280.945 292.239 282.482 283.145 284.381 271.91C288.07 249.372 293.16 218.279 298.785 183.92C304.379 149.574 309.496 118.478 313.343 95.9895C315.264 84.7446 316.863 75.6503 318.019 69.3732C318.597 66.2346 319.063 63.7999 319.402 62.1528C319.741 60.5057 319.952 59.6455 320.019 59.6557C320.085 59.666 320.003 60.5453 319.783 62.2108C319.563 63.8762 319.206 66.3271 318.723 69.4803C317.757 75.7868 316.285 84.9002 314.413 96.1524C310.671 118.658 305.308 149.716 299.328 184.003Z" fill="#EBEBEB"/>
<path d="M307.355 185.902C295.801 218.889 285.345 248.741 277.766 270.379C274.042 281.191 271.027 289.943 268.934 296.021C267.921 299.04 267.132 301.388 266.588 303.011C266.334 303.796 266.14 304.401 266 304.835C265.872 305.248 265.814 305.461 265.828 305.466C265.842 305.47 265.929 305.265 266.082 304.861C266.239 304.432 266.459 303.836 266.745 303.06C267.316 301.446 268.144 299.109 269.207 296.107C271.306 290.031 274.327 281.281 278.061 270.472C285.429 248.768 295.595 218.825 306.829 185.738C318.029 152.659 328.222 122.718 335.74 101.087C339.497 90.271 342.58 81.5298 344.76 75.5051C345.85 72.492 346.714 70.1586 347.322 68.5827C347.93 67.0068 348.281 66.1899 348.345 66.2097C348.409 66.2295 348.183 67.0861 347.691 68.698C347.199 70.3098 346.442 72.677 345.444 75.7187C343.448 81.8021 340.489 90.5814 336.78 101.412C329.364 123.076 318.932 152.941 307.355 185.902Z" fill="#EBEBEB"/>
<path d="M314.96 188.979C298.102 219.825 282.846 247.739 271.788 267.972C266.324 278.091 261.9 286.283 258.829 291.97C257.329 294.799 256.162 297.001 255.356 298.52C254.976 299.258 254.684 299.826 254.474 300.233C254.279 300.621 254.186 300.823 254.199 300.829C254.212 300.836 254.33 300.646 254.549 300.27C254.775 299.871 255.09 299.313 255.5 298.59C256.33 297.083 257.533 294.899 259.079 292.093C262.155 286.407 266.585 278.218 272.057 268.103C282.921 247.775 297.91 219.73 314.473 188.74C331.003 157.753 346.018 129.715 357.015 109.479C362.512 99.3601 367 91.1899 370.147 85.566C371.72 82.7541 372.958 80.5777 373.818 79.1127C374.677 77.6476 375.158 76.8923 375.218 76.921C375.277 76.9503 374.91 77.7614 374.158 79.2793C373.405 80.7972 372.265 83.0205 370.776 85.8743C367.798 91.5819 363.425 99.8078 357.972 109.948C347.07 130.231 331.834 158.162 314.96 188.979Z" fill="#EBEBEB"/>
<path d="M321.966 193.155C300.252 221.112 280.602 246.41 266.359 264.748C259.301 273.929 253.587 281.361 249.62 286.522C247.674 289.092 246.16 291.093 245.115 292.474C244.618 293.146 244.235 293.664 243.962 294.035C243.706 294.39 243.581 294.575 243.593 294.583C243.604 294.592 243.752 294.422 244.03 294.083C244.318 293.723 244.722 293.219 245.245 292.566C246.313 291.2 247.859 289.222 249.846 286.681C253.818 281.522 259.537 274.094 266.602 264.917C280.669 246.457 300.076 220.988 321.522 192.845C342.934 164.7 362.367 139.242 376.551 120.893C383.641 111.717 389.415 104.315 393.446 99.2294C395.463 96.6861 397.042 94.7212 398.132 93.4022C399.222 92.0824 399.82 91.4086 399.874 91.4461C399.928 91.4835 399.434 92.2307 398.441 93.618C397.448 95.0045 395.957 97.0318 394.019 99.6287C390.141 104.822 384.471 112.297 377.421 121.5C363.324 139.911 343.692 165.229 321.966 193.155Z" fill="#EBEBEB"/>
<path d="M328.201 198.319C302.187 222.719 278.645 244.799 261.581 260.804C253.109 268.827 246.251 275.323 241.488 279.833C239.146 282.084 237.324 283.835 236.066 285.045C235.465 285.635 235.003 286.09 234.672 286.416C234.361 286.728 234.207 286.893 234.217 286.903C234.227 286.912 234.401 286.767 234.731 286.473C235.075 286.159 235.555 285.722 236.179 285.154C237.457 283.963 239.307 282.238 241.685 280.022C246.45 275.514 253.313 269.023 261.79 261.005C278.701 244.853 302.032 222.57 327.813 197.946C353.562 173.316 376.915 151.048 393.922 135.023C402.425 127.009 409.337 120.553 414.151 116.126C416.557 113.912 418.438 112.206 419.73 111.064C421.022 109.922 421.724 109.345 421.77 109.389C421.817 109.434 421.206 110.099 419.999 111.322C418.793 112.545 416.988 114.326 414.649 116.604C409.971 121.16 403.149 127.703 394.682 135.75C377.75 151.848 354.223 173.951 328.201 198.319Z" fill="#EBEBEB"/>
<path d="M333.518 204.343C303.834 224.591 276.973 242.916 257.502 256.197C247.824 262.868 239.989 268.269 234.547 272.019C231.866 273.896 229.78 275.356 228.34 276.364C227.65 276.859 227.119 277.239 226.738 277.512C226.381 277.774 226.202 277.914 226.21 277.925C226.219 277.936 226.414 277.818 226.788 277.577C227.179 277.318 227.725 276.957 228.434 276.488C229.891 275.501 232 274.072 234.712 272.235C240.155 268.488 247.994 263.093 257.678 256.429C277.021 242.978 303.707 224.423 333.195 203.917C362.652 183.4 389.357 164.861 408.775 151.551C418.483 144.894 426.365 139.541 431.843 135.881C434.582 134.05 436.719 132.643 438.181 131.707C439.643 130.77 440.431 130.304 440.47 130.355C440.509 130.407 439.798 130.973 438.405 132.002C437.013 133.032 434.94 134.525 432.258 136.428C426.892 140.236 419.085 145.689 409.407 152.383C390.053 165.778 363.202 184.126 333.518 204.343Z" fill="#EBEBEB"/>
<path d="M337.783 211.081C305.141 226.661 275.601 240.758 254.19 250.978C243.535 256.126 234.91 260.293 228.92 263.187C225.965 264.642 223.664 265.774 222.076 266.556C221.314 266.942 220.727 267.238 220.307 267.451C219.91 267.657 219.711 267.769 219.717 267.781C219.724 267.793 219.936 267.706 220.345 267.523C220.774 267.326 221.373 267.051 222.15 266.694C223.751 265.936 226.07 264.838 229.049 263.427C235.041 260.538 243.669 256.377 254.327 251.236C275.64 240.83 305.043 226.476 337.534 210.612C369.996 194.733 399.416 180.398 420.779 170.143C431.46 165.013 440.125 160.899 446.136 158.101C449.142 156.701 451.483 155.629 453.082 154.922C454.681 154.215 455.536 153.873 455.565 153.929C455.596 153.986 454.8 154.44 453.256 155.25C451.713 156.059 449.421 157.225 446.458 158.706C440.534 161.669 431.928 165.892 421.269 171.064C399.954 181.411 370.421 195.535 337.783 211.081Z" fill="#EBEBEB"/>
<path d="M340.885 218.375C306.076 228.868 274.575 238.364 251.742 245.248C240.37 248.736 231.163 251.559 224.771 253.519C221.612 254.513 219.153 255.287 217.456 255.82C216.64 256.087 216.011 256.293 215.56 256.44C215.136 256.584 214.92 256.664 214.924 256.678C214.929 256.691 215.153 256.636 215.587 256.518C216.043 256.387 216.679 256.206 217.506 255.969C219.212 255.461 221.683 254.724 224.858 253.778C231.253 251.823 240.461 249.006 251.836 245.527C274.602 238.444 306.01 228.672 340.717 217.875C375.397 207.057 406.818 197.308 429.61 190.382C441.005 186.917 450.241 184.152 456.64 182.29C459.84 181.358 462.329 180.651 464.025 180.192C465.721 179.733 466.62 179.523 466.642 179.584C466.662 179.645 465.801 179.974 464.144 180.543C462.485 181.111 460.029 181.919 456.859 182.938C450.519 184.976 441.322 187.858 429.943 191.368C407.184 198.391 375.686 207.913 340.885 218.375Z" fill="#EBEBEB"/>
<path d="M342.743 226.045C306.634 231.192 273.957 235.849 250.271 239.225C238.465 240.964 228.907 242.373 222.27 243.35C218.986 243.858 216.43 244.253 214.665 244.526C213.815 244.667 213.16 244.776 212.691 244.854C212.248 244.933 212.021 244.98 212.023 244.993C212.026 245.007 212.256 244.986 212.704 244.934C213.176 244.873 213.835 244.789 214.69 244.68C216.459 244.433 219.021 244.076 222.313 243.617C228.951 242.643 238.51 241.242 250.318 239.511C273.97 235.929 306.601 230.987 342.659 225.527C378.694 220.041 411.336 215.124 434.988 211.7C446.813 209.985 456.391 208.64 463.018 207.759C466.332 207.318 468.907 206.992 470.658 206.793C472.408 206.595 473.331 206.521 473.342 206.584C473.353 206.647 472.448 206.843 470.716 207.155C468.985 207.468 466.426 207.897 463.127 208.428C456.529 209.49 446.971 210.957 435.153 212.718C411.517 216.245 378.838 220.928 342.743 226.045Z" fill="#EBEBEB"/>
<path d="M389.952 322.607C385.652 317.72 379.704 314.777 375.571 313.654C371.7 312.602 365.832 311.643 359.858 313.05C356.147 313.924 352.898 315.613 350.2 318.069C347.004 320.979 344.563 324.991 342.947 329.994C342.704 330.745 342.785 331.539 343.174 332.232C343.565 332.928 344.215 333.43 345.004 333.644L355.153 336.403C356.585 336.792 358.117 336.095 358.716 334.781C360.062 331.83 363.459 327.167 371.091 329.106C376.907 330.585 378.114 335.277 378.363 337.227C378.769 340.401 377.475 343.682 374.902 346.002C370.948 349.568 365.788 348.876 363.064 348.146C359.931 347.307 356.671 349.068 355.795 352.073L352.721 362.62C352.272 364.161 353.205 365.766 354.8 366.2L364.688 368.888C366.283 369.322 367.945 368.421 368.395 366.88L369.041 364.664C369.056 364.612 369.104 364.575 369.162 364.571C371.624 364.421 376.5 363.767 381.505 361.075C387.895 357.639 392.23 352.139 394.39 344.73C397.481 334.127 393.682 326.846 389.952 322.607Z" fill="#E0E0E0"/>
<path d="M359.462 370.333L358.597 370.098C354.462 368.974 350.15 371.309 348.986 375.303C347.823 379.297 350.24 383.461 354.376 384.585L355.241 384.82C359.376 385.945 363.688 383.61 364.851 379.615C366.015 375.621 363.598 371.458 359.462 370.333Z" fill="#E0E0E0"/>
<path d="M411.747 264.189C408.761 262.609 405.354 262.253 403.161 262.446C401.108 262.627 398.116 263.206 395.522 264.937C393.911 266.013 392.675 267.396 391.849 269.05C390.871 271.009 390.463 273.362 390.638 276.043C390.665 276.446 390.854 276.812 391.172 277.075C391.491 277.339 391.897 277.464 392.316 277.427L397.7 276.952C398.46 276.885 399.061 276.28 399.098 275.545C399.183 273.894 399.925 271.06 403.948 270.637C407.014 270.317 408.481 272.35 408.971 273.24C409.767 274.687 409.77 276.487 408.978 278.054C407.762 280.461 405.159 281.043 403.716 281.176C402.057 281.327 400.83 282.748 400.98 284.342L401.509 289.937C401.587 290.754 402.337 291.358 403.183 291.284L408.429 290.822C409.275 290.747 409.9 290.022 409.823 289.205L409.712 288.029C409.709 288.001 409.725 287.975 409.752 287.963C410.902 287.456 413.114 286.279 415 284.104C417.408 281.327 418.44 277.927 418.069 273.997C417.537 268.372 414.338 265.559 411.747 264.189Z" fill="#F5F5F5"/>
<path d="M406.201 292.439L405.742 292.479C403.549 292.673 401.927 294.553 402.127 296.672C402.328 298.791 404.275 300.357 406.469 300.164L406.928 300.124C409.121 299.93 410.743 298.049 410.543 295.93C410.343 293.811 408.395 292.245 406.201 292.439Z" fill="#F5F5F5"/>
<path d="M196.148 144.738C194.125 142.813 191.476 141.777 189.671 141.449C187.981 141.142 185.443 140.948 182.953 141.765C181.407 142.273 180.088 143.112 179.035 144.257C177.787 145.613 176.904 147.411 176.412 149.602C176.338 149.93 176.403 150.266 176.597 150.547C176.79 150.83 177.087 151.019 177.432 151.082L181.864 151.887C182.49 152 183.115 151.647 183.319 151.065C183.776 149.759 185.042 147.648 188.369 148.195C190.904 148.614 191.602 150.568 191.785 151.39C192.082 152.727 191.66 154.172 190.654 155.254C189.109 156.918 186.884 156.812 185.694 156.6C184.327 156.357 183.007 157.226 182.752 158.538L181.855 163.144C181.724 163.816 182.184 164.467 182.88 164.593L187.199 165.377C187.895 165.503 188.568 165.059 188.699 164.387L188.887 163.419C188.892 163.396 188.911 163.379 188.935 163.375C189.978 163.221 192.03 162.764 194.057 161.435C196.645 159.737 198.276 157.237 198.906 154.001C199.807 149.37 197.904 146.408 196.148 144.738Z" fill="#F5F5F5"/>
<path d="M185.028 166.184L184.65 166.116C182.844 165.788 181.099 166.94 180.759 168.684C180.419 170.428 181.612 172.114 183.418 172.442L183.796 172.51C185.602 172.839 187.347 171.686 187.687 169.942C188.026 168.198 186.834 166.512 185.028 166.184Z" fill="#F5F5F5"/>
<path d="M403.726 146.209C400.746 144.618 397.342 144.249 395.148 144.434C393.094 144.607 390.1 145.175 387.499 146.896C385.883 147.965 384.642 149.344 383.809 150.995C382.823 152.95 382.405 155.301 382.569 157.984C382.594 158.386 382.782 158.753 383.098 159.017C383.417 159.283 383.823 159.409 384.241 159.374L389.627 158.92C390.387 158.856 390.99 158.253 391.031 157.518C391.123 155.866 391.876 153.036 395.901 152.629C398.968 152.32 400.427 154.359 400.913 155.25C401.703 156.701 401.699 158.501 400.901 160.065C399.674 162.468 397.07 163.039 395.626 163.166C393.966 163.312 392.732 164.728 392.877 166.322L393.383 171.919C393.456 172.737 394.205 173.343 395.052 173.272L400.299 172.829C401.145 172.758 401.773 172.035 401.699 171.217L401.593 170.041C401.591 170.013 401.607 169.987 401.634 169.975C402.786 169.472 405.002 168.305 406.898 166.137C409.317 163.37 410.363 159.973 410.008 156.042C409.5 150.416 406.311 147.589 403.726 146.209Z" fill="#EBEBEB"/>
<path d="M398.064 174.438L397.605 174.477C395.411 174.662 393.782 176.537 393.973 178.656C394.165 180.776 396.106 182.35 398.301 182.164L398.76 182.125C400.954 181.94 402.583 180.066 402.392 177.946C402.2 175.827 400.259 174.253 398.064 174.438Z" fill="#EBEBEB"/>
<path d="M241.806 315.348C238.077 313.651 233.933 313.464 231.299 313.853C228.831 314.218 225.26 315.131 222.257 317.408C220.392 318.822 219.004 320.582 218.132 322.639C217.1 325.076 216.786 327.949 217.203 331.177C217.265 331.662 217.522 332.091 217.926 332.386C218.332 332.683 218.833 332.805 219.336 332.73L225.806 331.773C226.719 331.638 227.399 330.864 227.389 329.973C227.366 327.972 228.047 324.494 232.876 323.698C236.556 323.092 238.485 325.445 239.145 326.485C240.218 328.178 240.359 330.353 239.521 332.303C238.234 335.299 235.134 336.187 233.4 336.45C231.407 336.753 230.032 338.556 230.335 340.472L231.401 347.195C231.557 348.177 232.511 348.853 233.528 348.704L239.831 347.771C240.848 347.621 241.548 346.7 241.393 345.718L241.169 344.305C241.163 344.271 241.181 344.238 241.213 344.222C242.564 343.527 245.147 341.948 247.26 339.185C249.958 335.658 250.946 331.475 250.198 326.752C249.124 319.992 245.042 316.819 241.806 315.348Z" fill="#EBEBEB"/>
<path d="M237.26 349.882L236.708 349.964C234.072 350.354 232.256 352.743 232.66 355.288C233.064 357.834 235.537 359.589 238.173 359.198L238.725 359.117C241.361 358.727 243.177 356.339 242.773 353.792C242.37 351.247 239.896 349.493 237.26 349.882Z" fill="#EBEBEB"/>
<path d="M185.073 188.112C179.829 185.739 174.007 185.484 170.306 186.038C166.84 186.557 161.824 187.848 157.612 191.054C154.995 193.045 153.05 195.521 151.83 198.413C150.385 201.84 149.954 205.877 150.547 210.411C150.636 211.092 150.997 211.694 151.566 212.108C152.137 212.523 152.84 212.694 153.547 212.588L162.634 211.228C163.917 211.037 164.87 209.947 164.854 208.695C164.815 205.883 165.763 200.996 172.545 199.864C177.714 199.005 180.431 202.306 181.36 203.766C182.872 206.142 183.075 209.197 181.904 211.939C180.104 216.151 175.75 217.406 173.315 217.78C170.514 218.209 168.587 220.747 169.019 223.438L170.535 232.882C170.756 234.261 172.098 235.21 173.526 234.996L182.38 233.671C183.808 233.457 184.79 232.161 184.569 230.782L184.25 228.798C184.243 228.75 184.267 228.705 184.312 228.681C186.209 227.701 189.833 225.477 192.795 221.591C196.577 216.629 197.954 210.75 196.89 204.116C195.366 194.62 189.623 190.172 185.073 188.112Z" fill="#EBEBEB"/>
<path d="M178.775 236.643L178.001 236.759C174.298 237.313 171.752 240.673 172.326 244.249C172.9 247.826 176.379 250.284 180.082 249.73L180.856 249.614C184.559 249.06 187.105 245.7 186.531 242.124C185.957 238.548 182.478 236.089 178.775 236.643Z" fill="#EBEBEB"/>
<path d="M313.065 128.295L319.915 129.398C323.283 133.285 327.892 136.26 333.421 137.681C346.461 141.032 360.258 134.117 364.953 121.9C370.379 107.783 362.093 92.1932 346.911 88.3016C334.022 84.9978 320.384 91.7029 315.549 103.705C313.15 109.662 313.22 115.9 315.23 121.43L315.222 121.418L313.065 128.295Z" fill="white"/>
<path d="M313.065 128.295C313.065 128.295 313.1 128.151 313.187 127.858C313.279 127.549 313.41 127.111 313.579 126.543C313.939 125.358 314.464 123.63 315.143 121.396L315.19 121.241L315.285 121.374L315.294 121.386L315.152 121.456C314.057 118.468 313.125 114.207 313.904 109.179C314.281 106.678 315.112 104.03 316.451 101.404C317.812 98.7912 319.752 96.2398 322.261 94.0275C324.777 91.8285 327.871 89.9898 331.372 88.7919C334.864 87.6014 338.773 87.0061 342.744 87.4164C346.708 87.7929 350.706 89.0679 354.289 91.2009C357.889 93.3141 360.964 96.4101 363.165 100.068C364.33 101.896 365.107 103.9 365.771 105.897C365.923 106.401 366.021 106.918 366.148 107.426C366.251 107.938 366.424 108.437 366.468 108.957C366.533 109.473 366.598 109.988 366.662 110.501L366.754 111.269L366.767 112.041C366.922 116.151 366.012 120.165 364.361 123.704C362.722 127.264 360.182 130.247 357.329 132.574C354.46 134.901 351.218 136.55 347.954 137.529C344.682 138.497 341.4 138.81 338.363 138.609C337.607 138.524 336.863 138.44 336.132 138.358C335.404 138.259 334.704 138.073 334.009 137.939C332.622 137.648 331.327 137.208 330.112 136.735C325.235 134.8 321.928 131.855 319.855 129.447L319.902 129.472C317.695 129.098 315.981 128.807 314.802 128.607C314.238 128.509 313.805 128.433 313.496 128.379C313.205 128.327 313.065 128.295 313.065 128.295C313.065 128.295 313.229 128.313 313.531 128.356C313.845 128.402 314.287 128.468 314.861 128.553C316.032 128.731 317.735 128.99 319.927 129.323L319.956 129.328L319.975 129.35C322.063 131.723 325.367 134.619 330.208 136.509C331.413 136.971 332.698 137.401 334.073 137.682C334.762 137.811 335.455 137.993 336.176 138.087C336.899 138.166 337.635 138.245 338.383 138.327C341.386 138.512 344.628 138.192 347.857 137.226C351.078 136.249 354.273 134.613 357.098 132.31C359.908 130.008 362.408 127.063 364.017 123.552C365.639 120.061 366.531 116.104 366.375 112.055L366.362 111.295L366.271 110.537C366.207 110.032 366.143 109.525 366.079 109.017C366.035 108.506 365.863 108.014 365.762 107.51C365.636 107.01 365.54 106.5 365.391 106.003C364.735 104.036 363.97 102.063 362.822 100.262C360.653 96.6582 357.627 93.6069 354.08 91.5231C350.552 89.4195 346.612 88.1585 342.707 87.7819C338.794 87.3716 334.938 87.9522 331.49 89.1193C328.034 90.2937 324.974 92.1008 322.482 94.2653C319.997 96.4431 318.072 98.9571 316.715 101.535C315.38 104.126 314.544 106.743 314.156 109.218C313.357 114.192 314.248 118.426 315.303 121.406L315.495 121.95L315.161 121.475L315.152 121.464L315.295 121.442C314.584 123.646 314.034 125.35 313.656 126.517C313.468 127.09 313.325 127.529 313.222 127.84C313.125 128.137 313.065 128.295 313.065 128.295Z" fill="#263238"/>
<path d="M345.778 101.214C343.751 99.9164 341.349 99.4657 339.776 99.476C338.304 99.4855 336.138 99.7241 334.185 100.805C332.971 101.477 332.006 102.39 331.315 103.519C330.497 104.856 330.061 106.507 330.019 108.426C330.013 108.713 330.124 108.985 330.334 109.19C330.545 109.397 330.827 109.51 331.127 109.508L334.988 109.482C335.533 109.478 335.998 109.083 336.071 108.561C336.233 107.391 336.939 105.418 339.827 105.35C342.029 105.3 342.947 106.832 343.241 107.493C343.717 108.57 343.608 109.851 342.946 110.921C341.93 112.563 340.042 112.826 339.007 112.836C337.817 112.848 336.855 113.788 336.863 114.931L336.891 118.944C336.895 119.53 337.392 120.003 338 119.999L341.762 119.974C342.368 119.971 342.858 119.491 342.854 118.904L342.848 118.061C342.848 118.04 342.861 118.023 342.881 118.016C343.731 117.722 345.378 117.013 346.856 115.575C348.742 113.738 349.688 111.379 349.669 108.56C349.638 104.528 347.536 102.339 345.778 101.214Z" fill="#A0C49D"/>
<path d="M340.073 120.997L339.744 120.999C338.171 121.009 336.899 122.254 336.91 123.774C336.92 125.293 338.209 126.521 339.783 126.511L340.112 126.508C341.685 126.498 342.956 125.253 342.946 123.734C342.935 122.215 341.646 120.987 340.073 120.997Z" fill="#A0C49D"/>
<path d="M350.557 161.382C332.612 149.726 311.277 145.573 297.294 145.573C284.198 145.573 264.926 147.568 247.483 157.07C236.65 162.972 228.006 171.035 221.792 181.036C214.431 192.881 210.447 207.538 209.951 224.599C209.876 227.159 210.855 229.581 212.708 231.421C214.569 233.27 217.064 234.288 219.735 234.288H254.073C258.918 234.288 263.083 230.797 263.76 226.167C265.283 215.768 271.674 198.258 297.37 197.83C316.946 197.505 325.023 211.191 327.587 217.092C331.76 226.694 330.703 238.08 324.756 247.55C315.618 262.1 298.809 264.327 289.603 264.36C279.016 264.397 270.403 272.698 270.403 282.863V318.549C270.403 323.76 274.792 328 280.188 328H313.644C319.04 328 323.429 323.76 323.429 318.549V311.051C323.429 310.871 323.546 310.715 323.725 310.654C331.304 308.086 345.994 301.881 359.225 289.175C376.117 272.956 384.682 252.022 384.682 226.955C384.682 191.08 366.125 171.495 350.557 161.382Z" fill="#051B1D"/>
<path d="M296.075 344.646H298.775C312.061 344.646 322.871 355.086 322.871 367.917C322.871 380.749 312.061 391.189 298.775 391.189H296.075C282.788 391.189 271.979 380.749 271.979 367.917C271.979 355.085 282.788 344.646 296.075 344.646Z" fill="#A0C49D"/>
<path d="M280.06 334.9H313.502C318.895 334.9 323.284 330.795 323.284 325.748V311.159C323.284 310.985 323.4 310.833 323.579 310.775C327.532 309.477 333.062 307.097 339.32 303.383C317.953 303.238 279.007 303.027 270.277 303.335V325.748C270.278 330.795 274.666 334.9 280.06 334.9Z" fill="#263238"/>
<path d="M307.604 173.239L286.143 113.051C281.612 97.98 268.753 87.9661 253.28 92.7591L251.877 93.2824C237.757 98.5511 230.187 113.406 234.49 127.422C238.493 140.463 243.089 154.822 245.891 161.575C251.69 175.554 266.871 171.63 266.871 171.63C266.904 171.619 270.25 180.948 271.713 185.135L279.572 192.636L282.819 189.21L307.604 173.239Z" fill="#FFBF9D"/>
<path d="M266.87 171.63C266.87 171.63 276.244 168.73 283.643 159.157C283.643 159.157 283.311 171.417 268.293 175.568L266.87 171.63Z" fill="#B4907F"/>
<path d="M244.989 136.927C245.374 138.001 246.633 138.571 247.801 138.203C248.967 137.836 249.603 136.67 249.219 135.596C248.834 134.522 247.575 133.95 246.408 134.317C245.24 134.684 244.605 135.853 244.989 136.927Z" fill="#263238"/>
<path d="M239.825 131.79C240.186 131.955 241.31 130.244 243.548 129.416C245.77 128.557 247.855 129.056 247.991 128.701C248.063 128.539 247.612 128.165 246.697 127.929C245.794 127.692 244.401 127.653 243.011 128.178C241.621 128.705 240.648 129.637 240.178 130.395C239.695 131.16 239.651 131.721 239.825 131.79Z" fill="#263238"/>
<path d="M263.676 129.77C264.039 129.935 265.165 128.224 267.4 127.396C269.623 126.538 271.707 127.036 271.844 126.681C271.916 126.519 271.468 126.145 270.55 125.91C269.647 125.672 268.253 125.634 266.863 126.158C265.474 126.686 264.501 127.618 264.03 128.375C263.549 129.141 263.504 129.701 263.676 129.77Z" fill="#263238"/>
<path d="M260.55 143.694C260.512 143.567 259.03 143.854 256.667 144.415C256.074 144.571 255.49 144.664 255.243 144.323C254.95 143.975 254.951 143.292 254.97 142.547C254.973 141.013 254.976 139.405 254.979 137.72C254.932 130.87 254.663 125.324 254.378 125.327C254.092 125.333 253.898 130.887 253.944 137.738C253.97 139.422 253.992 141.028 254.017 142.563C254.052 143.27 253.964 144.119 254.586 144.837C254.904 145.192 255.443 145.334 255.847 145.293C256.256 145.264 256.579 145.151 256.868 145.062C259.182 144.334 260.591 143.82 260.55 143.694Z" fill="#263238"/>
<path d="M258.508 117.634C259.033 118.072 260.969 116.683 263.587 115.644C266.184 114.552 268.564 114.177 268.605 113.509C268.613 113.195 267.969 112.865 266.861 112.766C265.762 112.663 264.204 112.842 262.639 113.48C261.077 114.12 259.859 115.075 259.169 115.909C258.472 116.746 258.268 117.422 258.508 117.634Z" fill="#263238"/>
<path d="M237.183 125.482C237.839 125.808 239.473 124.644 241.665 123.835C243.831 122.964 245.855 122.717 246.087 122.048C246.179 121.731 245.697 121.342 244.705 121.165C243.724 120.986 242.237 121.085 240.739 121.661C239.242 122.239 238.102 123.154 237.53 123.931C236.946 124.716 236.885 125.315 237.183 125.482Z" fill="#263238"/>
<path d="M288.877 123.213C289.083 123.017 297.728 116.63 301.252 126.351C304.775 136.072 293.944 137.484 293.825 137.212C293.707 136.938 288.877 123.213 288.877 123.213Z" fill="#FFBF9D"/>
<path d="M295.565 132.489C295.598 132.443 295.783 132.548 296.127 132.579C296.462 132.609 296.991 132.529 297.447 132.162C298.374 131.425 298.679 129.492 298.092 127.723C297.797 126.83 297.299 126.053 296.722 125.465C296.157 124.858 295.501 124.521 294.932 124.611C294.356 124.673 294.089 125.11 294.065 125.425C294.029 125.742 294.163 125.915 294.116 125.95C294.097 125.984 293.841 125.86 293.776 125.431C293.748 125.223 293.782 124.954 293.951 124.688C294.124 124.416 294.444 124.2 294.831 124.113C295.626 123.902 296.574 124.356 297.209 125C297.887 125.634 298.467 126.501 298.799 127.504C299.444 129.485 299.071 131.669 297.763 132.568C297.119 132.986 296.454 132.979 296.066 132.852C295.668 132.717 295.536 132.518 295.565 132.489Z" fill="#B4907F"/>
<path d="M268.147 142.714C267.792 142.807 268.565 145.051 267.129 147.285C265.698 149.524 263.135 150.071 263.225 150.391C263.242 150.543 263.928 150.649 264.983 150.339C266.019 150.041 267.405 149.24 268.285 147.873C269.159 146.504 269.229 145.033 268.99 144.088C268.753 143.122 268.302 142.65 268.147 142.714Z" fill="#263238"/>
<path d="M209.357 120.595C209.309 119.969 209.568 119.351 209.987 118.87C210.899 117.821 212.258 117.457 213.534 117C216.707 115.865 219.585 113.999 221.922 111.635C220.754 111.487 219.611 111.213 218.547 110.722C216.35 109.709 214.541 107.628 214.519 105.277C214.516 104.836 214.602 104.342 214.969 104.08C215.552 103.663 216.35 104.088 216.985 104.425C219.072 105.532 220.71 105.755 222.865 104.777C224.203 104.169 225.438 103.411 226.29 102.383C226.318 102.325 226.339 102.263 226.367 102.205C226.7 101.505 227.029 100.834 227.356 100.181C227.356 100.179 227.358 100.178 227.358 100.175L227.357 100.179C229.819 95.2665 232.157 91.6478 235.032 89.2051C239.247 85.6246 247.177 82.0559 252.771 81.6111C258.365 81.1663 264.427 83.6135 266.987 88.4373C269.004 85.1152 273.322 83.6685 277.315 83.8359L277.39 83.7691C281.774 83.7845 285.436 87.006 287.985 90.4507C288.125 90.6393 288.257 90.8331 288.393 91.0239C290.446 92.5925 292.865 93.7104 295.438 94.1845C295.892 94.2682 296.418 94.3805 296.616 94.7835C296.813 95.1828 296.576 95.6496 296.313 96.0122C295.614 96.9759 294.682 97.7701 293.622 98.35C294.311 99.1405 295.052 99.884 295.878 100.554C296.58 101.124 297.416 101.807 297.305 102.686C297.219 103.365 296.545 103.862 295.849 103.994C295.154 104.126 294.438 103.972 293.747 103.819C294.548 104.676 295.348 105.533 296.149 106.389C294.827 107.106 293.328 107.493 291.813 107.558C292.294 111.427 294.096 118.282 294.027 121.039C291.374 121.993 290.623 121.933 289.433 122.824C287.895 123.975 289.645 126.726 287.07 126.652C285.759 126.613 282.447 122.993 281.646 121.988C276.336 115.327 272.542 107.548 270.594 99.3548C268.374 98.2428 265.932 97.5485 263.443 97.3209L263.672 97.4134C259.056 97.4332 253.909 97.6593 250.687 100.852C248.188 103.329 247.515 106.968 246.135 110.159C243.52 116.206 239.558 120.306 233.261 122.748C234.249 127.233 236.637 134.305 237.88 138.381L231.419 131.575L231.429 131.608C230.971 131.235 230.563 130.843 230.162 130.446L230.031 130.329L230.025 130.311C229.385 129.673 228.762 129.028 228.029 128.431C228.02 128.447 228.011 128.462 228.002 128.478C226.454 131.155 222.079 129.356 222.999 126.422C223.182 125.84 223.452 125.285 223.808 124.781C223.122 126.06 221.754 127.027 220.263 127.085C218.772 127.144 217.248 126.184 216.871 124.789C216.613 123.837 216.996 122.778 217.727 122.118C215.963 122.87 213.969 123.12 212.071 122.787C210.825 122.568 209.465 121.975 209.357 120.595Z" fill="#263238"/>
<path d="M262.95 91.6456C262.934 91.6926 263.704 91.8115 264.903 92.4472C266.092 93.0813 267.634 94.3644 268.885 96.399C269.513 97.4075 270.102 98.5746 270.579 99.884C271.062 101.191 271.465 102.631 271.9 104.143C272.34 105.655 272.8 107.253 273.491 108.843C273.836 109.637 274.238 110.427 274.721 111.19C275.201 111.936 275.742 112.741 276.63 113.222C277.341 113.618 278.276 113.583 278.953 113.19C279.643 112.814 280.159 112.213 280.45 111.534C281.008 110.145 280.75 108.71 280.55 107.437L280.254 107.578C281.15 108.478 282.055 109.362 283.131 109.947C284.197 110.542 285.448 110.749 286.545 110.479C287.091 110.344 287.595 110.082 287.969 109.706C288.353 109.33 288.555 108.844 288.642 108.373C288.717 107.899 288.672 107.421 288.495 107.007C288.316 106.594 287.999 106.251 287.619 106.062L287.511 106.25C289.102 107.112 290.545 107.376 291.51 107.466C291.996 107.51 292.371 107.507 292.624 107.5C292.876 107.488 293.005 107.474 293.005 107.465C293.005 107.454 292.874 107.448 292.624 107.441C292.373 107.429 292.001 107.412 291.523 107.351C290.573 107.228 289.162 106.934 287.622 106.065L287.515 106.252C288.195 106.591 288.549 107.471 288.384 108.332C288.298 108.758 288.109 109.193 287.768 109.517C287.432 109.847 286.973 110.084 286.472 110.202C285.462 110.44 284.294 110.244 283.291 109.675C282.272 109.113 281.393 108.252 280.503 107.347L280.125 106.963L280.207 107.489C280.407 108.761 280.63 110.146 280.117 111.403C279.857 112.011 279.381 112.557 278.777 112.884C278.176 113.224 277.419 113.25 276.802 112.913C276.029 112.499 275.5 111.743 275.028 111.008C274.557 110.264 274.161 109.491 273.82 108.711C273.137 107.149 272.672 105.564 272.224 104.057C271.78 102.547 271.365 101.105 270.863 99.7857C270.367 98.4645 269.756 97.2857 269.103 96.2691C267.805 94.219 266.201 92.9345 264.971 92.3283C263.729 91.7176 262.95 91.6456 262.95 91.6456Z" fill="#455A64"/>
<path d="M222.457 120.977C222.454 120.982 222.507 121.002 222.61 121.034C222.735 121.07 222.887 121.114 223.072 121.167C223.275 121.229 223.529 121.295 223.837 121.341C224.142 121.395 224.494 121.468 224.898 121.492C226.494 121.654 228.914 121.531 231.599 120.442C234.261 119.37 237.181 117.333 239.328 114.25C241.524 111.207 243.007 107.319 243.86 103.156C244.304 101.07 244.532 99.0084 244.899 97.0516C245.26 95.0954 245.766 93.2289 246.61 91.6038C247.437 89.9773 248.582 88.5944 249.945 87.674C250.619 87.2013 251.361 86.8937 252.091 86.664C252.831 86.4541 253.571 86.3616 254.278 86.3469C255.697 86.3264 256.967 86.6552 257.998 87.0875C259.034 87.525 259.827 88.0894 260.419 88.6032C261.565 89.6822 261.908 90.5087 261.956 90.4764C261.962 90.4735 261.939 90.425 261.89 90.3311C261.828 90.2195 261.753 90.0844 261.661 89.9193C261.451 89.5633 261.079 89.0693 260.517 88.5041C259.931 87.9654 259.133 87.3723 258.081 86.9069C257.034 86.4475 255.737 86.0922 254.275 86.0973C253.546 86.1047 252.781 86.192 252.011 86.4027C251.251 86.6324 250.472 86.9503 249.771 87.434C248.35 88.3771 247.163 89.7989 246.308 91.4585C245.435 93.1188 244.915 95.0198 244.548 96.9899C244.173 98.9629 243.942 101.02 243.503 103.087C242.656 107.22 241.197 111.06 239.05 114.066C236.951 117.112 234.107 119.125 231.498 120.213C228.869 121.314 226.492 121.473 224.911 121.355C223.315 121.231 222.468 120.927 222.457 120.977Z" fill="#455A64"/>
<path d="M218.837 115.185C218.833 115.209 219.066 115.27 219.495 115.36C219.922 115.458 220.554 115.543 221.338 115.595C222.122 115.653 223.063 115.637 224.1 115.538C225.134 115.421 226.263 115.211 227.413 114.866C228.559 114.509 229.607 114.052 230.522 113.573C231.429 113.077 232.207 112.568 232.815 112.085C233.424 111.606 233.89 111.185 234.181 110.868C234.478 110.555 234.633 110.376 234.614 110.359C234.565 110.312 233.899 110.993 232.657 111.887C232.039 112.339 231.26 112.817 230.361 113.288C229.455 113.742 228.424 114.18 227.301 114.53C226.175 114.868 225.071 115.083 224.059 115.216C223.044 115.33 222.121 115.372 221.348 115.347C219.8 115.306 218.85 115.12 218.837 115.185Z" fill="#455A64"/>
<path d="M246.401 216.931C246.27 216.967 247.993 225.3 249.68 233.943H250.213C248.526 225.3 246.533 216.894 246.401 216.931Z" fill="#263238"/>
<path d="M253.683 234.36C258.56 234.36 263.05 230.966 263.732 226.343C265.265 215.959 271.401 198.382 297.266 197.954C316.971 197.63 325.264 211.1 327.587 217.091C331.276 226.602 330.817 238.146 324.832 247.602C315.634 262.13 298.714 264.354 289.448 264.387C278.791 264.425 270.121 272.713 270.121 282.864V321.665L323.499 320.695V311.01C323.499 310.83 323.616 310.676 323.797 310.615C330.298 308.429 340.607 304.285 352.206 295.252L348.731 250.566C348.731 250.566 358.89 231.71 358.386 227.468C353.787 188.71 340.139 166.78 334.592 164.734C328.363 162.438 304.317 163.556 304.317 163.556C304.317 163.556 293.932 182.14 279.362 184.199C271.255 185.345 268.294 175.567 268.294 175.567L249.462 186.23C236.06 192.759 233.459 218.161 233.213 234.36H253.683Z" fill="#455A64"/>
<g opacity="0.3">
<path d="M315.541 257.191C326.3 259.836 336.907 263.182 347.667 265.828C348.465 266.024 349.315 266.25 349.854 266.852C350.646 267.738 350.468 269.083 350.113 270.202C348.982 273.775 346.54 276.862 343.635 279.327C341.294 281.313 338.49 282.989 335.383 283.223C331.923 283.484 328.598 281.934 325.672 280.132C318.192 275.521 311.809 268.785 307.798 261.141C307.798 261.141 310.32 260.138 312.251 259.142C314.044 258.216 315.541 257.191 315.541 257.191Z" fill="black"/>
</g>
<path d="M327.367 217.361C331.67 226.948 330.578 238.318 324.448 247.774C321.046 253.023 316.714 256.769 311.989 259.282C317.078 264.629 322.243 269.339 327.35 272.839C332.845 276.606 345.512 275.535 350.314 267.29C356.239 257.116 356.735 231.127 356.735 231.127C357.86 215.459 357.86 215.459 357.86 215.459L324.726 210.557L324.46 211.434C325.882 213.493 326.719 215.916 327.367 217.361Z" fill="#FFBF9D"/>
<path d="M269.672 210.777L267.785 213.649C266.351 214.605 264.986 214.08 264.1 212.304L243.703 182.32L248.672 179.268L271.2 208.022C271.2 208.022 271.518 209.547 269.672 210.777Z" fill="#455A64"/>
<path d="M222.548 181.806C218.555 179.629 215.206 176.273 213.133 171.959C210.58 166.646 210.323 160.691 212.408 155.19C214.494 149.69 218.671 145.302 224.174 142.837C235.53 137.747 249.058 142.53 254.328 153.499C256.881 158.812 257.138 164.768 255.053 170.269C252.968 175.769 248.79 180.156 243.288 182.622C236.397 185.709 228.707 185.163 222.548 181.806ZM244.165 144.93C238.418 141.798 231.243 141.288 224.814 144.169C219.681 146.47 215.782 150.563 213.836 155.695C211.891 160.827 212.131 166.384 214.513 171.342C216.894 176.3 221.132 180.065 226.447 181.944C231.761 183.823 237.514 183.591 242.648 181.291C247.781 178.99 251.68 174.897 253.624 169.765C255.571 164.632 255.33 159.076 252.948 154.118C251.015 150.093 247.889 146.961 244.165 144.93Z" fill="#263238"/>
<path d="M223.515 180.886C219.522 178.71 216.173 175.353 214.1 171.039C211.548 165.727 211.29 159.771 213.375 154.271C215.461 148.77 219.639 144.383 225.141 141.917C236.498 136.828 250.025 141.61 255.295 152.58C257.848 157.894 258.105 163.849 256.02 169.35C253.936 174.85 249.757 179.238 244.256 181.703C237.364 184.79 229.674 184.243 223.515 180.886ZM245.131 144.01C239.384 140.877 232.21 140.368 225.78 143.249C220.647 145.549 216.748 149.643 214.803 154.775C212.857 159.907 213.097 165.464 215.479 170.421C217.861 175.38 222.099 179.144 227.413 181.023C232.727 182.902 238.48 182.67 243.614 180.37C248.747 178.07 252.646 173.976 254.591 168.844C256.537 163.712 256.296 158.155 253.915 153.197C251.982 149.173 248.857 146.04 245.131 144.01Z" fill="#455A64"/>
<path d="M253.583 162.117C253.575 162.117 253.567 161.992 253.56 161.757C253.542 161.521 253.57 161.173 253.517 160.728C253.465 159.836 253.258 158.55 252.764 157.027C252.522 156.265 252.177 155.455 251.77 154.604C251.329 153.769 250.844 152.88 250.217 152.015C249.606 151.143 248.903 150.264 248.085 149.431C247.273 148.596 246.374 147.778 245.359 147.057C244.35 146.332 243.288 145.727 242.216 145.235C241.138 144.754 240.051 144.397 238.998 144.123C236.881 143.608 234.898 143.467 233.25 143.56C231.6 143.648 230.278 143.899 229.387 144.139C228.934 144.237 228.599 144.367 228.363 144.427C228.129 144.494 228.004 144.527 228.001 144.519C227.998 144.511 228.117 144.464 228.346 144.382C228.578 144.308 228.91 144.163 229.361 144.051C230.248 143.783 231.575 143.505 233.24 143.394C234.903 143.279 236.908 143.404 239.054 143.913C240.121 144.185 241.224 144.542 242.317 145.026C243.405 145.522 244.483 146.134 245.506 146.87C246.533 147.599 247.442 148.428 248.26 149.275C249.084 150.118 249.791 151.009 250.404 151.895C251.033 152.771 251.516 153.673 251.953 154.52C252.357 155.383 252.695 156.205 252.93 156.978C253.407 158.522 253.589 159.825 253.612 160.723C253.653 161.172 253.608 161.522 253.61 161.758C253.6 161.994 253.592 162.117 253.583 162.117Z" fill="white"/>
<path d="M229.89 179.968C229.906 179.914 230.942 180.286 232.691 180.517C232.911 180.543 233.14 180.569 233.378 180.597C233.617 180.623 233.868 180.623 234.127 180.639C234.644 180.679 235.198 180.653 235.779 180.642C236.941 180.575 238.212 180.405 239.513 180.075C240.809 179.729 241.997 179.258 243.037 178.752C243.545 178.479 244.038 178.233 244.464 177.948C244.679 177.809 244.897 177.687 245.09 177.549C245.281 177.409 245.465 177.275 245.642 177.146C247.034 176.098 247.737 175.273 247.779 175.312C247.792 175.322 247.615 175.525 247.284 175.884C247.121 176.067 246.915 176.282 246.651 176.51C246.39 176.74 246.107 177.02 245.749 177.277C245.574 177.411 245.391 177.551 245.201 177.696C245.008 177.84 244.792 177.968 244.576 178.112C244.15 178.408 243.655 178.664 243.142 178.945C242.095 179.469 240.891 179.952 239.577 180.303C238.259 180.638 236.968 180.803 235.79 180.859C235.201 180.864 234.64 180.883 234.117 180.834C233.855 180.814 233.602 180.809 233.361 180.778C233.12 180.745 232.889 180.713 232.668 180.682C232.225 180.634 231.835 180.529 231.49 180.456C231.143 180.388 230.852 180.301 230.616 180.222C230.142 180.073 229.884 179.983 229.89 179.968Z" fill="white"/>
<path d="M245.512 165.923C245.464 165.968 242.504 163.106 238.902 159.533C235.299 155.957 232.418 153.023 232.466 152.978C232.514 152.932 235.473 155.794 239.076 159.369C242.679 162.943 245.56 165.878 245.512 165.923Z" fill="white"/>
<path d="M242.018 171.667C242.012 171.672 241.937 171.602 241.802 171.464C241.652 171.305 241.459 171.103 241.22 170.851C240.7 170.292 239.982 169.52 239.103 168.576C237.319 166.654 234.846 164.006 232.082 161.109C229.316 158.212 226.783 155.617 224.944 153.743C224.041 152.821 223.303 152.067 222.769 151.521C222.528 151.271 222.335 151.068 222.183 150.911C222.052 150.769 221.985 150.693 221.991 150.687C221.997 150.681 222.075 150.747 222.218 150.878C222.378 151.028 222.582 151.22 222.836 151.457C223.37 151.964 224.132 152.705 225.068 153.628C226.939 155.473 229.493 158.051 232.26 160.95C235.026 163.848 237.48 166.515 239.232 168.467C240.109 169.442 240.812 170.236 241.291 170.791C241.516 171.055 241.698 171.268 241.839 171.433C241.962 171.581 242.024 171.661 242.018 171.667Z" fill="white"/>
<g opacity="0.3">
<path d="M223.504 144.809L251.383 174.058C251.383 174.058 249.127 177.106 247.06 178.432L218.592 148.5C218.592 148.5 220.644 146.112 223.504 144.809Z" fill="white"/>
</g>
<g opacity="0.3">
<path d="M216.195 151.873L243.615 180.369C243.615 180.369 243.87 180.504 241.981 180.965L215.421 153.319C215.421 153.319 215.56 152.626 216.195 151.873Z" fill="white"/>
</g>
<path d="M288.374 198.89C282.517 194.348 268.165 183.239 267.509 182.943C266.684 182.57 254.052 178.236 251.632 179.628C249.212 181.02 242.725 188.885 242.725 188.885C242.725 188.885 243.341 193.777 248.999 190.276C253.317 187.606 253.986 187.191 254.062 187.144C254.058 187.147 254.054 187.149 254.054 187.149L260.069 188.506C260.069 188.506 252.732 191.466 251.18 193.022C249.628 194.578 247.174 200.536 248.705 201.908C250.236 203.28 252.013 203.397 252.013 203.397C252.013 203.397 248.985 207.552 254.357 210.06C254.357 210.06 255.141 213.552 257.792 214.921C260.442 216.289 265.379 215.805 265.379 215.805C265.379 215.805 267.669 214.497 265.968 212.329C264.268 210.161 261.13 209.861 261.13 209.861L265.018 207.67C265.018 207.67 267.042 208.268 270.039 210.504C270.039 210.504 273.59 206.114 277.135 203.633C281.114 200.848 288.374 198.89 288.374 198.89Z" fill="#FFBF9D"/>
<path d="M263.478 200.735C263.476 200.718 263.27 200.722 262.9 200.768C262.531 200.813 262 200.916 261.363 201.112C260.097 201.495 258.397 202.344 257.004 203.807C255.61 205.27 254.878 206.977 254.588 208.228C254.438 208.857 254.378 209.376 254.362 209.736C254.345 210.095 254.359 210.294 254.376 210.295C254.431 210.299 254.442 209.5 254.785 208.277C255.119 207.061 255.863 205.416 257.215 203.995C258.569 202.574 260.203 201.721 261.43 201.297C262.664 200.865 263.487 200.787 263.478 200.735Z" fill="#B4907F"/>
<path d="M263.736 194.413C263.734 194.394 263.515 194.41 263.119 194.455C262.921 194.475 262.679 194.506 262.403 194.568C262.127 194.627 261.807 194.677 261.467 194.783C260.777 194.959 259.977 195.247 259.122 195.636C258.275 196.04 257.377 196.554 256.508 197.193C255.646 197.841 254.902 198.548 254.281 199.236C253.673 199.936 253.181 200.609 252.828 201.208C252.636 201.499 252.503 201.784 252.374 202.027C252.241 202.27 252.148 202.487 252.077 202.667C251.931 203.025 251.859 203.225 251.877 203.232C251.93 203.254 252.251 202.461 253.001 201.31C253.37 200.731 253.872 200.081 254.48 199.403C255.1 198.737 255.836 198.049 256.682 197.412C257.536 196.785 258.517 196.08 259.343 195.67C260.177 195.275 260.85 195.167 261.523 194.97C262.87 194.566 263.745 194.467 263.736 194.413Z" fill="#B4907F"/>
<path d="M264.835 187.152C264.843 187.122 264.54 187.008 264.018 186.975C263.5 186.939 262.763 187.017 262.025 187.319C261.025 187.731 260.673 188.134 260.384 188.466C260.047 188.851 259.921 189.141 259.949 189.157C260.016 189.215 260.714 188.141 262.137 187.574C263.547 186.979 264.831 187.239 264.835 187.152Z" fill="#B4907F"/>
<path d="M332.255 164.149C332.255 164.149 350.791 165.867 356.676 181.42C361.346 193.766 363.884 230.75 362.713 231.503L329.986 230.493C329.555 221.474 327.041 214.521 323.516 210.021L332.255 164.149Z" fill="#455A64"/>
<path d="M330.488 230.493C330.503 230.471 330.731 230.595 331.13 230.838C331.531 231.08 332.094 231.454 332.773 231.937C334.134 232.902 335.935 234.345 337.753 236.11C339.575 237.874 341.066 239.612 342.089 240.906C342.599 241.555 343 242.088 343.26 242.468C343.523 242.846 343.659 243.062 343.637 243.078C343.588 243.112 342.943 242.323 341.87 241.074C340.796 239.828 339.28 238.13 337.473 236.379C335.668 234.627 333.912 233.164 332.602 232.15C331.294 231.135 330.453 230.542 330.488 230.493Z" fill="#B4907F"/>
<path d="M326.59 192.45C326.698 192.467 326.097 196.415 325.248 201.267C324.4 206.12 323.624 210.039 323.516 210.021C323.409 210.004 324.009 206.056 324.858 201.203C325.707 196.351 326.482 192.432 326.59 192.45Z" fill="#263238"/>
<path d="M285.401 303.359C285.401 303.346 285.588 303.319 285.945 303.28C286.341 303.241 286.861 303.19 287.51 303.127C288.913 302.999 290.869 302.82 293.266 302.601C298.125 302.15 304.832 301.473 312.22 300.573C319.61 299.669 326.282 298.711 331.104 297.979C333.482 297.615 335.422 297.318 336.814 297.104C337.458 297.009 337.974 296.934 338.368 296.876C338.724 296.828 338.912 296.809 338.915 296.821C338.917 296.835 338.734 296.879 338.382 296.951C337.991 297.027 337.479 297.127 336.84 297.251C335.5 297.505 333.555 297.846 331.148 298.246C326.335 299.047 319.665 300.048 312.269 300.953C304.875 301.855 298.157 302.489 293.289 302.871C290.855 303.063 288.884 303.2 287.52 303.276C286.87 303.31 286.348 303.336 285.949 303.357C285.591 303.371 285.402 303.372 285.401 303.359Z" fill="#263238"/>
<path d="M282.508 298.634C282.508 298.608 282.988 298.568 283.857 298.516C284.791 298.469 286.034 298.405 287.539 298.327C290.709 298.17 294.973 297.959 299.685 297.726C304.397 297.462 308.66 297.224 311.828 297.046C313.334 296.965 314.576 296.897 315.51 296.846C316.379 296.805 316.862 296.795 316.863 296.821C316.866 296.848 316.388 296.908 315.521 296.995C314.655 297.082 313.4 297.192 311.848 297.315C308.744 297.563 304.453 297.856 299.706 298.107C294.962 298.357 290.663 298.517 287.55 298.597C285.994 298.637 284.734 298.66 283.863 298.665C282.991 298.67 282.509 298.661 282.508 298.634Z" fill="#263238"/>
<path d="M230.383 231.711C230.503 231.261 230.699 230.838 230.975 230.456C231.523 229.698 232.352 229.12 233.29 228.913C234.85 228.57 236.597 229.275 237.441 230.588C237.384 229.587 238.203 228.654 239.205 228.39C240.206 228.126 240.983 228.498 241.782 229.138C242.581 229.779 242.785 230.288 243.109 231.241C243.907 229.511 248.006 229.723 248.505 231.02C248.505 231.02 252.032 227.292 253.836 229.125C254.585 229.887 254.264 231.056 253.768 232.226C253.105 233.789 252.669 234.44 251.802 236.161L248.464 236.338C248.182 237.347 247.59 241.451 247.465 242.488C247.34 243.526 247.125 244.583 246.553 245.471C245.982 246.358 244.988 247.052 243.906 247.039C242.824 247.024 241.758 246.128 241.822 245.085C241.595 245.947 241.215 246.798 240.557 247.42C239.898 248.043 238.924 248.402 238.033 248.177C237.141 247.952 236.434 247.052 236.615 246.18C235.425 246.976 233.666 246.269 232.91 245.076C232.154 243.883 232.136 242.4 232.182 241.002C232.223 239.763 232.34 238.373 231.834 237.2C231.754 237.015 231.618 236.855 231.571 236.658C231.503 236.367 231.548 236.037 231.527 235.738C231.48 235.088 231.356 234.441 231.125 233.828C231.074 233.694 231.019 233.561 230.957 233.43C230.795 233.083 230.556 232.789 230.373 232.458C230.332 232.385 230.298 232.313 230.288 232.23C230.268 232.06 230.34 231.871 230.383 231.711Z" fill="#FFBF9D"/>
<path d="M226.627 229.92C225.735 229.889 224.763 230.068 224.167 230.71C223.461 231.472 223.299 233.295 223.379 234.315C224.616 234.54 225.277 234.274 226.514 234.5C226.775 234.547 226.993 234.483 227.209 234.632C227.78 235.023 227.687 236.341 227.916 236.98C228.315 238.087 229.784 238.628 230.922 238.221C232.061 237.814 232.793 236.644 232.851 235.473C232.909 234.302 232.375 233.156 231.594 232.259C230.373 230.858 228.523 229.986 226.627 229.92Z" fill="#FFBF9D"/>
<path d="M247.698 240.777C247.572 240.751 248.081 238.564 248.404 235.843C248.559 234.482 248.594 233.244 248.539 232.351C248.491 231.459 248.382 230.91 248.444 230.896C248.489 230.883 248.696 231.418 248.818 232.327C248.947 233.234 248.955 234.503 248.797 235.884C248.644 237.265 248.376 238.494 248.156 239.374C247.931 240.254 247.75 240.788 247.698 240.777Z" fill="#B4907F"/>
<path d="M241.673 245.474C241.617 245.463 241.76 244.668 242.003 243.39C242.244 242.111 242.584 240.347 242.841 238.385C243.098 236.423 243.19 234.635 243.162 233.342C243.142 232.048 243.045 231.249 243.109 231.24C243.153 231.233 243.349 232.023 243.442 233.331C243.541 234.638 243.494 236.454 243.234 238.433C242.974 240.412 242.589 242.178 242.278 243.446C241.963 244.713 241.724 245.486 241.673 245.474Z" fill="#B4907F"/>
<path d="M236.575 246.313C236.516 246.298 236.726 245.421 236.992 243.993C237.26 242.566 237.555 240.582 237.681 238.374C237.803 236.167 237.734 234.163 237.629 232.716C237.525 231.269 237.415 230.375 237.476 230.366C237.503 230.362 237.561 230.581 237.643 230.982C237.728 231.382 237.82 231.966 237.908 232.692C238.086 234.142 238.201 236.166 238.077 238.396C237.949 240.625 237.607 242.624 237.267 244.047C237.099 244.759 236.941 245.33 236.811 245.719C236.684 246.109 236.601 246.32 236.575 246.313Z" fill="#B4907F"/>
<path d="M229.854 231.94C229.871 231.901 230.311 232.025 230.895 232.448C231.476 232.864 232.175 233.617 232.585 234.627C232.995 235.636 233.027 236.658 232.809 237.348C232.588 238.057 232.127 238.304 232.112 238.259C232.067 238.217 232.411 237.927 232.538 237.282C232.667 236.649 232.597 235.703 232.217 234.767C231.835 233.828 231.222 233.104 230.716 232.656C230.208 232.202 229.823 231.995 229.854 231.94Z" fill="#B4907F"/>
<path d="M207.562 381.383L95.2436 342.096C93.325 341.425 90.1922 341.427 88.275 342.097L24.9521 364.253C22.3516 365.161 22.3489 366.652 24.9463 367.56L136.435 406.557C138.125 407.148 140.891 407.148 142.583 406.555L207.562 383.821C209.479 383.151 209.48 382.054 207.562 381.383Z" fill="#044540"/>
<path d="M120.319 253.929L215.128 360.387C217.508 363.059 217.077 365.81 216.718 368.279C216.359 370.747 215.137 374.104 212.904 375.679L155.742 415.986C153.509 417.561 150.303 417.27 148.58 415.335L53.7705 308.877C52.048 306.943 52.0258 303.962 52.385 301.493C52.7438 299.025 53.7613 295.159 55.9939 293.585L113.157 253.277C115.39 251.704 117.919 251.236 120.319 253.929Z" fill="#37474F"/>
<path d="M117.209 257.085L58.4287 298.533L153.65 405.419L151.97 416.976C150.674 416.858 149.442 416.301 148.581 415.334L53.7705 308.877C52.048 306.943 52.0258 303.962 52.385 301.493C52.7438 299.024 53.7613 295.159 55.9939 293.585L113.157 253.278C114.551 252.294 116.207 251.632 117.916 252.224L117.864 252.581L117.209 257.085Z" fill="#263238"/>
<path d="M214.114 360.954L119.465 254.677C118.099 253.143 115.538 252.914 113.769 254.159L57.969 293.509C55.57 295.198 55.1188 298.285 56.9681 300.361L151.027 405.975C152.23 407.326 154.49 407.532 156.051 406.428L213.379 366.005C215.148 364.761 215.479 362.487 214.114 360.954Z" fill="#455A64"/>
<path d="M82.8541 332.171C83.5329 332.933 83.93 334.602 83.7417 335.898C83.6506 336.525 83.4396 336.945 83.1693 337.127C82.9783 337.256 82.2512 337.788 82.0524 337.922C81.7642 338.117 81.4093 338.042 81.0606 337.651L73.5242 329.189C72.8455 328.427 72.4483 326.758 72.6366 325.461C72.7234 324.864 72.92 324.454 73.1729 324.259C73.3717 324.105 74.1259 323.574 74.3238 323.439C74.6124 323.242 74.9681 323.316 75.3178 323.709L82.8541 332.171Z" fill="#455A64"/>
<path d="M81.7423 332.956L74.206 324.493C73.5272 323.732 72.8244 324.165 72.6357 325.461C72.4473 326.758 72.8445 328.427 73.5228 329.189L81.0596 337.651C81.7384 338.413 82.4411 337.979 82.6299 336.683C82.8187 335.386 82.4211 333.718 81.7423 332.956Z" fill="#37474F"/>
<path d="M69.6637 317.361C70.3424 318.123 70.7396 319.792 70.5513 321.088C70.4602 321.714 70.2492 322.135 69.9789 322.317C69.7879 322.446 69.0607 322.977 68.8619 323.112C68.5738 323.307 68.2189 323.232 67.8701 322.841L60.3338 314.379C59.655 313.618 59.2579 311.949 59.4462 310.652C59.533 310.054 59.7296 309.644 59.9824 309.45C60.1812 309.296 60.9354 308.765 61.1333 308.63C61.4219 308.433 61.7777 308.507 62.1273 308.9L69.6637 317.361Z" fill="#455A64"/>
<path d="M68.552 318.146L61.0157 309.684C60.3369 308.922 59.6341 309.356 59.4454 310.652C59.2566 311.949 59.6542 313.618 60.333 314.38L67.8693 322.841C68.5481 323.603 69.2509 323.17 69.4396 321.873C69.6284 320.576 69.2308 318.908 68.552 318.146Z" fill="#37474F"/>
<path d="M120.989 260.409L209.373 359.651C210.678 361.117 210.366 363.284 208.676 364.47L156.811 401.044C155.124 402.242 152.693 402.021 151.385 400.552L62.3679 300.6C61.3099 299.412 61.3073 297.765 62.2616 296.549C62.3383 296.456 62.4089 296.364 62.4887 296.274C62.6613 296.099 62.8567 295.933 63.0672 295.784L77.6556 285.497C77.6556 285.497 78.0806 285.194 78.6073 284.827C79.1308 284.456 79.8846 284.523 80.2913 284.98C80.695 285.434 81.4815 285.485 82.0413 285.086L99.0435 273.098C99.6002 272.704 99.7323 272.013 99.3286 271.56C98.9498 271.135 99.0091 270.516 99.4459 270.133C99.4755 270.107 99.5087 270.084 99.5414 270.061L113.814 260L114.117 259.784C116.254 258.278 119.342 258.56 120.989 260.409Z" fill="black"/>
<path d="M79.8594 287.948C79.4526 287.491 78.6989 287.424 78.1753 287.796C77.6487 288.163 77.2236 288.466 77.2236 288.466L62.6353 298.753C62.4247 298.902 62.2294 299.068 62.0567 299.242C61.977 299.332 61.9068 299.424 61.8296 299.518C61.8048 299.549 61.7878 299.585 61.7646 299.617C61.8989 299.964 62.0982 300.297 62.368 300.6L151.384 400.552C152.692 402.021 155.123 402.242 156.81 401.044L208.676 364.47C209.027 364.223 209.315 363.933 209.545 363.616C209.411 363.263 209.213 362.925 208.94 362.619L120.557 263.377C118.91 261.528 115.822 261.246 113.685 262.752L113.382 262.968L99.4847 272.764C99.4847 272.764 99.16 275.015 99.1207 275.281C99.0776 275.573 98.9027 275.86 98.6115 276.067L81.6093 288.054C81.0495 288.453 80.2635 288.401 79.8594 287.948Z" fill="#263238"/>
<path d="M102.764 292.383L102.755 292.389L101.924 291.456C101.628 291.124 101.117 291.044 100.785 291.278L99.6654 292.068C99.3332 292.302 99.3035 292.763 99.5995 293.095L100.431 294.029L100.422 294.034C100.168 294.214 100.146 294.565 100.372 294.819L102.049 296.701C102.275 296.955 102.665 297.016 102.918 296.837L105.26 295.186C105.515 295.007 105.537 294.655 105.311 294.401L103.634 292.519C103.408 292.264 103.018 292.203 102.764 292.383ZM99.8594 292.912C99.6911 292.723 99.7077 292.46 99.8969 292.327L101.016 291.537C101.206 291.404 101.496 291.449 101.665 291.638L102.496 292.572L100.691 293.845L99.8594 292.912Z" fill="#FAFAFA"/>
<path d="M107.681 322.209C107.861 322.411 107.834 322.595 107.601 322.759L107.299 322.972C107.066 323.137 106.859 323.118 106.678 322.916L99.3616 314.7L98.2055 318.611C98.1222 318.865 97.9409 318.962 97.664 318.903L97.3161 318.834C97.188 318.805 97.0947 318.748 97.0349 318.662C96.9761 318.577 96.9634 318.476 97.0001 318.362L98.3764 313.71C98.4095 313.612 98.4548 313.536 98.5098 313.482C98.5656 313.427 98.6305 313.375 98.7047 313.323L99.0072 313.109C99.24 312.945 99.4471 312.964 99.6276 313.165L107.681 322.209Z" fill="#FAFAFA"/>
<path d="M104.063 313.988C103.795 313.668 103.58 313.289 103.414 312.852C103.249 312.415 103.182 311.957 103.214 311.478C103.245 310.999 103.398 310.518 103.675 310.032C103.949 309.546 104.39 309.09 104.995 308.663C105.6 308.237 106.184 307.952 106.746 307.808C107.311 307.667 107.842 307.629 108.342 307.694C108.841 307.761 109.304 307.921 109.729 308.176C110.153 308.429 110.525 308.735 110.844 309.093C111.352 309.663 111.658 310.269 111.765 310.913C111.872 311.557 111.842 312.318 111.676 313.198L110.874 319.104L116.206 315.345C116.449 315.173 116.666 315.193 116.854 315.405L117.038 315.611C117.218 315.813 117.186 316 116.942 316.172L110.417 320.773C110.184 320.937 109.978 320.919 109.797 320.717L109.613 320.51C109.531 320.418 109.48 320.308 109.461 320.178C109.441 320.051 109.452 319.874 109.495 319.65L110.436 313.174C110.52 312.725 110.572 312.337 110.591 312.01C110.61 311.682 110.596 311.389 110.547 311.132C110.499 310.874 110.417 310.64 110.299 310.432C110.182 310.222 110.029 310.012 109.841 309.801C109.292 309.185 108.661 308.844 107.948 308.779C107.233 308.715 106.495 308.951 105.73 309.49C104.999 310.006 104.587 310.591 104.496 311.246C104.406 311.9 104.583 312.557 105.031 313.214C105.108 313.339 105.13 313.454 105.095 313.562C105.06 313.668 105.01 313.743 104.947 313.789L104.629 314.013C104.407 314.171 104.218 314.162 104.063 313.988Z" fill="#FAFAFA"/>
<path d="M116.243 308.318C116.324 308.409 116.355 308.508 116.335 308.611C116.315 308.714 116.252 308.804 116.146 308.879L115.382 309.418C115.149 309.582 114.943 309.563 114.762 309.361L114.173 308.699C114.091 308.607 114.056 308.509 114.066 308.405C114.076 308.3 114.134 308.21 114.24 308.136L115.004 307.597C115.111 307.522 115.225 307.49 115.348 307.501C115.47 307.513 115.571 307.564 115.654 307.656L116.243 308.318ZM120.54 313.142C120.623 313.234 120.652 313.332 120.633 313.437C120.613 313.54 120.55 313.629 120.444 313.703L119.68 314.242C119.446 314.406 119.24 314.389 119.06 314.186L118.47 313.525C118.389 313.433 118.352 313.334 118.363 313.229C118.373 313.125 118.431 313.035 118.537 312.96L119.301 312.421C119.407 312.347 119.521 312.316 119.644 312.327C119.766 312.338 119.869 312.389 119.95 312.481L120.54 313.142Z" fill="#FAFAFA"/>
<path d="M120.904 297.67C121.149 297.497 121.365 297.517 121.553 297.729L121.736 297.935C121.786 297.99 121.815 298.048 121.825 298.107C121.835 298.167 121.841 298.228 121.843 298.286L121.518 304.058L121.836 303.834C122.376 303.452 122.922 303.159 123.471 302.95C124.02 302.744 124.554 302.639 125.073 302.641C125.592 302.641 126.092 302.752 126.575 302.974C127.057 303.194 127.502 303.536 127.911 303.995C128.321 304.453 128.587 304.928 128.711 305.417C128.836 305.905 128.836 306.391 128.714 306.873C128.591 307.356 128.354 307.827 128.002 308.284C127.649 308.742 127.203 309.162 126.663 309.544C126.068 309.962 125.478 310.27 124.892 310.466C124.307 310.662 123.754 310.765 123.235 310.771C122.714 310.779 122.242 310.705 121.818 310.547C121.392 310.391 121.04 310.164 120.759 309.868C120.686 309.786 120.66 309.699 120.683 309.608C120.705 309.518 120.764 309.438 120.86 309.371L121.083 309.214C121.168 309.153 121.267 309.115 121.379 309.095C121.491 309.076 121.631 309.12 121.795 309.227C122.151 309.471 122.509 309.618 122.873 309.667C123.238 309.718 123.599 309.706 123.957 309.634C124.315 309.561 124.661 309.44 124.995 309.272C125.328 309.103 125.64 308.919 125.926 308.717C126.34 308.425 126.68 308.118 126.945 307.796C127.212 307.474 127.393 307.14 127.491 306.794C127.589 306.449 127.593 306.099 127.501 305.743C127.41 305.388 127.212 305.042 126.909 304.702C126.303 304.022 125.634 303.702 124.899 303.74C124.166 303.779 123.389 304.086 122.573 304.662L121.172 305.649C120.939 305.813 120.732 305.795 120.553 305.593L120.369 305.386C120.303 305.312 120.261 305.242 120.242 305.172C120.225 305.103 120.216 305.031 120.218 304.954L120.513 299.294L115.706 302.683C115.474 302.847 115.266 302.828 115.086 302.626L114.902 302.42C114.714 302.208 114.737 302.02 114.97 301.856L120.904 297.67Z" fill="#FAFAFA"/>
<path d="M135.611 302.515C135.79 302.718 135.764 302.901 135.53 303.066L135.228 303.279C134.994 303.443 134.788 303.425 134.607 303.223L127.29 295.007L126.135 298.917C126.051 299.172 125.87 299.269 125.593 299.21L125.245 299.142C125.116 299.113 125.023 299.056 124.963 298.969C124.905 298.885 124.892 298.784 124.929 298.67L126.305 294.018C126.338 293.921 126.383 293.844 126.439 293.791C126.494 293.736 126.559 293.683 126.633 293.631L126.936 293.417C127.169 293.253 127.376 293.272 127.555 293.474L135.611 302.515Z" fill="#FAFAFA"/>
<path d="M108.234 338.072L149.04 309.297C150.139 308.523 151.716 308.666 152.564 309.618L161.012 319.104C161.86 320.055 161.657 321.455 160.557 322.23L119.751 351.004C118.652 351.779 117.075 351.635 116.227 350.683L107.779 341.198C106.932 340.246 107.135 338.847 108.234 338.072Z" fill="#455A64"/>
<path d="M123.456 355.167L164.263 326.392C165.361 325.617 166.939 325.761 167.786 326.712L176.235 336.198C177.082 337.149 176.879 338.549 175.78 339.324L134.973 368.098C133.875 368.873 132.297 368.73 131.45 367.778L123.002 358.293C122.154 357.341 122.358 355.941 123.456 355.167Z" fill="#455A64"/>
<path d="M138.678 372.262L179.484 343.487C180.583 342.712 182.16 342.856 183.008 343.807L191.456 353.293C192.304 354.244 192.101 355.644 191.002 356.419L150.195 385.193C149.097 385.968 147.519 385.825 146.672 384.873L138.224 375.388C137.376 374.436 137.579 373.037 138.678 372.262Z" fill="#455A64"/>
<path d="M82.1544 280.494L89.9484 274.999C90.4132 274.671 91.0632 274.712 91.3997 275.09C91.7363 275.468 91.6321 276.04 91.1674 276.368L83.3734 281.863C82.9086 282.191 82.2586 282.151 81.9221 281.773C81.5855 281.395 81.6897 280.822 82.1544 280.494Z" fill="#263238"/>
<path d="M93.7006 271.902C94.2247 271.532 94.9767 271.601 95.3808 272.055C95.7849 272.508 95.6877 273.175 95.1641 273.545C94.6406 273.914 93.8881 273.846 93.484 273.392C93.0798 272.938 93.1766 272.271 93.7006 271.902Z" fill="#263238"/>
<g opacity="0.15">
<path d="M157.317 301.196L146.029 288.523L122.796 368.445L134.083 381.118L157.317 301.196Z" fill="white"/>
<path d="M191.226 342.728L172.096 321.248L149.618 398.57L151.384 400.553C152.693 402.022 155.124 402.242 156.81 401.044L178.777 385.554L191.226 342.728Z" fill="white"/>
</g>
<path d="M77.0027 297.804C76.9795 297.801 76.956 297.786 76.932 297.76L76.7066 297.507L76.003 298.004C75.9642 298.031 75.9293 298.026 75.8971 297.99L75.8164 297.899C75.7981 297.879 75.7859 297.861 75.7802 297.847C75.775 297.833 75.7711 297.813 75.7685 297.789L75.7092 296.355C75.7083 296.328 75.7105 296.309 75.7153 296.296C75.7201 296.283 75.7332 296.268 75.7558 296.252L75.8539 296.184C75.8831 296.162 75.9101 296.154 75.9359 296.158C75.9607 296.162 75.986 296.178 76.0113 296.206L76.7991 297.09L76.9543 296.981C76.9843 296.96 77.0101 296.951 77.0327 296.956C77.0563 296.96 77.0803 296.976 77.1051 297.004L77.1587 297.064C77.1827 297.091 77.1936 297.114 77.1919 297.135C77.191 297.155 77.1757 297.176 77.1456 297.196L76.9904 297.306L77.2158 297.559C77.2398 297.586 77.2507 297.609 77.2485 297.63C77.2459 297.651 77.2298 297.672 77.1993 297.694L77.0807 297.777C77.0519 297.799 77.0258 297.808 77.0027 297.804ZM76.561 297.259L75.9995 296.628L76.0505 297.619L76.561 297.259Z" fill="#FAFAFA"/>
<path d="M77.7017 297.062C77.4423 297.023 77.1999 296.877 76.9746 296.624C76.75 296.372 76.6463 296.128 76.6628 295.894C76.6794 295.659 76.8128 295.454 77.063 295.278C77.1633 295.206 77.2666 295.15 77.373 295.11C77.4785 295.069 77.5775 295.047 77.6695 295.045C77.6904 295.044 77.7056 295.049 77.7152 295.06C77.7218 295.067 77.727 295.078 77.7301 295.092L77.7645 295.249C77.7671 295.269 77.7649 295.282 77.7558 295.288C77.751 295.291 77.7379 295.294 77.717 295.297C77.5661 295.312 77.421 295.369 77.2819 295.467C77.1132 295.586 77.0225 295.727 77.0112 295.89C77.0007 296.054 77.0809 296.233 77.254 296.427C77.4284 296.622 77.6045 296.735 77.7819 296.763C77.9594 296.792 78.1294 296.749 78.2924 296.634C78.3517 296.593 78.4049 296.548 78.4529 296.498C78.5004 296.448 78.5344 296.403 78.5544 296.36L78.1882 295.949L77.8949 296.155C77.8652 296.176 77.839 296.184 77.8159 296.18C77.7924 296.176 77.7689 296.16 77.7436 296.132L77.6921 296.074C77.6673 296.046 77.6555 296.022 77.6581 296.003C77.6599 295.983 77.6756 295.963 77.7052 295.942L78.1739 295.612C78.2066 295.589 78.2371 295.581 78.265 295.586C78.2929 295.592 78.3212 295.611 78.3504 295.644L78.8727 296.231C78.8923 296.253 78.905 296.271 78.9102 296.286C78.9163 296.3 78.915 296.316 78.9084 296.336C78.8487 296.518 78.7018 296.691 78.4677 296.856C78.2157 297.032 77.9607 297.101 77.7017 297.062Z" fill="#FAFAFA"/>
<path d="M83.5513 292.786C83.7252 292.981 83.6834 293.269 83.458 293.427C83.2326 293.586 82.9083 293.557 82.7343 293.361C82.5604 293.166 82.6022 292.878 82.8276 292.719C83.053 292.56 83.3774 292.59 83.5513 292.786Z" fill="#FAFAFA"/>
<path d="M82.3118 292.141C81.9003 292.431 81.7207 292.883 81.8009 293.305C81.817 293.39 81.902 293.451 82.0006 293.449H82.0019C82.1261 293.447 82.2233 293.347 82.202 293.24C82.1431 292.942 82.27 292.623 82.5595 292.419C82.8494 292.214 83.2278 292.177 83.5391 292.297C83.6524 292.34 83.7845 292.279 83.815 292.171L83.8155 292.17C83.8394 292.085 83.7919 291.999 83.7025 291.964C83.2596 291.798 82.7238 291.85 82.3118 292.141Z" fill="#FAFAFA"/>
<path d="M81.8069 291.574C81.1952 292.005 80.9036 292.662 80.9664 293.297C80.9755 293.39 81.0605 293.462 81.1669 293.46H81.1687C81.2894 293.459 81.3823 293.365 81.3709 293.259C81.3164 292.742 81.554 292.204 82.0545 291.852C82.5546 291.499 83.1976 291.415 83.7521 291.581C83.865 291.614 83.9888 291.556 84.018 291.452C84.0438 291.36 83.9854 291.27 83.8855 291.241C83.208 291.039 82.4198 291.142 81.8069 291.574Z" fill="#FAFAFA"/>
<path d="M69.3946 303.476L68.96 302.988L69.7111 302.459L70.1458 302.946L69.3946 303.476Z" fill="#FAFAFA"/>
<path d="M70.5216 302.681L69.6523 301.705L70.4035 301.176L71.2728 302.152L70.5216 302.681Z" fill="#FAFAFA"/>
<path d="M71.6487 301.887L70.3447 300.423L71.0959 299.894L72.3994 301.357L71.6487 301.887Z" fill="#FAFAFA"/>
<path d="M72.7757 301.092L71.0371 299.14L71.7883 298.611L73.5264 300.562L72.7757 301.092Z" fill="#FAFAFA"/>
<path d="M118.517 266.284C118.356 266.249 118.213 266.269 118.112 266.34L115.304 268.314C115.122 268.442 115.126 268.707 115.313 268.917L116.103 269.804C116.207 269.921 116.353 270.005 116.512 270.04C116.581 270.056 116.647 270.061 116.71 270.055C116.79 270.048 116.86 270.024 116.917 269.984L119.725 268.01C119.907 267.882 119.903 267.617 119.716 267.407L118.926 266.52C118.822 266.404 118.677 266.32 118.517 266.284ZM116.509 269.897C116.452 269.884 116.388 269.843 116.336 269.785L115.546 268.898C115.408 268.743 115.405 268.533 115.539 268.439L118.347 266.464C118.38 266.442 118.418 266.427 118.456 266.424C118.477 266.422 118.498 266.423 118.519 266.428C118.578 266.441 118.641 266.482 118.693 266.541L119.483 267.428C119.621 267.583 119.624 267.793 119.49 267.887L116.682 269.861C116.63 269.898 116.569 269.91 116.509 269.897Z" fill="#FAFAFA"/>
<path d="M116.209 268.217L117.143 269.266L116.702 269.576C116.664 269.603 116.588 269.606 116.566 269.582L115.872 268.802C115.772 268.69 115.77 268.53 115.865 268.46L116.209 268.217Z" fill="#FAFAFA"/>
<path d="M116.415 268.076L116.941 267.703L117.875 268.753L117.347 269.123L116.415 268.076Z" fill="#FAFAFA"/>
<path d="M117.147 267.562L117.673 267.189L118.611 268.242L118.082 268.611L117.147 267.562Z" fill="#FAFAFA"/>
<path d="M118.468 266.745L119.142 267.501C119.265 267.64 119.208 267.822 118.993 267.973L118.816 268.098L117.881 267.049L118.3 266.753C118.349 266.719 118.441 266.715 118.468 266.745Z" fill="#FAFAFA"/>
<path d="M119.036 266.453C119.114 266.398 119.308 266.5 119.47 266.682L119.617 266.848C119.779 267.03 119.85 267.226 119.775 267.286L119.639 267.394L118.896 266.554C118.896 266.553 118.959 266.508 119.036 266.453Z" fill="#FAFAFA"/>
<path d="M111.245 272.138L113.549 269.738L114.242 272.054L112.99 271.375L111.245 272.138Z" fill="#FAFAFA"/>
</g>
<defs>
<clipPath id="clip0_48_1322">
<rect width="451" height="417" fill="white" transform="translate(-23)"/>
</clipPath>
</defs>
</svg>
