<?xml version="1.0" encoding="UTF-8" standalone="no"?>
<svg
   width="300"
   height="300"
   viewBox="0 0 300 227"
   fill="none"
   version="1.1"
   id="svg148"
   sodipodi:docname="showcase2.svg"
   inkscape:version="1.3.2 (091e20e, 2023-11-25, custom)"
   xmlns:inkscape="http://www.inkscape.org/namespaces/inkscape"
   xmlns:sodipodi="http://sodipodi.sourceforge.net/DTD/sodipodi-0.dtd"
   xmlns="http://www.w3.org/2000/svg"
   xmlns:svg="http://www.w3.org/2000/svg">
  <sodipodi:namedview
     id="namedview148"
     pagecolor="#ffffff"
     bordercolor="#000000"
     borderopacity="0.25"
     inkscape:showpageshadow="2"
     inkscape:pageopacity="0.0"
     inkscape:pagecheckerboard="0"
     inkscape:deskcolor="#d1d1d1"
     inkscape:zoom="2.5033333"
     inkscape:cx="149.80027"
     inkscape:cy="77.296937"
     inkscape:window-width="1920"
     inkscape:window-height="986"
     inkscape:window-x="-11"
     inkscape:window-y="-11"
     inkscape:window-maximized="1"
     inkscape:current-layer="svg148" />
  <rect
     x="82.384727"
     y="145.35239"
     width="59.507576"
     height="56.125309"
     rx="1.8991779"
     stroke="url(#paint0_linear_101_267)"
     id="rect1"
     style="stroke:url(#paint0_linear_101_267);stroke-width:1.22961" />
  <path
     d="m 113.74902,178.49497 -8.29941,4.52943 c -3.68947,2.01334 -8.301934,-0.50394 -8.301934,-4.52943 v -11.80066 c 0,-4.02788 4.612464,-6.54397 8.301934,-4.53061 v 11.79944 c 0,4.02551 4.60994,6.54278 8.29941,4.53183 z"
     fill="url(#paint1_linear_101_267)"
     id="path1"
     style="fill:url(#paint1_linear_101_267);stroke-width:1.22961" />
  <path
     d="m 124.5642,172.59345 -10.81138,5.90031 h -0.003 c -3.68947,2.01096 -8.2994,-0.50632 -8.2994,-4.53181 l 10.81266,-5.89793 c 3.68947,-2.01334 3.68947,-7.04791 0,-9.06126 l 8.30194,4.53063 c 3.69072,2.01335 3.69072,7.04671 0,9.06006 z"
     fill="url(#paint2_linear_101_267)"
     id="path2"
     style="fill:url(#paint2_linear_101_267);stroke-width:1.22961" />
  <path
     d="m 116.26228,168.06402 -10.81267,-5.90032 c -3.68947,-2.01336 -8.301934,0.50273 -8.301934,4.53061 v -9.06124 c 0,-4.02669 4.612464,-6.54397 8.301934,-4.52944 l 10.81267,5.89913 c 3.68947,2.01335 3.68947,7.04792 0,9.06126 z"
     fill="url(#paint3_linear_101_267)"
     id="path3"
     style="fill:url(#paint3_linear_101_267);stroke-width:1.22961" />
  <path
     d="m 105.24831,183.50444 c -3.67555,1.89036 -8.303215,-0.50273 -8.303215,-4.52942 v 11.53553 c 0,1.0413 0.438076,2.03962 1.216744,2.77522 0.7774,0.7356 1.833337,1.14878 2.934861,1.14878 1.10153,0 2.15747,-0.41318 2.93487,-1.14878 0.77865,-0.7356 1.21674,-1.73392 1.21674,-2.77522 z"
     fill="url(#paint4_linear_101_267)"
     id="path4"
     style="fill:url(#paint4_linear_101_267);stroke-width:1.22961" />
  <path
     d="m 114.55555,189.35462 c 0.15826,0 0.2874,0.12061 0.2874,0.27107 v 4.53778 c 0,0.14928 -0.12914,0.27108 -0.2874,0.27108 h -9.55414 c -0.15826,0 -0.28741,-0.1218 -0.28741,-0.27108 v -4.53778 c 0,-0.15046 0.12915,-0.27107 0.28741,-0.27107 z"
     fill="url(#paint5_linear_101_267)"
     id="path5"
     style="fill:url(#paint5_linear_101_267);stroke-width:1.22961" />
  <path
     d="m 105.61928,193.46967 v -3.15376 h 1.31803 c 0.25448,0 0.46973,0.0465 0.64825,0.13733 0.17852,0.0908 0.31526,0.21614 0.40896,0.37735 0.0937,0.16002 0.14181,0.34511 0.14181,0.55409 0,0.21017 -0.0481,0.39407 -0.14435,0.55408 -0.0949,0.16002 -0.23423,0.28541 -0.41528,0.37497 -0.18106,0.0884 -0.40009,0.13375 -0.65712,0.13375 h -0.59381 v -0.55409 l 0.47985,0.019 c 0.13548,0 0.24816,-0.0215 0.3368,-0.0657 0.0886,-0.0453 0.15573,-0.10746 0.19877,-0.18628 0.0443,-0.08 0.0672,-0.17196 0.0672,-0.27586 0,-0.1039 -0.0229,-0.19584 -0.0672,-0.27346 -0.0431,-0.0788 -0.11018,-0.14091 -0.19877,-0.1839 -0.0898,-0.0442 -0.20259,-0.0657 -0.34059,-0.0657 h -0.47606 v 2.60803 z"
     fill="#ffffff"
     id="path6"
     style="stroke-width:1.22961" />
  <path
     d="m 111.59408,191.89339 c 0,0.34391 -0.0696,0.63529 -0.20764,0.87651 -0.13674,0.24121 -0.32412,0.42631 -0.56214,0.55289 -0.2355,0.12658 -0.50139,0.18988 -0.7964,0.18988 -0.29627,0 -0.56341,-0.0633 -0.79892,-0.19107 -0.23677,-0.12778 -0.42289,-0.31168 -0.5609,-0.5529 -0.13672,-0.24121 -0.20509,-0.53259 -0.20509,-0.87531 0,-0.34392 0.0683,-0.63649 0.20509,-0.87771 0.13801,-0.24121 0.32413,-0.42512 0.5609,-0.5517 0.23551,-0.12658 0.50265,-0.19105 0.79892,-0.19105 0.29501,0 0.5609,0.0645 0.7964,0.19105 0.23802,0.12658 0.4254,0.31049 0.56214,0.5517 0.13802,0.24122 0.20764,0.53379 0.20764,0.87771 z m -0.71662,0 c 0,-0.22331 -0.0354,-0.41079 -0.10633,-0.56365 -0.0697,-0.15285 -0.1684,-0.26867 -0.29627,-0.34868 -0.12662,-0.0788 -0.27602,-0.11823 -0.44695,-0.11823 -0.17092,0 -0.31907,0.0394 -0.44694,0.11823 -0.12788,0.08 -0.22662,0.19583 -0.29753,0.34868 -0.0697,0.15286 -0.10386,0.34034 -0.10386,0.56365 0,0.22211 0.0341,0.40959 0.10386,0.56244 0.0709,0.15405 0.16965,0.26988 0.29753,0.3487 0.12787,0.0788 0.27602,0.11822 0.44694,0.11822 0.17093,0 0.32033,-0.0394 0.44695,-0.11822 0.12787,-0.0788 0.22663,-0.19465 0.29627,-0.3487 0.0709,-0.15285 0.10633,-0.34033 0.10633,-0.56244 z"
     fill="#ffffff"
     id="path7"
     style="stroke-width:1.22961" />
  <path
     d="m 113.93008,191.22347 c -0.0127,-0.1242 -0.0683,-0.22092 -0.16712,-0.29018 -0.10006,-0.068 -0.23424,-0.10272 -0.40391,-0.10272 -0.11521,0 -0.2127,0.0156 -0.29247,0.0465 -0.0785,0.0299 -0.13927,0.0704 -0.18232,0.12421 -0.0418,0.0538 -0.062,0.11463 -0.062,0.1815 -0.002,0.0574 0.0103,0.10624 0.038,0.14807 0.0279,0.0418 0.0671,0.0788 0.11522,0.10987 0.0494,0.0298 0.10634,0.055 0.16965,0.0776 0.0645,0.0215 0.13295,0.0405 0.20638,0.0561 l 0.30008,0.0669 c 0.1456,0.031 0.27981,0.0728 0.40135,0.12418 0.12155,0.0513 0.2279,0.11344 0.31654,0.18869 0.0899,0.0752 0.15826,0.16359 0.20763,0.2651 0.0494,0.1014 0.0759,0.21852 0.0759,0.34988 0,0.19226 -0.0533,0.35944 -0.15575,0.50154 -0.10253,0.14091 -0.25069,0.24959 -0.4444,0.3272 -0.19245,0.0776 -0.42541,0.11584 -0.69637,0.11584 -0.27095,0 -0.50518,-0.0394 -0.70522,-0.11703 -0.20006,-0.0776 -0.35578,-0.19346 -0.4672,-0.34631 -0.11142,-0.15404 -0.16966,-0.34391 -0.17472,-0.57079 h 0.6837 c 0.008,0.10506 0.0405,0.19345 0.0961,0.26509 0.0582,0.0693 0.13421,0.12181 0.23044,0.15763 0.0961,0.0357 0.20638,0.0525 0.32792,0.0525 0.12028,0 0.22411,-0.0167 0.31147,-0.049 0.0899,-0.0334 0.15826,-0.0788 0.20764,-0.13733 0.0494,-0.0585 0.0735,-0.12539 0.0735,-0.20181 0,-0.0705 -0.0229,-0.13017 -0.0671,-0.17793 -0.0431,-0.049 -0.10759,-0.0895 -0.19246,-0.123 -0.0835,-0.0346 -0.18611,-0.0657 -0.30892,-0.0931 l -0.36338,-0.086 c -0.28234,-0.0645 -0.50391,-0.166 -0.66724,-0.30332 -0.16334,-0.13733 -0.24437,-0.32242 -0.2431,-0.55528 -0.001,-0.19107 0.0518,-0.35826 0.1608,-0.50036 0.11018,-0.1433 0.26082,-0.25435 0.452,-0.33436 0.19245,-0.08 0.40895,-0.12061 0.65332,-0.12061 0.24815,0 0.46467,0.0405 0.64952,0.12061 0.18611,0.08 0.33045,0.19106 0.43427,0.33436 0.10386,0.1421 0.157,0.3081 0.15953,0.49557 z"
     fill="#ffffff"
     id="path8"
     style="stroke-width:1.22961" />
  <rect
     x="153.01135"
     y="133.00003"
     width="60.773693"
     height="57.319462"
     rx="2.5322375"
     stroke="url(#paint6_linear_101_267)"
     id="rect8"
     style="stroke:url(#paint6_linear_101_267);stroke-width:1.22961" />
  <g
     filter="url(#filter0_d_101_267)"
     id="g13"
     transform="matrix(1.2661188,0,0,1.1941554,-47.311398,-0.07187717)">
    <path
       d="m 183.49,139.691 -6.555,3.792 c -2.915,1.686 -6.558,-0.421 -6.558,-3.793 v -9.882 c 0,-3.372 3.643,-5.48 6.558,-3.794 v 9.881 c 0,3.372 3.641,5.479 6.555,3.796 z"
       fill="url(#paint7_linear_101_267)"
       id="path9"
       style="fill:url(#paint7_linear_101_267)" />
    <path
       d="m 192.032,134.749 -8.54,4.94 h -0.002 c -2.914,1.684 -6.555,-0.424 -6.555,-3.795 l 8.539,-4.939 c 2.915,-1.686 2.915,-5.902 0,-7.588 l 6.558,3.794 c 2.915,1.686 2.914,5.901 0,7.588 z"
       fill="url(#paint8_linear_101_267)"
       id="path10"
       style="fill:url(#paint8_linear_101_267)" />
    <path
       d="m 185.474,130.955 -8.539,-4.941 c -2.915,-1.686 -6.558,0.422 -6.558,3.794 v -7.588 c 0,-3.372 3.643,-5.48 6.557,-3.792 l 8.54,4.939 c 2.915,1.686 2.915,5.902 0,7.588 z"
       fill="url(#paint9_linear_101_267)"
       id="path11"
       style="fill:url(#paint9_linear_101_267)" />
    <path
       d="m 176.775,147.636 v -3.75 c -2.903,1.582 -6.557,-0.422 -6.557,-3.794 0,-3.372 0,7.544 0,7.544 z"
       fill="#6d28a1"
       id="path12" />
    <path
       d="m 176.775,147.636 h -6.557 v 2.117 c 0,0.871 0.345,1.707 0.96,2.323 0.615,0.616 1.449,0.962 2.319,0.962 0.869,0 1.703,-0.346 2.318,-0.962 0.615,-0.616 0.96,-1.452 0.96,-2.323 z"
       fill="#6d28a1"
       id="path13" />
  </g>
  <path
     d="m 185.16318,175.85946 c 0.21398,0 0.38617,0.1636 0.38617,0.36422 v 6.09259 c 0,0.20061 -0.17219,0.36301 -0.38617,0.36301 h -9.35661 c -0.21398,0 -0.38617,-0.1624 -0.38617,-0.36301 v -6.09259 c 0,-0.20062 0.17219,-0.36422 0.38617,-0.36422 z"
     fill="url(#paint10_linear_101_267)"
     id="path14"
     style="fill:url(#paint10_linear_101_267);stroke-width:1.22961" />
  <path
     d="m 176.54977,181.38602 v -4.2321 h 1.77004 c 0.33931,0 0.62799,0.0574 0.86855,0.17077 0.24057,0.11344 0.42416,0.27346 0.5495,0.48244 0.12662,0.20658 0.18992,0.44901 0.18992,0.72844 0,0.28182 -0.0633,0.52303 -0.19245,0.72604 -0.12787,0.20062 -0.314,0.35586 -0.55835,0.46333 -0.29374,0.0538 -0.1051,0.019 -0.88122,0.16121 h -0.79766 v -0.72007 h 0.64446 c 0.18105,0 0.33172,-0.0227 0.452,-0.0704 0.11901,-0.0465 0.2089,-0.11704 0.26715,-0.21018 0.0596,-0.0943 0.09,-0.21017 0.09,-0.34988 0,-0.13972 -0.0304,-0.25794 -0.09,-0.35467 -0.0582,-0.0967 -0.14814,-0.16957 -0.26968,-0.21973 -0.12029,-0.0502 -0.27096,-0.0765 -0.45328,-0.0765 h -0.64065 v 3.50125 z m 2.62721,-1.66108 0.9116,1.66108 h -1.04708 l -0.74574,-1.49987 z"
     fill="#ffffff"
     id="path15"
     style="stroke-width:1.22961" />
  <path
     d="m 180.59883,181.38602 v -4.2321 h 0.94832 v 1.74586 h 1.92576 v -1.74586 h 0.94706 v 4.2321 h -0.94706 v -1.74825 h -1.92576 v 1.74825 z"
     fill="#ffffff"
     id="path16"
     style="stroke-width:1.22961" />
  <rect
     x="224.90411"
     y="145.35239"
     width="59.507576"
     height="56.125309"
     rx="1.8991779"
     stroke="url(#paint11_linear_101_267)"
     id="rect16"
     style="stroke:url(#paint11_linear_101_267);stroke-width:1.22961" />
  <g
     filter="url(#filter1_d_101_267)"
     id="g19"
     transform="matrix(1.2661188,0,0,1.1941554,-47.311398,-0.07187717)">
    <path
       d="m 239.764,147.423 -6.514,3.769 c -2.896,1.676 -6.517,-0.419 -6.517,-3.77 v -9.82 c 0,-3.352 3.621,-5.446 6.517,-3.77 v 9.819 c 0,3.351 3.619,5.445 6.514,3.772 z"
       fill="url(#paint12_linear_101_267)"
       id="path17"
       style="fill:url(#paint12_linear_101_267)" />
    <path
       d="m 248.253,142.512 -8.487,4.91 h -0.002 c -2.896,1.673 -6.514,-0.422 -6.514,-3.772 l 8.486,-4.908 c 2.896,-1.676 2.896,-5.865 0,-7.541 l 6.517,3.77 c 2.896,1.676 2.896,5.865 0,7.541 z"
       fill="url(#paint13_linear_101_267)"
       id="path18"
       style="fill:url(#paint13_linear_101_267)" />
    <path
       d="m 241.737,138.742 -8.487,-4.91 c -2.897,-1.676 -6.517,0.418 -6.517,3.77 v -7.541 c 0,-3.351 3.62,-5.446 6.516,-3.769 l 8.488,4.909 c 2.896,1.676 2.896,5.865 0,7.541 z"
       fill="url(#paint14_linear_101_267)"
       id="path19"
       style="fill:url(#paint14_linear_101_267)" />
  </g>
  <g
     filter="url(#filter2_d_101_267)"
     id="g21"
     transform="matrix(1.2661188,0,0,1.1941554,-47.311398,-0.07187717)">
    <path
       d="m 233.091,155.319 v -3.727 c 0,0 2.884,-1.572 -0.001,0 -2.885,1.573 -6.516,-0.419 -6.516,-3.77 0,-3.351 0,7.497 0,7.497 z"
       fill="url(#paint15_linear_101_267)"
       id="path20"
       style="fill:url(#paint15_linear_101_267)" />
    <path
       d="m 233.091,155.319 h -6.517 v 2.103 c 0,0.866 0.344,1.697 0.955,2.309 0.611,0.613 1.439,0.957 2.304,0.957 0.864,0 1.693,-0.344 2.304,-0.957 0.611,-0.612 0.954,-1.443 0.954,-2.309 z"
       fill="url(#paint16_linear_101_267)"
       id="path21"
       style="fill:url(#paint16_linear_101_267)" />
  </g>
  <path
     d="m 256.56848,183.00171 c 0.2988,0 0.54063,0.22808 0.54063,0.5099 v 8.53343 c 0,0.28183 -0.24183,0.50991 -0.54063,0.50991 h -9.04769 c -0.29881,0 -0.54063,-0.22808 -0.54063,-0.50991 v -8.53343 c 0,-0.28182 0.24182,-0.5099 0.54063,-0.5099 z"
     fill="url(#paint17_linear_101_267)"
     id="path22"
     style="fill:url(#paint17_linear_101_267);stroke-width:1.22961" />
  <path
     d="m 254.86175,186.88629 h -1.34336 c -0.0254,-0.1636 -0.0747,-0.30928 -0.15067,-0.43706 -0.0759,-0.12896 -0.17345,-0.23883 -0.2912,-0.32959 -0.11901,-0.0908 -0.25575,-0.16001 -0.41149,-0.20897 -0.1532,-0.0479 -0.32032,-0.0717 -0.50011,-0.0717 -0.3254,0 -0.60901,0.0765 -0.85084,0.22809 -0.24183,0.15045 -0.42921,0.37137 -0.56215,0.66037 -0.13295,0.28778 -0.19878,0.63648 -0.19878,1.04847 0,0.42152 0.0659,0.77739 0.19878,1.06518 0.13547,0.28659 0.32412,0.50393 0.56469,0.6508 0.24183,0.14689 0.52163,0.21973 0.83816,0.21973 0.17852,0 0.34312,-0.0215 0.49505,-0.0657 0.15321,-0.0454 0.28868,-0.10986 0.40769,-0.19466 0.11903,-0.0871 0.21652,-0.19226 0.29502,-0.31525 0.0797,-0.12419 0.13419,-0.26391 0.16585,-0.42273 l 1.34336,0.006 c -0.0342,0.27227 -0.12156,0.53499 -0.26082,0.78695 -0.13674,0.25078 -0.3216,0.47647 -0.55457,0.67471 -0.23169,0.19702 -0.50771,0.35347 -0.8293,0.46929 -0.31907,0.11344 -0.67991,0.17077 -1.08379,0.17077 -0.55963,0 -1.06102,-0.11942 -1.50416,-0.35945 -0.43935,-0.23882 -0.78751,-0.58513 -1.04327,-1.03891 -0.25324,-0.45377 -0.37984,-1.0031 -0.37984,-1.64674 0,-0.64723 0.12787,-1.19655 0.38617,-1.65032 0.25828,-0.45378 0.60773,-0.79889 1.0496,-1.03653 0.44188,-0.24003 0.93946,-0.35943 1.4915,-0.35943 0.36463,0 0.70269,0.049 1.01289,0.14449 0.314,0.0967 0.59127,0.23762 0.83183,0.42273 0.24183,0.1839 0.43808,0.40839 0.59002,0.67469 0.1532,0.2663 0.25196,0.572 0.29374,0.91472 z"
     fill="#ffffff"
     id="path23"
     style="stroke-width:1.22961" />
  <rect
     x="11.124791"
     y="133.59711"
     width="59.507576"
     height="56.125309"
     rx="1.8991779"
     stroke="url(#paint18_linear_101_267)"
     id="rect23"
     style="stroke:url(#paint18_linear_101_267);stroke-width:1.22961" />
  <g
     filter="url(#filter3_d_101_267)"
     id="g28"
     transform="matrix(1.2661188,0,0,1.1941554,-47.311398,-0.07187717)">
    <path
       d="m 70.9248,139.691 -6.555,3.792 c -2.9146,1.686 -6.5575,-0.421 -6.5575,-3.793 v -9.882 c 0,-3.372 3.6429,-5.48 6.5575,-3.794 v 9.881 c 0,3.372 3.641,5.479 6.555,3.796 z"
       fill="url(#paint19_linear_101_267)"
       id="path24"
       style="fill:url(#paint19_linear_101_267)" />
    <path
       d="m 79.467,134.749 -8.5397,4.94 h -0.0025 c -2.914,1.684 -6.555,-0.424 -6.555,-3.795 l 8.5394,-4.939 c 2.9146,-1.686 2.9146,-5.902 0,-7.588 l 6.5576,3.794 c 2.9148,1.686 2.9145,5.901 2e-4,7.588 z"
       fill="url(#paint20_linear_101_267)"
       id="path25"
       style="fill:url(#paint20_linear_101_267)" />
    <path
       d="m 72.9095,130.955 -8.5397,-4.941 c -2.9146,-1.686 -6.5575,0.422 -6.5575,3.794 v -7.588 c 0,-3.372 3.6429,-5.48 6.5569,-3.792 l 8.5403,4.939 c 2.9146,1.686 2.9146,5.902 0,7.588 z"
       fill="url(#paint21_linear_101_267)"
       id="path26"
       style="fill:url(#paint21_linear_101_267)" />
    <path
       d="m 64.2104,147.636 v -3.75 c 0,0 2.9025,-1.582 -6e-4,0 -2.9031,1.582 -6.557,-0.422 -6.557,-3.794 0,-3.372 0,7.544 0,7.544 z"
       fill="url(#paint22_linear_101_267)"
       id="path27"
       style="fill:url(#paint22_linear_101_267)" />
    <path
       d="m 64.2104,147.636 h -6.5576 v 2.117 c 0,0.871 0.3455,1.707 0.9604,2.323 0.6148,0.616 1.4488,0.962 2.3184,0.962 0.8696,0 1.7035,-0.346 2.3184,-0.962 0.6149,-0.616 0.9604,-1.452 0.9604,-2.323 z"
       fill="url(#paint23_linear_101_267)"
       id="path28"
       style="fill:url(#paint23_linear_101_267)" />
  </g>
  <path
     d="m 43.313325,173.12604 c 0.298298,0 0.540126,0.22808 0.540126,0.50991 v 8.53462 c 0,0.28063 -0.241828,0.50871 -0.540126,0.50871 h -9.048571 c -0.298424,0 -0.540253,-0.22808 -0.540253,-0.50871 v -8.53462 c 0,-0.28183 0.241829,-0.50991 0.540253,-0.50991 z"
     fill="url(#paint24_linear_101_267)"
     id="path29"
     style="fill:url(#paint24_linear_101_267);stroke-width:1.22961" />
  <path
     d="m 36.803069,180.86417 v -5.92778 h 4.162112 v 1.03294 h -2.833067 v 1.41269 h 2.5568 v 1.03294 h -2.5568 v 2.44921 z"
     fill="#ffffff"
     id="path30"
     style="stroke-width:1.22961" />
  <rect
     x="10.491732"
     y="109.18881"
     width="1.2661188"
     height="13.150279"
     rx="0.63305938"
     fill="#363bb4"
     id="rect30"
     style="stroke-width:1.22961" />
  <rect
     x="283.77863"
     y="109.18881"
     width="1.2661188"
     height="20.140863"
     rx="0.63305938"
     fill="url(#paint25_linear_101_267)"
     id="rect31"
     style="fill:url(#paint25_linear_101_267);stroke-width:1.22961" />
  <rect
     x="254.02487"
     y="128.13504"
     width="1.2661188"
     height="17.351557"
     rx="0.63305938"
     fill="url(#paint26_linear_101_267)"
     id="rect32"
     style="fill:url(#paint26_linear_101_267);stroke-width:1.22961" />
  <rect
     x="39.611195"
     y="121.39881"
     width="1.2661188"
     height="12.565262"
     rx="0.63305938"
     fill="url(#paint27_linear_101_267)"
     id="rect33"
     style="fill:url(#paint27_linear_101_267);stroke-width:1.22961" />
  <rect
     x="121.14445"
     y="-40.877308"
     width="1.1941555"
     height="30.385582"
     rx="0.59707773"
     transform="rotate(90)"
     fill="url(#paint28_linear_101_267)"
     id="rect34"
     style="fill:url(#paint28_linear_101_267);stroke-width:1.22961" />
  <rect
     x="128.13504"
     y="-285.04474"
     width="1.1941555"
     height="31.019907"
     rx="0.59707773"
     transform="rotate(90)"
     fill="url(#paint29_linear_101_267)"
     id="rect35"
     style="fill:url(#paint29_linear_101_267);stroke-width:1.22961" />
  <rect
     x="122.84373"
     y="-184.03128"
     width="1.1941555"
     height="24.476606"
     rx="0.59707773"
     transform="rotate(90)"
     fill="url(#paint30_linear_101_267)"
     id="rect36"
     style="fill:url(#paint30_linear_101_267);stroke-width:1.22961" />
  <rect
     x="122.84373"
     y="-161.45384"
     width="1.1941555"
     height="49.948006"
     rx="0.59707773"
     transform="rotate(90)"
     fill="url(#paint31_linear_101_267)"
     id="rect37"
     style="fill:url(#paint31_linear_101_267);stroke-width:1.22961" />
  <rect
     x="10.491732"
     y="109.18881"
     width="274.55276"
     height="1.1941555"
     rx="0.63305938"
     fill="url(#paint32_linear_101_267)"
     id="rect38"
     style="fill:url(#paint32_linear_101_267);stroke-width:1.22961" />
  <rect
     x="157.49596"
     y="92.530464"
     width="1.2661188"
     height="17.732256"
     rx="0.63305938"
     fill="url(#paint33_linear_101_267)"
     id="rect39"
     style="fill:url(#paint33_linear_101_267);stroke-width:1.22961" />
  <rect
     x="160.18773"
     y="95.064583"
     width="1.2661188"
     height="28.973675"
     rx="0.63305938"
     fill="url(#paint34_linear_101_267)"
     id="rect40"
     style="fill:url(#paint34_linear_101_267);stroke-width:1.22961" />
  <rect
     x="182.76517"
     y="122.84373"
     width="1.2661188"
     height="10.732974"
     rx="0.63305938"
     fill="url(#paint35_linear_101_267)"
     id="rect41"
     style="fill:url(#paint35_linear_101_267);stroke-width:1.22961" />
  <rect
     x="111.50546"
     y="122.84373"
     width="1.2661188"
     height="22.824131"
     rx="0.63305938"
     fill="url(#paint36_linear_101_267)"
     id="rect42"
     style="fill:url(#paint36_linear_101_267);stroke-width:1.22961" />
  <rect
     x="123.9438"
     y="28.540087"
     width="68.370407"
     height="64.484398"
     rx="1.8991779"
     stroke="url(#paint37_linear_101_267)"
     id="rect43"
     style="stroke:url(#paint37_linear_101_267);stroke-width:1.22961" />
  <path
     d="m 161.12212,66.689294 -9.64782,5.264674 C 147.18469,74.29487 141.82266,71.36895 141.82266,66.6881 V 52.970597 c 0,-4.681566 5.36203,-7.607128 9.65164,-5.266464 v 13.716666 c 0,4.680134 5.35948,7.605696 9.64782,5.268495 z"
     fill="url(#paint38_linear_101_267)"
     id="path43"
     style="fill:url(#paint38_linear_101_267);stroke-width:1.22961" />
  <path
     d="m 173.69469,59.828871 -12.56876,6.858512 h -0.003 c -4.28962,2.337201 -9.64784,-0.588361 -9.64784,-5.268495 l 12.56876,-6.856243 c 4.28962,-2.340544 4.28962,-8.192503 0,-10.533048 l 9.65163,5.266583 c 4.28961,2.340546 4.28961,8.192027 0,10.532691 z"
     fill="url(#paint39_linear_101_267)"
     id="path44"
     style="fill:url(#paint39_linear_101_267);stroke-width:1.22961" />
  <path
     d="M 164.04306,54.562645 151.4743,47.704133 c -4.28961,-2.340664 -9.65164,0.584898 -9.65164,5.266464 V 42.436832 c 0,-4.680849 5.36203,-7.607247 9.65037,-5.264314 l 12.57003,6.857079 c 4.2896,2.340545 4.2896,8.192504 0,10.533048 z"
     fill="url(#paint40_linear_101_267)"
     id="path45"
     style="fill:url(#paint40_linear_101_267);stroke-width:1.22961" />
  <g
     filter="url(#filter4_d_101_267)"
     id="g46"
     transform="matrix(1.2661188,0,0,1.1941554,-47.311398,-0.07187717)">
    <path
       d="m 156.718,65.1415 v -4.3593 c 0,0 3.374,-1.8389 0,4e-4 -3.375,1.8392 -7.623,-0.4902 -7.623,-4.41 v 8.7689 2.461 c 0,1.0129 0.402,1.9844 1.117,2.7007 0.714,0.7163 1.684,1.1187 2.695,1.1187 1.011,0 1.98,-0.4024 2.695,-1.1187 0.715,-0.7163 1.116,-1.6878 1.116,-2.7007 z"
       fill="url(#paint41_linear_101_267)"
       id="path46"
       style="fill:url(#paint41_linear_101_267)" />
  </g>
  <rect
     x="122.02564"
     y="31.030855"
     width="68.370407"
     height="64.484398"
     rx="1.8991779"
     stroke="url(#paint42_linear_101_267)"
     id="rect46"
     style="stroke:url(#paint42_linear_101_267);stroke-width:1.22961" />
  <defs
     id="defs148">
    <filter
       id="filter0_d_101_267"
       x="113.218"
       y="61.8333"
       width="146"
       height="157.205"
       filterUnits="userSpaceOnUse"
       color-interpolation-filters="sRGB">
      <feFlood
         flood-opacity="0"
         result="BackgroundImageFix"
         id="feFlood46" />
      <feColorMatrix
         in="SourceAlpha"
         type="matrix"
         values="0 0 0 0 0 0 0 0 0 0 0 0 0 0 0 0 0 0 127 0"
         result="hardAlpha"
         id="feColorMatrix46" />
      <feOffset
         dx="4"
         dy="5"
         id="feOffset46" />
      <feGaussianBlur
         stdDeviation="30.5"
         id="feGaussianBlur46" />
      <feComposite
         in2="hardAlpha"
         operator="out"
         id="feComposite46" />
      <feColorMatrix
         type="matrix"
         values="0 0 0 0 0 0 0 0 0 0 0 0 0 0 0 0 0 0 0.1 0"
         id="feColorMatrix47" />
      <feBlend
         mode="normal"
         in2="BackgroundImageFix"
         result="effect1_dropShadow_101_267"
         id="feBlend47" />
      <feBlend
         mode="normal"
         in="SourceGraphic"
         in2="effect1_dropShadow_101_267"
         result="shape"
         id="feBlend48" />
    </filter>
    <filter
       id="filter1_d_101_267"
       x="223.733"
       y="119.701"
       width="31.6919"
       height="34.0802"
       filterUnits="userSpaceOnUse"
       color-interpolation-filters="sRGB">
      <feFlood
         flood-opacity="0"
         result="BackgroundImageFix"
         id="feFlood48" />
      <feColorMatrix
         in="SourceAlpha"
         type="matrix"
         values="0 0 0 0 0 0 0 0 0 0 0 0 0 0 0 0 0 0 127 0"
         result="hardAlpha"
         id="feColorMatrix48" />
      <feOffset
         dx="1"
         dy="-2"
         id="feOffset48" />
      <feGaussianBlur
         stdDeviation="2"
         id="feGaussianBlur48" />
      <feComposite
         in2="hardAlpha"
         operator="out"
         id="feComposite48" />
      <feColorMatrix
         type="matrix"
         values="0 0 0 0 0 0 0 0 0 0 0 0 0 0 0 0 0 0 0.15 0"
         id="feColorMatrix49" />
      <feBlend
         mode="normal"
         in2="BackgroundImageFix"
         result="effect1_dropShadow_101_267"
         id="feBlend49" />
      <feBlend
         mode="normal"
         in="SourceGraphic"
         in2="effect1_dropShadow_101_267"
         result="shape"
         id="feBlend50" />
    </filter>
    <filter
       id="filter2_d_101_267"
       x="169.574"
       y="91.1797"
       width="129.799"
       height="135.508"
       filterUnits="userSpaceOnUse"
       color-interpolation-filters="sRGB">
      <feFlood
         flood-opacity="0"
         result="BackgroundImageFix"
         id="feFlood50" />
      <feColorMatrix
         in="SourceAlpha"
         type="matrix"
         values="0 0 0 0 0 0 0 0 0 0 0 0 0 0 0 0 0 0 127 0"
         result="hardAlpha"
         id="feColorMatrix50" />
      <feOffset
         dx="4"
         dy="5"
         id="feOffset50" />
      <feGaussianBlur
         stdDeviation="30.5"
         id="feGaussianBlur50" />
      <feComposite
         in2="hardAlpha"
         operator="out"
         id="feComposite50" />
      <feColorMatrix
         type="matrix"
         values="0 0 0 0 0 0 0 0 0 0 0 0 0 0 0 0 0 0 0.1 0"
         id="feColorMatrix51" />
      <feBlend
         mode="normal"
         in2="BackgroundImageFix"
         result="effect1_dropShadow_101_267"
         id="feBlend51" />
      <feBlend
         mode="normal"
         in="SourceGraphic"
         in2="effect1_dropShadow_101_267"
         result="shape"
         id="feBlend52" />
    </filter>
    <filter
       id="filter3_d_101_267"
       x="0.652832"
       y="61.8333"
       width="146"
       height="157.205"
       filterUnits="userSpaceOnUse"
       color-interpolation-filters="sRGB">
      <feFlood
         flood-opacity="0"
         result="BackgroundImageFix"
         id="feFlood52" />
      <feColorMatrix
         in="SourceAlpha"
         type="matrix"
         values="0 0 0 0 0 0 0 0 0 0 0 0 0 0 0 0 0 0 127 0"
         result="hardAlpha"
         id="feColorMatrix52" />
      <feOffset
         dx="4"
         dy="5"
         id="feOffset52" />
      <feGaussianBlur
         stdDeviation="30.5"
         id="feGaussianBlur52" />
      <feComposite
         in2="hardAlpha"
         operator="out"
         id="feComposite52" />
      <feColorMatrix
         type="matrix"
         values="0 0 0 0 0 0 0 0 0 0 0 0 0 0 0 0 0 0 0.1 0"
         id="feColorMatrix53" />
      <feBlend
         mode="normal"
         in2="BackgroundImageFix"
         result="effect1_dropShadow_101_267"
         id="feBlend53" />
      <feBlend
         mode="normal"
         in="SourceGraphic"
         in2="effect1_dropShadow_101_267"
         result="shape"
         id="feBlend54" />
    </filter>
    <filter
       id="filter4_d_101_267"
       x="92.0952"
       y="0.37262"
       width="131.122"
       height="137.049"
       filterUnits="userSpaceOnUse"
       color-interpolation-filters="sRGB">
      <feFlood
         flood-opacity="0"
         result="BackgroundImageFix"
         id="feFlood54" />
      <feColorMatrix
         in="SourceAlpha"
         type="matrix"
         values="0 0 0 0 0 0 0 0 0 0 0 0 0 0 0 0 0 0 127 0"
         result="hardAlpha"
         id="feColorMatrix54" />
      <feOffset
         dx="4"
         dy="5"
         id="feOffset54" />
      <feGaussianBlur
         stdDeviation="30.5"
         id="feGaussianBlur54" />
      <feComposite
         in2="hardAlpha"
         operator="out"
         id="feComposite54" />
      <feColorMatrix
         type="matrix"
         values="0 0 0 0 0 0 0 0 0 0 0 0 0 0 0 0 0 0 0.1 0"
         id="feColorMatrix55" />
      <feBlend
         mode="normal"
         in2="BackgroundImageFix"
         result="effect1_dropShadow_101_267"
         id="feBlend55" />
      <feBlend
         mode="normal"
         in="SourceGraphic"
         in2="effect1_dropShadow_101_267"
         result="shape"
         id="feBlend56" />
    </filter>
    <linearGradient
       id="paint0_linear_101_267"
       x1="101.936"
       y1="145.28"
       x2="153.036"
       y2="145.28"
       gradientUnits="userSpaceOnUse"
       gradientTransform="matrix(1.2661187,0,0,1.1941555,-47.311398,-0.07187717)">
      <stop
         stop-color="#0A91F1"
         id="stop56" />
      <stop
         offset="1"
         stop-color="#065289"
         id="stop57" />
    </linearGradient>
    <linearGradient
       id="paint1_linear_101_267"
       x1="120.087"
       y1="162.882"
       x2="97.8365"
       y2="127.394"
       gradientUnits="userSpaceOnUse"
       gradientTransform="matrix(1.2661187,0,0,1.1941555,-47.311398,-0.07187717)">
      <stop
         stop-color="#0A91F1"
         id="stop58" />
      <stop
         offset="1"
         stop-color="#0B0F60"
         id="stop59" />
    </linearGradient>
    <linearGradient
       id="paint2_linear_101_267"
       x1="137.936"
       y1="141.059"
       x2="103.542"
       y2="163.804"
       gradientUnits="userSpaceOnUse"
       gradientTransform="matrix(1.2661187,0,0,1.1941555,-47.311398,-0.07187717)">
      <stop
         stop-color="#0A91F1"
         id="stop60" />
      <stop
         offset="1"
         stop-color="#0B0F60"
         id="stop61" />
    </linearGradient>
    <linearGradient
       id="paint3_linear_101_267"
       x1="115.446"
       y1="131.588"
       x2="153.115"
       y2="141.921"
       gradientUnits="userSpaceOnUse"
       gradientTransform="matrix(1.2661187,0,0,1.1941555,-47.311398,-0.07187717)">
      <stop
         stop-color="#0A91F1"
         id="stop62" />
      <stop
         offset="1"
         stop-color="#0B0F60"
         id="stop63" />
    </linearGradient>
    <linearGradient
       id="paint4_linear_101_267"
       x1="117.86"
       y1="154.111"
       x2="124.027"
       y2="163.401"
       gradientUnits="userSpaceOnUse"
       gradientTransform="matrix(1.2661187,0,0,1.1941555,-47.311398,-0.07187717)">
      <stop
         stop-color="#0C8AE8"
         id="stop64" />
      <stop
         offset="1"
         stop-color="#0B0F60"
         id="stop65" />
    </linearGradient>
    <linearGradient
       id="paint5_linear_101_267"
       x1="113.936"
       y1="145.28"
       x2="139.486"
       y2="145.28"
       gradientUnits="userSpaceOnUse"
       gradientTransform="matrix(1.2661187,0,0,1.1941555,-47.311398,-0.07187717)">
      <stop
         stop-color="#0B6CC7"
         id="stop66" />
      <stop
         offset="1"
         stop-color="#0B4EA7"
         id="stop67" />
    </linearGradient>
    <linearGradient
       id="paint6_linear_101_267"
       x1="158.218"
       y1="135.436"
       x2="209.318"
       y2="135.436"
       gradientUnits="userSpaceOnUse"
       gradientTransform="matrix(1.2661187,0,0,1.1941555,-47.311398,-0.07187717)">
      <stop
         stop-color="#B23AE8"
         id="stop68" />
      <stop
         offset="1"
         stop-color="#530B99"
         id="stop69" />
    </linearGradient>
    <linearGradient
       id="paint7_linear_101_267"
       x1="194.218"
       y1="131.215"
       x2="159.824"
       y2="153.96"
       gradientUnits="userSpaceOnUse">
      <stop
         stop-color="#6D28A1"
         id="stop70" />
      <stop
         offset="1"
         stop-color="#0B0F60"
         id="stop71" />
    </linearGradient>
    <linearGradient
       id="paint8_linear_101_267"
       x1="191.989"
       y1="128.119"
       x2="177.854"
       y2="138.881"
       gradientUnits="userSpaceOnUse">
      <stop
         stop-color="#4A1D6D"
         id="stop72" />
      <stop
         offset="1"
         stop-color="#662697"
         stop-opacity="0.86"
         id="stop73" />
    </linearGradient>
    <linearGradient
       id="paint9_linear_101_267"
       x1="172.453"
       y1="121.477"
       x2="200.489"
       y2="130.331"
       gradientUnits="userSpaceOnUse">
      <stop
         stop-color="#6D29A0"
         id="stop74" />
      <stop
         offset="1"
         stop-color="#301979"
         id="stop75" />
    </linearGradient>
    <linearGradient
       id="paint10_linear_101_267"
       x1="175.917"
       y1="150.183"
       x2="184.434"
       y2="150.183"
       gradientUnits="userSpaceOnUse"
       gradientTransform="matrix(1.2661187,0,0,1.1941555,-47.311398,-0.07187717)">
      <stop
         stop-color="#B23AE8"
         id="stop76" />
      <stop
         offset="1"
         stop-color="#530B99"
         id="stop77" />
    </linearGradient>
    <linearGradient
       id="paint11_linear_101_267"
       x1="214.5"
       y1="145.28"
       x2="265.6"
       y2="145.28"
       gradientUnits="userSpaceOnUse"
       gradientTransform="matrix(1.2661187,0,0,1.1941555,-47.311398,-0.07187717)">
      <stop
         stop-color="#1E999F"
         id="stop78" />
      <stop
         offset="1"
         stop-color="#065289"
         id="stop79" />
    </linearGradient>
    <linearGradient
       id="paint12_linear_101_267"
       x1="230.073"
       y1="151.782"
       x2="218.515"
       y2="132.775"
       gradientUnits="userSpaceOnUse">
      <stop
         stop-color="#1E999F"
         id="stop80" />
      <stop
         offset="1"
         stop-color="#0B0F60"
         id="stop81" />
    </linearGradient>
    <linearGradient
       id="paint13_linear_101_267"
       x1="250.425"
       y1="137.59"
       x2="232.58"
       y2="155.279"
       gradientUnits="userSpaceOnUse">
      <stop
         stop-color="#1E999F"
         id="stop82" />
      <stop
         offset="1"
         stop-color="#0B0F60"
         id="stop83" />
    </linearGradient>
    <linearGradient
       id="paint14_linear_101_267"
       x1="227.814"
       y1="127.15"
       x2="250.443"
       y2="139.144"
       gradientUnits="userSpaceOnUse">
      <stop
         stop-color="#1E999F"
         id="stop84" />
      <stop
         offset="1"
         stop-color="#0B0F60"
         id="stop85" />
    </linearGradient>
    <linearGradient
       id="paint15_linear_101_267"
       x1="226.574"
       y1="153.934"
       x2="234.876"
       y2="153.934"
       gradientUnits="userSpaceOnUse">
      <stop
         stop-color="#1E999F"
         id="stop86" />
      <stop
         offset="1"
         stop-color="#065289"
         id="stop87" />
    </linearGradient>
    <linearGradient
       id="paint16_linear_101_267"
       x1="226.574"
       y1="153.934"
       x2="234.876"
       y2="153.934"
       gradientUnits="userSpaceOnUse">
      <stop
         stop-color="#1E999F"
         id="stop88" />
      <stop
         offset="1"
         stop-color="#065289"
         id="stop89" />
    </linearGradient>
    <linearGradient
       id="paint17_linear_101_267"
       x1="232.436"
       y1="157.308"
       x2="240.953"
       y2="157.308"
       gradientUnits="userSpaceOnUse"
       gradientTransform="matrix(1.2661187,0,0,1.1941555,-47.311398,-0.07187717)">
      <stop
         stop-color="#1E999F"
         id="stop90" />
      <stop
         offset="1"
         stop-color="#065289"
         id="stop91" />
    </linearGradient>
    <linearGradient
       id="paint18_linear_101_267"
       x1="45.6538"
       y1="135.436"
       x2="96.7539"
       y2="135.436"
       gradientUnits="userSpaceOnUse"
       gradientTransform="matrix(1.2661187,0,0,1.1941555,-47.311398,-0.07187717)">
      <stop
         stop-color="#3338B1"
         id="stop92" />
      <stop
         offset="1"
         stop-color="#4F54EB"
         id="stop93" />
    </linearGradient>
    <linearGradient
       id="paint19_linear_101_267"
       x1="63.8033"
       y1="153.038"
       x2="41.5531"
       y2="117.55"
       gradientUnits="userSpaceOnUse">
      <stop
         stop-color="#4E54EA"
         id="stop94" />
      <stop
         offset="1"
         stop-color="#0B0F60"
         id="stop95" />
    </linearGradient>
    <linearGradient
       id="paint20_linear_101_267"
       x1="81.6527"
       y1="131.215"
       x2="47.2588"
       y2="153.96"
       gradientUnits="userSpaceOnUse">
      <stop
         stop-color="#4E54EA"
         id="stop96" />
      <stop
         offset="1"
         stop-color="#0B0F60"
         id="stop97" />
    </linearGradient>
    <linearGradient
       id="paint21_linear_101_267"
       x1="60.9316"
       y1="144.523"
       x2="65.6229"
       y2="149.269"
       gradientUnits="userSpaceOnUse">
      <stop
         stop-color="#4E54EA"
         id="stop98" />
      <stop
         offset="1"
         stop-color="#0B0F60"
         id="stop99" />
    </linearGradient>
    <linearGradient
       id="paint22_linear_101_267"
       x1="60.9316"
       y1="144.523"
       x2="65.6229"
       y2="149.269"
       gradientUnits="userSpaceOnUse">
      <stop
         stop-color="#4E54EA"
         id="stop100" />
      <stop
         offset="1"
         stop-color="#0B0F60"
         id="stop101" />
    </linearGradient>
    <linearGradient
       id="paint23_linear_101_267"
       x1="60.9316"
       y1="144.523"
       x2="65.6229"
       y2="149.269"
       gradientUnits="userSpaceOnUse">
      <stop
         stop-color="#4E54EA"
         id="stop102" />
      <stop
         offset="1"
         stop-color="#0B0F60"
         id="stop103" />
    </linearGradient>
    <linearGradient
       id="paint24_linear_101_267"
       x1="64.5067"
       y1="145.927"
       x2="76.1264"
       y2="150.603"
       gradientUnits="userSpaceOnUse"
       gradientTransform="matrix(1.2661187,0,0,1.1941555,-47.311398,-0.07187717)">
      <stop
         stop-color="#4E54EA"
         id="stop104" />
      <stop
         offset="1"
         stop-color="#0B0F60"
         id="stop105" />
    </linearGradient>
    <linearGradient
       id="paint25_linear_101_267"
       x1="262"
       y1="91.4962"
       x2="262"
       y2="108.362"
       gradientUnits="userSpaceOnUse"
       gradientTransform="matrix(1.2661187,0,0,1.1941555,-47.311398,-0.07187717)">
      <stop
         stop-color="#08598C"
         id="stop106" />
      <stop
         offset="1"
         stop-color="#0A588D"
         id="stop107" />
    </linearGradient>
    <linearGradient
       id="paint26_linear_101_267"
       x1="238.5"
       y1="107.362"
       x2="238.5"
       y2="121.893"
       gradientUnits="userSpaceOnUse"
       gradientTransform="matrix(1.2661187,0,0,1.1941555,-47.311398,-0.07187717)">
      <stop
         stop-color="#363BB4"
         id="stop108" />
      <stop
         offset="1"
         stop-color="#127594"
         id="stop109" />
    </linearGradient>
    <linearGradient
       id="paint27_linear_101_267"
       x1="69.1528"
       y1="101.721"
       x2="69.1528"
       y2="112.244"
       gradientUnits="userSpaceOnUse"
       gradientTransform="matrix(1.2661187,0,0,1.1941555,-47.311398,-0.07187717)">
      <stop
         stop-color="#4045CB"
         id="stop110" />
      <stop
         offset="1"
         stop-color="#4045CA"
         id="stop111" />
    </linearGradient>
    <linearGradient
       id="paint28_linear_101_267"
       x1="70.1528"
       y1="101.508"
       x2="70.1528"
       y2="125.507"
       gradientUnits="userSpaceOnUse"
       gradientTransform="matrix(1.1941555,0,0,1.2661187,37.968183,-169.39848)">
      <stop
         stop-color="#4146CD"
         id="stop112" />
      <stop
         offset="1"
         stop-color="#363BB4"
         id="stop113" />
    </linearGradient>
    <linearGradient
       id="paint29_linear_101_267"
       x1="263"
       y1="107.362"
       x2="263"
       y2="131.862"
       gradientUnits="userSpaceOnUse"
       gradientTransform="matrix(1.1941555,0,0,1.2661187,-185.33077,-420.97778)">
      <stop
         stop-color="#08598B"
         id="stop114" />
      <stop
         offset="1"
         stop-color="#363BB4"
         id="stop115" />
    </linearGradient>
    <linearGradient
       id="paint30_linear_101_267"
       x1="183.218"
       y1="102.931"
       x2="183.218"
       y2="122.263"
       gradientUnits="userSpaceOnUse"
       gradientTransform="matrix(1.1941555,0,0,1.2661187,-95.349957,-314.35413)">
      <stop
         stop-color="#8223C0"
         id="stop116" />
      <stop
         offset="1"
         stop-color="#362A88"
         id="stop117" />
    </linearGradient>
    <linearGradient
       id="paint31_linear_101_267"
       x1="165.386"
       y1="102.931"
       x2="165.386"
       y2="142.381"
       gradientUnits="userSpaceOnUse"
       gradientTransform="matrix(1.1941555,0,0,1.2661187,-74.055778,-291.7767)">
      <stop
         stop-color="#362A88"
         id="stop118" />
      <stop
         offset="1"
         stop-color="#362A88"
         id="stop119" />
    </linearGradient>
    <linearGradient
       id="paint32_linear_101_267"
       x1="45.6538"
       y1="91.9962"
       x2="276.505"
       y2="91.9957"
       gradientUnits="userSpaceOnUse"
       gradientTransform="matrix(1.2661187,0,0,1.1941555,-47.311398,-0.07187717)">
      <stop
         stop-color="#3439B2"
         id="stop120" />
      <stop
         offset="0.193559"
         stop-color="#4C51E3"
         id="stop121" />
      <stop
         offset="0.25399"
         stop-color="#0C90EE"
         id="stop122" />
      <stop
         offset="0.439391"
         stop-color="#085993"
         id="stop123" />
      <stop
         offset="0.540892"
         stop-color="#411A83"
         id="stop124" />
      <stop
         offset="0.6875"
         stop-color="#240F6A"
         id="stop125" />
      <stop
         offset="0.786458"
         stop-color="#19899A"
         id="stop126" />
      <stop
         offset="0.932229"
         stop-color="#08588B"
         id="stop127" />
      <stop
         offset="1"
         stop-color="#065289"
         id="stop128" />
    </linearGradient>
    <linearGradient
       id="paint33_linear_101_267"
       x1="162.26"
       y1="77.5463"
       x2="162.26"
       y2="90.9715"
       gradientUnits="userSpaceOnUse"
       gradientTransform="matrix(1.2661187,0,0,1.1941555,-47.311398,-0.07187717)">
      <stop
         stop-color="#06538A"
         id="stop129" />
      <stop
         offset="1"
         stop-color="#2B338A"
         id="stop130" />
    </linearGradient>
    <linearGradient
       id="paint34_linear_101_267"
       x1="164.386"
       y1="79.6684"
       x2="164.386"
       y2="101.605"
       gradientUnits="userSpaceOnUse"
       gradientTransform="matrix(1.2661187,0,0,1.1941555,-47.311398,-0.07187717)">
      <stop
         stop-color="#8122C0"
         id="stop131" />
      <stop
         offset="1"
         stop-color="#352987"
         id="stop132" />
    </linearGradient>
    <linearGradient
       id="paint35_linear_101_267"
       x1="182.218"
       y1="102.931"
       x2="182.218"
       y2="111.057"
       gradientUnits="userSpaceOnUse"
       gradientTransform="matrix(1.2661187,0,0,1.1941555,-47.311398,-0.07187717)">
      <stop
         stop-color="#8122C0"
         id="stop133" />
      <stop
         offset="1"
         stop-color="#8625C4"
         id="stop134" />
    </linearGradient>
    <linearGradient
       id="paint36_linear_101_267"
       x1="125.936"
       y1="102.931"
       x2="125.936"
       y2="120.212"
       gradientUnits="userSpaceOnUse"
       gradientTransform="matrix(1.2661187,0,0,1.1941555,-47.311398,-0.07187717)">
      <stop
         stop-color="#362A88"
         id="stop135" />
      <stop
         offset="1"
         stop-color="#0875C2"
         id="stop136" />
    </linearGradient>
    <linearGradient
       id="paint37_linear_101_267"
       x1="134.76"
       y1="35.2101"
       x2="146.561"
       y2="81.5682"
       gradientUnits="userSpaceOnUse"
       gradientTransform="matrix(1.2661187,0,0,1.1941555,-47.311398,-0.07187717)">
      <stop
         stop-color="#1E999F"
         id="stop137" />
      <stop
         offset="1"
         stop-color="#065289"
         id="stop138" />
    </linearGradient>
    <linearGradient
       id="paint38_linear_101_267"
       x1="152.784"
       y1="38.847"
       x2="153.533"
       y2="59.5835"
       gradientUnits="userSpaceOnUse"
       gradientTransform="matrix(1.2661187,0,0,1.1941555,-47.311398,-0.07187717)">
      <stop
         stop-color="#0A91F1"
         id="stop139" />
      <stop
         offset="1"
         stop-color="#065289"
         id="stop140" />
    </linearGradient>
    <linearGradient
       id="paint39_linear_101_267"
       x1="157.725"
       y1="55.2416"
       x2="177.095"
       y2="43.713"
       gradientUnits="userSpaceOnUse"
       gradientTransform="matrix(1.2661187,0,0,1.1941555,-47.311398,-0.07187717)">
      <stop
         stop-color="#B23AE8"
         id="stop141" />
      <stop
         offset="1"
         stop-color="#530B99"
         id="stop142" />
    </linearGradient>
    <linearGradient
       id="paint40_linear_101_267"
       x1="150.314"
       y1="32.2592"
       x2="169.029"
       y2="43.0392"
       gradientUnits="userSpaceOnUse"
       gradientTransform="matrix(1.2661187,0,0,1.1941555,-47.311398,-0.07187717)">
      <stop
         stop-color="#4E54EA"
         id="stop143" />
      <stop
         offset="1"
         stop-color="#531E7B"
         id="stop144" />
    </linearGradient>
    <linearGradient
       id="paint41_linear_101_267"
       x1="149.095"
       y1="58.9967"
       x2="154.33"
       y2="70.8697"
       gradientUnits="userSpaceOnUse">
      <stop
         stop-color="#1E999F"
         id="stop145" />
      <stop
         offset="1"
         stop-color="#065289"
         id="stop146" />
    </linearGradient>
    <linearGradient
       id="paint42_linear_101_267"
       x1="133.245"
       y1="53.0458"
       x2="191.797"
       y2="53.0458"
       gradientUnits="userSpaceOnUse"
       gradientTransform="matrix(1.2661187,0,0,1.1941555,-47.311398,-0.07187717)">
      <stop
         stop-color="#B23AE8"
         id="stop147" />
      <stop
         offset="1"
         stop-color="#530B99"
         id="stop148" />
    </linearGradient>
  </defs>
</svg>
