<svg xmlns="http://www.w3.org/2000/svg" version="1.1" xmlns:xlink="http://www.w3.org/1999/xlink" xmlns:svgjs="http://svgjs.dev/svgjs" width="250" height="500" preserveAspectRatio="none" viewBox="0 0 250 500">
    <g mask="url(&quot;#SvgjsMask1028&quot;)" fill="none">
        <rect width="250" height="500" x="0" y="0" fill="rgba(4, 6, 36, 1)"></rect>
        <path d="M0,208.309C41.207,212.288,84.985,208.81,119.654,186.185C154.23,163.62,175.098,125.049,187.786,85.759C199.587,49.216,190.712,11.232,188.534,-27.107C186.127,-69.487,204.978,-121.688,174.335,-151.062C143.093,-181.01,90.007,-153.447,47.621,-162.184C10.204,-169.897,-20.542,-203.834,-58.445,-199.047C-97.967,-194.055,-136.971,-170.559,-157.3,-136.301C-176.927,-103.227,-154.615,-60.993,-162.683,-23.39C-171.664,18.467,-219.244,53.483,-206.81,94.447C-194.656,134.487,-142.328,144.249,-105.672,164.43C-71.57,183.205,-38.749,204.568,0,208.309" fill="#030417"></path>
        <path d="M250 617.938C271.862 616.139 290.741 603.947 308.807 591.505 326.37 579.409 339.617 563.653 352.966 547.023 370.606 525.046 399.865 506.683 399.50800000000004 478.504 399.155 450.623 370.682 432.26300000000003 351.258 412.259 332.877 393.329 315.81100000000004 367.93600000000004 289.56 365.27 263.5 362.623 243.803 387.332 220.332 398.961 201.583 408.251 183.048 415.404 165.47 426.754 141.179 442.439 102.923 449.661 97.75299999999999 478.11 92.64099999999999 506.239 126.865 525.336 143.304 548.727 156.451 567.433 165.445 589.279 184.627 601.722 203.852 614.193 227.162 619.817 250 617.938" fill="#050831"></path>
    </g>
    <defs>
        <mask id="SvgjsMask1028">
            <rect width="250" height="500" fill="#ffffff"></rect>
        </mask>
    </defs>
</svg>