<svg id="visual" viewBox="0 0 900 600" width="900" height="600" xmlns="http://www.w3.org/2000/svg" xmlns:xlink="http://www.w3.org/1999/xlink" version="1.1"><rect x="0" y="0" width="900" height="600" fill="#0e093f"></rect><path d="M0 203L30 248C60 293 120 383 180 384.3C240 385.7 300 298.3 360 297C420 295.7 480 380.3 540 414.5C600 448.7 660 432.3 720 432.2C780 432 840 448 870 456L900 464L900 601L870 601C840 601 780 601 720 601C660 601 600 601 540 601C480 601 420 601 360 601C300 601 240 601 180 601C120 601 60 601 30 601L0 601Z" fill="#070517" stroke-linecap="round" stroke-linejoin="miter"></path></svg>